Chathura-ExtraBold.ufo
<glyph name="exclam" format="1">
  <advance width="178"/>
  <unicode hex="0021"/>
  <outline>
    <contour>
      <point x="103" y="174" type="qcurve" name="hr00"/>
      <point x="101" y="152"/>
      <point x="88" y="151" type="qcurve"/>
      <point x="67" y="150" type="line"/>
      <point x="56" y="149"/>
      <point x="54" y="174" type="qcurve"/>
      <point x="53" y="197"/>
      <point x="52" y="304"/>
      <point x="52" y="398" type="qcurve"/>
      <point x="52" y="457" type="line"/>
      <point x="52" y="465"/>
      <point x="58" y="482"/>
      <point x="65" y="482" type="qcurve"/>
      <point x="93" y="482" type="line"/>
      <point x="100" y="482"/>
      <point x="106" y="465"/>
      <point x="106" y="457" type="qcurve"/>
      <point x="106" y="398" type="line"/>
      <point x="106" y="341"/>
      <point x="106" y="286" type="qcurve"/>
      <point x="105" y="193"/>
    </contour>
    <contour>
      <point x="65" y="0" type="line"/>
      <point x="59" y="0"/>
      <point x="52" y="17"/>
      <point x="52" y="25" type="qcurve"/>
      <point x="52" y="98" type="line"/>
      <point x="52" y="106"/>
      <point x="59" y="123"/>
      <point x="65" y="123" type="qcurve"/>
      <point x="92" y="123" type="line"/>
      <point x="99" y="123"/>
      <point x="105" y="106"/>
      <point x="105" y="98" type="qcurve"/>
      <point x="105" y="25" type="line"/>
      <point x="105" y="17"/>
      <point x="99" y="0"/>
      <point x="92" y="0" type="qcurve"/>
    </contour>
  </outline>
</glyph>
<glyph name="quotedbl" format="1">
  <advance width="243"/>
  <unicode hex="0022"/>
  <outline>
    <contour>
      <point x="186" y="353" type="line" name="hr00"/>
      <point x="186" y="344"/>
      <point x="175" y="331"/>
      <point x="164" y="331" type="qcurve"/>
      <point x="162" y="331" type="line"/>
      <point x="151" y="331"/>
      <point x="140" y="344"/>
      <point x="140" y="353" type="qcurve"/>
      <point x="137" y="459" type="line"/>
      <point x="137" y="482"/>
      <point x="159" y="482" type="qcurve"/>
      <point x="169" y="482" type="line"/>
      <point x="179" y="482"/>
      <point x="190" y="468"/>
      <point x="190" y="459" type="qcurve"/>
    </contour>
    <contour>
      <point x="102" y="353" type="line"/>
      <point x="102" y="346"/>
      <point x="92" y="331"/>
      <point x="80" y="331" type="qcurve"/>
      <point x="78" y="331" type="line"/>
      <point x="66" y="331"/>
      <point x="57" y="346"/>
      <point x="57" y="353" type="qcurve"/>
      <point x="52" y="459" type="line"/>
      <point x="51" y="470"/>
      <point x="65" y="482"/>
      <point x="74" y="482" type="qcurve"/>
      <point x="84" y="482" type="line"/>
      <point x="93" y="482"/>
      <point x="107" y="470"/>
      <point x="106" y="459" type="qcurve"/>
    </contour>
  </outline>
</glyph>
<glyph name="numbersign" format="1">
  <advance width="509"/>
  <unicode hex="0023"/>
  <outline>
    <contour>
      <point x="384" y="305" type="line"/>
      <point x="347" y="177" type="line"/>
      <point x="391" y="177" type="line" smooth="yes"/>
      <point x="400" y="177"/>
      <point x="416" y="165"/>
      <point x="416" y="153" type="qcurve" smooth="yes"/>
      <point x="416" y="144" type="line" smooth="yes"/>
      <point x="416" y="132"/>
      <point x="400" y="120"/>
      <point x="391" y="120" type="qcurve" smooth="yes"/>
      <point x="331" y="120" type="line"/>
      <point x="303" y="21" type="line" smooth="yes"/>
      <point x="301" y="15"/>
      <point x="289" y="0"/>
      <point x="277" y="0" type="qcurve" smooth="yes"/>
      <point x="270" y="0" type="line" smooth="yes"/>
      <point x="259" y="0"/>
      <point x="249" y="9"/>
      <point x="247.5" y="15.0" type="qcurve" smooth="yes" name="inserted"/>
      <point x="246" y="21"/>
      <point x="247" y="33"/>
      <point x="248" y="36" type="qcurve" smooth="yes"/>
      <point x="272" y="120" type="line"/>
      <point x="168" y="120" type="line"/>
      <point x="140" y="20" type="line"/>
      <point x="138" y="15"/>
      <point x="126" y="0"/>
      <point x="114" y="0" type="qcurve" smooth="yes"/>
      <point x="106" y="0" type="line" smooth="yes"/>
      <point x="88" y="0"/>
      <point x="82" y="25"/>
      <point x="85" y="36" type="qcurve" smooth="yes"/>
      <point x="109" y="120" type="line"/>
      <point x="70" y="120" type="line" smooth="yes"/>
      <point x="61" y="120"/>
      <point x="45" y="132"/>
      <point x="45" y="144" type="qcurve" smooth="yes"/>
      <point x="45" y="153" type="line" smooth="yes"/>
      <point x="45" y="165"/>
      <point x="61" y="177"/>
      <point x="70" y="177" type="qcurve" smooth="yes"/>
      <point x="125" y="177" type="line"/>
      <point x="162" y="305" type="line"/>
      <point x="118" y="305" type="line" smooth="yes"/>
      <point x="109" y="305"/>
      <point x="93" y="317"/>
      <point x="93" y="329" type="qcurve" smooth="yes"/>
      <point x="93" y="338" type="line" smooth="yes"/>
      <point x="93" y="350"/>
      <point x="109" y="362"/>
      <point x="118" y="362" type="qcurve" smooth="yes"/>
      <point x="178" y="362" type="line"/>
      <point x="206" y="461" type="line" smooth="yes"/>
      <point x="208" y="469"/>
      <point x="222" y="482"/>
      <point x="233" y="482" type="qcurve" smooth="yes"/>
      <point x="239" y="482" type="line" smooth="yes"/>
      <point x="249" y="482"/>
      <point x="259" y="473"/>
      <point x="261.0" y="467.0" type="qcurve" smooth="yes" name="inserted"/>
      <point x="263" y="461"/>
      <point x="262" y="450"/>
      <point x="261" y="448" type="qcurve"/>
      <point x="237" y="362" type="line"/>
      <point x="341" y="362" type="line"/>
      <point x="369" y="462" type="line" smooth="yes"/>
      <point x="371" y="468"/>
      <point x="384" y="482"/>
      <point x="396" y="482" type="qcurve" smooth="yes"/>
      <point x="401" y="482" type="line" smooth="yes"/>
      <point x="411" y="482"/>
      <point x="421" y="473"/>
      <point x="423.5" y="467.0" type="qcurve" smooth="yes" name="inserted"/>
      <point x="426" y="461"/>
      <point x="425" y="450"/>
      <point x="424" y="448" type="qcurve"/>
      <point x="400" y="362" type="line"/>
      <point x="439" y="362" type="line" smooth="yes"/>
      <point x="448" y="362"/>
      <point x="464" y="350"/>
      <point x="464" y="338" type="qcurve" smooth="yes"/>
      <point x="464" y="329" type="line" smooth="yes"/>
      <point x="464" y="317"/>
      <point x="448" y="305"/>
      <point x="439" y="305" type="qcurve" smooth="yes"/>
    </contour>
    <contour>
      <point x="221" y="305" type="line"/>
      <point x="185" y="177" type="line"/>
      <point x="288" y="177" type="line"/>
      <point x="324" y="305" type="line"/>
    </contour>
  </outline>
</glyph>
<glyph name="dollar" format="1">
  <advance width="373"/>
  <unicode hex="0024"/>
  <outline>
    <contour>
      <point x="194" y="-5" type="line" name="hr00"/>
      <point x="223" y="26" type="line"/>
      <point x="223" y="-48" type="line"/>
      <point x="223" y="-57"/>
      <point x="212" y="-74"/>
      <point x="200" y="-74" type="qcurve"/>
      <point x="191" y="-74" type="line"/>
      <point x="179" y="-74"/>
      <point x="168" y="-57"/>
      <point x="168" y="-48" type="qcurve"/>
      <point x="168" y="-5" type="line"/>
      <point x="161" y="-5" type="line"/>
      <point x="113" y="-5"/>
      <point x="56" y="57"/>
      <point x="56" y="111" type="qcurve"/>
      <point x="56" y="134" type="line"/>
      <point x="56" y="143"/>
      <point x="67" y="160"/>
      <point x="79" y="160" type="qcurve"/>
      <point x="89" y="160" type="line"/>
      <point x="101" y="160"/>
      <point x="112" y="143"/>
      <point x="112" y="134" type="qcurve"/>
      <point x="112" y="111" type="line"/>
      <point x="112" y="81"/>
      <point x="136" y="54"/>
      <point x="161" y="54" type="qcurve"/>
      <point x="213" y="54" type="line"/>
      <point x="237" y="54"/>
      <point x="262" y="81"/>
      <point x="262" y="111" type="qcurve"/>
      <point x="262" y="161" type="line"/>
      <point x="262" y="193"/>
      <point x="240" y="215"/>
      <point x="211" y="215" type="qcurve"/>
      <point x="165" y="215" type="line"/>
      <point x="114" y="215"/>
      <point x="56" y="265"/>
      <point x="56" y="325" type="qcurve"/>
      <point x="56" y="373" type="line"/>
      <point x="56" y="427"/>
      <point x="113" y="488"/>
      <point x="161" y="488" type="qcurve"/>
      <point x="168" y="488" type="line"/>
      <point x="168" y="531" type="line"/>
      <point x="168" y="540"/>
      <point x="179" y="557"/>
      <point x="191" y="557" type="qcurve"/>
      <point x="200" y="557" type="line"/>
      <point x="212" y="557"/>
      <point x="223" y="540"/>
      <point x="223" y="531" type="qcurve"/>
      <point x="223" y="488" type="line"/>
      <point x="266" y="484"/>
      <point x="317" y="422"/>
      <point x="317" y="373" type="qcurve"/>
      <point x="317" y="352" type="line"/>
      <point x="317" y="343"/>
      <point x="306" y="326"/>
      <point x="294" y="326" type="qcurve"/>
      <point x="285" y="326" type="line"/>
      <point x="272" y="326"/>
      <point x="262" y="343"/>
      <point x="262" y="352" type="qcurve"/>
      <point x="262" y="373" type="line"/>
      <point x="262" y="430"/>
      <point x="213" y="430" type="qcurve"/>
      <point x="161" y="430" type="line"/>
      <point x="112" y="430"/>
      <point x="112" y="373" type="qcurve"/>
      <point x="112" y="325" type="line"/>
      <point x="112" y="293"/>
      <point x="133" y="273"/>
      <point x="161" y="273" type="qcurve"/>
      <point x="213" y="273" type="line"/>
      <point x="264" y="273"/>
      <point x="317" y="216"/>
      <point x="317" y="162" type="qcurve"/>
      <point x="317" y="111" type="line"/>
      <point x="317" y="59"/>
      <point x="261" y="-5"/>
      <point x="213" y="-5" type="qcurve"/>
    </contour>
  </outline>
</glyph>
<glyph name="percent" format="1">
  <advance width="533"/>
  <unicode hex="0025"/>
  <outline>
    <contour>
      <point x="386" y="0" type="line" smooth="yes"/>
      <point x="336.0" y="0.0" name="inserted"/>
      <point x="286.0" y="51.5"/>
      <point x="286" y="103" type="qcurve" smooth="yes"/>
      <point x="286" y="138" type="line" smooth="yes"/>
      <point x="286.0" y="189.5" name="inserted"/>
      <point x="336.0" y="241.0"/>
      <point x="386" y="241" type="qcurve" smooth="yes"/>
      <point x="397" y="241" type="line" smooth="yes"/>
      <point x="446.5" y="241.0" name="inserted"/>
      <point x="496.0" y="189.5"/>
      <point x="496" y="138" type="qcurve" smooth="yes"/>
      <point x="496" y="103" type="line" smooth="yes"/>
      <point x="496.0" y="51.5" name="inserted"/>
      <point x="446.5" y="0.0"/>
      <point x="397" y="0" type="qcurve" smooth="yes"/>
    </contour>
    <contour>
      <point x="199" y="18" type="line"/>
      <point x="196" y="13"/>
      <point x="184" y="0"/>
      <point x="172" y="0" type="qcurve" smooth="yes"/>
      <point x="166" y="0" type="line" smooth="yes"/>
      <point x="156" y="0"/>
      <point x="146" y="8"/>
      <point x="144.0" y="13.5" type="qcurve" smooth="yes" name="inserted"/>
      <point x="142" y="19"/>
      <point x="143" y="31"/>
      <point x="145" y="35" type="qcurve" smooth="yes"/>
      <point x="334" y="465" type="line"/>
      <point x="337" y="469"/>
      <point x="349" y="482"/>
      <point x="361" y="482" type="qcurve" smooth="yes"/>
      <point x="367" y="482" type="line" smooth="yes"/>
      <point x="377" y="482"/>
      <point x="388" y="474"/>
      <point x="389.5" y="468.0" type="qcurve" smooth="yes" name="inserted"/>
      <point x="391" y="462"/>
      <point x="389" y="450"/>
      <point x="387" y="446" type="qcurve" smooth="yes"/>
    </contour>
    <contour>
      <point x="137" y="245" type="line" smooth="yes"/>
      <point x="87.0" y="245.0" name="inserted"/>
      <point x="37.0" y="297.0"/>
      <point x="37" y="349" type="qcurve" smooth="yes"/>
      <point x="37" y="383" type="line" smooth="yes"/>
      <point x="37.0" y="434.5" name="inserted"/>
      <point x="87.0" y="486.0"/>
      <point x="137" y="486" type="qcurve" smooth="yes"/>
      <point x="148" y="486" type="line" smooth="yes"/>
      <point x="197.5" y="486.0" name="inserted"/>
      <point x="247.0" y="434.5"/>
      <point x="247" y="383" type="qcurve" smooth="yes"/>
      <point x="247" y="349" type="line" smooth="yes"/>
      <point x="247.0" y="297.0" name="inserted"/>
      <point x="197.5" y="245.0"/>
      <point x="148" y="245" type="qcurve" smooth="yes"/>
    </contour>
    <contour>
      <point x="437" y="137" type="line" smooth="yes"/>
      <point x="437" y="167"/>
      <point x="421" y="183"/>
      <point x="397" y="183" type="qcurve" smooth="yes"/>
      <point x="386" y="183" type="line" smooth="yes"/>
      <point x="361" y="183"/>
      <point x="345" y="166"/>
      <point x="345" y="137" type="qcurve" smooth="yes"/>
      <point x="345" y="104" type="line" smooth="yes"/>
      <point x="345" y="75"/>
      <point x="361" y="57"/>
      <point x="386" y="57" type="qcurve" smooth="yes"/>
      <point x="397" y="57" type="line" smooth="yes"/>
      <point x="421" y="57"/>
      <point x="437" y="74"/>
      <point x="437" y="104" type="qcurve" smooth="yes"/>
    </contour>
    <contour>
      <point x="188" y="382" type="line" smooth="yes"/>
      <point x="188" y="411"/>
      <point x="172" y="429"/>
      <point x="148" y="429" type="qcurve" smooth="yes"/>
      <point x="137" y="429" type="line" smooth="yes"/>
      <point x="112" y="429"/>
      <point x="96" y="411"/>
      <point x="96" y="382" type="qcurve" smooth="yes"/>
      <point x="96" y="349" type="line" smooth="yes"/>
      <point x="96" y="320"/>
      <point x="112" y="303"/>
      <point x="137" y="303" type="qcurve" smooth="yes"/>
      <point x="148" y="303" type="line" smooth="yes"/>
      <point x="172" y="303"/>
      <point x="188" y="320"/>
      <point x="188" y="349" type="qcurve" smooth="yes"/>
    </contour>
  </outline>
</glyph>
<glyph name="ampersand" format="1">
  <advance width="347"/>
  <unicode hex="0026"/>
  <outline>
    <contour>
      <point x="253" y="2" type="line"/>
      <point x="241" y="18" type="line"/>
      <point x="221" y="41" type="line"/>
      <point x="228" y="64" type="line"/>
      <point x="228" y="123" type="line"/>
      <point x="328" y="2" type="line"/>
    </contour>
    <contour>
      <point x="71" y="-1" type="line" smooth="yes"/>
      <point x="47" y="-1"/>
      <point x="8" y="39"/>
      <point x="8" y="71" type="qcurve" smooth="yes"/>
      <point x="8" y="174" type="line" smooth="yes"/>
      <point x="8.0" y="203.5" name="inserted"/>
      <point x="26.0" y="245.5"/>
      <point x="44" y="258" type="qcurve"/>
      <point x="42" y="265"/>
      <point x="41" y="275"/>
      <point x="41" y="278" type="qcurve" smooth="yes"/>
      <point x="40" y="316" type="line" smooth="yes"/>
      <point x="39" y="349"/>
      <point x="78" y="387"/>
      <point x="110" y="389" type="qcurve" smooth="yes"/>
      <point x="150" y="391" type="line" smooth="yes"/>
      <point x="176" y="392"/>
      <point x="211" y="350"/>
      <point x="212" y="321" type="qcurve" smooth="yes"/>
      <point x="213" y="265" type="line" smooth="yes"/>
      <point x="213" y="253"/>
      <point x="202" y="233"/>
      <point x="193.5" y="225.5" type="qcurve" smooth="yes" name="inserted"/>
      <point x="185" y="218"/>
      <point x="164" y="209"/>
      <point x="155" y="209" type="qcurve"/>
      <point x="162" y="201"/>
      <point x="174" y="186"/>
      <point x="180" y="178" type="qcurve" smooth="yes"/>
      <point x="203" y="149"/>
      <point x="245" y="102"/>
      <point x="254" y="94" type="qcurve"/>
      <point x="254" y="63" type="line" smooth="yes"/>
      <point x="254.0" y="62.0" name="inserted"/>
      <point x="253.5" y="61.0"/>
      <point x="253" y="61" type="qcurve"/>
      <point x="253" y="60" type="line"/>
      <point x="253" y="2" type="line"/>
      <point x="201" y="63" type="line"/>
      <point x="156" y="116" type="line" smooth="yes"/>
      <point x="135" y="141"/>
      <point x="94" y="190"/>
      <point x="80" y="206" type="qcurve"/>
      <point x="75" y="204"/>
      <point x="65" y="188"/>
      <point x="65" y="169" type="qcurve" smooth="yes"/>
      <point x="65" y="71" type="line" smooth="yes"/>
      <point x="65.0" y="68.0" name="inserted"/>
      <point x="69.0" y="64.0"/>
      <point x="73" y="63" type="qcurve"/>
      <point x="201" y="63" type="line"/>
      <point x="207" y="63" type="line" smooth="yes"/>
      <point x="210.5" y="63.0" name="inserted"/>
      <point x="214.0" y="67.5"/>
      <point x="214" y="72" type="qcurve" smooth="yes"/>
      <point x="214" y="169" type="line"/>
      <point x="271" y="169" type="line"/>
      <point x="271" y="71" type="line" smooth="yes"/>
      <point x="271" y="61"/>
      <point x="264" y="36"/>
      <point x="256.5" y="25.0" type="qcurve" smooth="yes" name="inserted"/>
      <point x="249" y="14"/>
      <point x="225" y="-1"/>
      <point x="208" y="-1" type="qcurve" smooth="yes"/>
    </contour>
    <contour>
      <point x="155" y="316" type="line"/>
      <point x="154" y="324"/>
      <point x="151" y="327"/>
      <point x="148" y="327" type="qcurve" smooth="yes"/>
      <point x="105" y="326" type="line" smooth="yes"/>
      <point x="102" y="326"/>
      <point x="97" y="321"/>
      <point x="97" y="313" type="qcurve" smooth="yes"/>
      <point x="97" y="277" type="line" smooth="yes"/>
      <point x="97" y="270"/>
      <point x="102" y="267"/>
      <point x="108" y="267" type="qcurve"/>
      <point x="116" y="268"/>
      <point x="137" y="273"/>
      <point x="148" y="273" type="qcurve" smooth="yes"/>
      <point x="153" y="273"/>
      <point x="157" y="274"/>
      <point x="157" y="279" type="qcurve"/>
    </contour>
  </outline>
</glyph>
<glyph name="quotesingle" format="1">
  <advance width="139"/>
  <unicode hex="0027"/>
  <outline>
    <contour>
      <point x="91" y="353" type="qcurve"/>
      <point x="90" y="347"/>
      <point x="85" y="331"/>
      <point x="78" y="331" type="qcurve" smooth="yes"/>
      <point x="60" y="331" type="line" smooth="yes"/>
      <point x="54" y="331"/>
      <point x="47" y="345"/>
      <point x="47" y="353" type="qcurve" smooth="yes"/>
      <point x="46" y="459" type="line" smooth="yes"/>
      <point x="46" y="466"/>
      <point x="51" y="482"/>
      <point x="59" y="482" type="qcurve" smooth="yes"/>
      <point x="80" y="482" type="line" smooth="yes"/>
      <point x="87" y="482"/>
      <point x="93" y="462"/>
      <point x="93.0" y="445.0" type="qcurve" smooth="yes" name="inserted"/>
      <point x="93" y="428"/>
      <point x="91" y="381"/>
    </contour>
  </outline>
</glyph>
<glyph name="parenleft" format="1">
  <advance width="208"/>
  <unicode hex="0028"/>
  <outline>
    <contour>
      <point x="132" y="-77" type="line"/>
      <point x="92" y="-77"/>
      <point x="45" y="-14"/>
      <point x="45" y="37" type="qcurve"/>
      <point x="45" y="368" type="line"/>
      <point x="45" y="419"/>
      <point x="92" y="482"/>
      <point x="132" y="482" type="qcurve"/>
      <point x="134" y="482" type="line"/>
      <point x="143" y="482"/>
      <point x="155" y="468"/>
      <point x="155" y="457" type="qcurve" name="hr01"/>
      <point x="155" y="449" type="line"/>
      <point x="155" y="438"/>
      <point x="143" y="424"/>
      <point x="134" y="424" type="qcurve"/>
      <point x="132" y="424" type="line"/>
      <point x="113" y="424"/>
      <point x="93" y="398"/>
      <point x="93" y="367" type="qcurve" name="hr02"/>
      <point x="93" y="38" type="line"/>
      <point x="93" y="8"/>
      <point x="113" y="-19"/>
      <point x="132" y="-19" type="qcurve"/>
      <point x="134" y="-19" type="line"/>
      <point x="143" y="-19"/>
      <point x="155" y="-33"/>
      <point x="155" y="-44" type="qcurve"/>
      <point x="155" y="-52" type="line"/>
      <point x="155" y="-63"/>
      <point x="143" y="-77"/>
      <point x="134" y="-77" type="qcurve"/>
    </contour>
  </outline>
</glyph>
<glyph name="parenright" format="1">
  <advance width="208"/>
  <unicode hex="0029"/>
  <outline>
    <contour>
      <point x="66" y="-77" type="line"/>
      <point x="57" y="-77"/>
      <point x="45" y="-63"/>
      <point x="45" y="-52" type="qcurve"/>
      <point x="45" y="-44" type="line"/>
      <point x="45" y="-33"/>
      <point x="57" y="-19"/>
      <point x="66" y="-19" type="qcurve"/>
      <point x="68" y="-19" type="line"/>
      <point x="87" y="-19"/>
      <point x="107" y="8"/>
      <point x="107" y="38" type="qcurve"/>
      <point x="107" y="367" type="line"/>
      <point x="107" y="398"/>
      <point x="87" y="424"/>
      <point x="68" y="424" type="qcurve"/>
      <point x="66" y="424" type="line"/>
      <point x="57" y="424"/>
      <point x="45" y="438"/>
      <point x="45" y="449" type="qcurve" name="hr01"/>
      <point x="45" y="457" type="line"/>
      <point x="45" y="468"/>
      <point x="57" y="482"/>
      <point x="66" y="482" type="qcurve"/>
      <point x="68" y="482" type="line"/>
      <point x="108" y="482"/>
      <point x="155" y="419"/>
      <point x="155" y="368" type="qcurve" name="hr02"/>
      <point x="155" y="37" type="line"/>
      <point x="155" y="-14"/>
      <point x="108" y="-77"/>
      <point x="68" y="-77" type="qcurve"/>
    </contour>
  </outline>
</glyph>
<glyph name="asterisk" format="1">
  <advance width="306"/>
  <unicode hex="002A"/>
  <outline>
    <contour>
      <point x="232" y="381" type="qcurve" smooth="yes"/>
      <point x="223" y="378"/>
      <point x="205" y="372"/>
      <point x="195" y="370" type="qcurve"/>
      <point x="199.5" y="365.5" name="inserted"/>
      <point x="208.0" y="354.5"/>
      <point x="212" y="348" type="qcurve"/>
      <point x="220" y="339" type="line"/>
      <point x="227" y="328"/>
      <point x="219" y="312"/>
      <point x="215" y="308" type="qcurve"/>
      <point x="206" y="303" type="line"/>
      <point x="198" y="298"/>
      <point x="181" y="300"/>
      <point x="175" y="308" type="qcurve" smooth="yes"/>
      <point x="168" y="317"/>
      <point x="157" y="333"/>
      <point x="153" y="341" type="qcurve"/>
      <point x="148" y="333"/>
      <point x="137" y="316"/>
      <point x="130" y="307" type="qcurve"/>
      <point x="123" y="299"/>
      <point x="108" y="298"/>
      <point x="102" y="301" type="qcurve"/>
      <point x="100" y="303"/>
      <point x="94" y="306"/>
      <point x="92" y="308" type="qcurve"/>
      <point x="81" y="314"/>
      <point x="82" y="335"/>
      <point x="86" y="340" type="qcurve" smooth="yes"/>
      <point x="93" y="349"/>
      <point x="105" y="365"/>
      <point x="111" y="371" type="qcurve"/>
      <point x="72" y="382" type="line" smooth="yes"/>
      <point x="61" y="385"/>
      <point x="55" y="403"/>
      <point x="58" y="411" type="qcurve" smooth="yes"/>
      <point x="61" y="420" type="line"/>
      <point x="66" y="431"/>
      <point x="82" y="435"/>
      <point x="89" y="434" type="qcurve"/>
      <point x="100" y="430"/>
      <point x="120" y="424"/>
      <point x="128" y="420" type="qcurve"/>
      <point x="127" y="427"/>
      <point x="126" y="441"/>
      <point x="126" y="449" type="qcurve" smooth="yes"/>
      <point x="126" y="459" type="line" smooth="yes"/>
      <point x="126" y="467"/>
      <point x="138" y="482"/>
      <point x="149" y="482" type="qcurve" smooth="yes"/>
      <point x="158" y="482" type="line" smooth="yes"/>
      <point x="169" y="482"/>
      <point x="181" y="467"/>
      <point x="181" y="459" type="qcurve" smooth="yes"/>
      <point x="181" y="449" type="line" smooth="yes"/>
      <point x="181" y="441"/>
      <point x="180" y="427"/>
      <point x="180" y="420" type="qcurve"/>
      <point x="187.5" y="423.5" name="inserted"/>
      <point x="206.5" y="430.0"/>
      <point x="218" y="433" type="qcurve" smooth="yes"/>
      <point x="226.5" y="435.5" name="inserted"/>
      <point x="239.0" y="431.0"/>
      <point x="243" y="424" type="qcurve"/>
      <point x="245.0" y="421.0" name="inserted"/>
      <point x="247.5" y="415.0"/>
      <point x="248" y="412" type="qcurve"/>
      <point x="252" y="405"/>
      <point x="250" y="394"/>
      <point x="246.5" y="390.0" type="qcurve" smooth="yes" name="inserted"/>
      <point x="243" y="386"/>
      <point x="235" y="382"/>
    </contour>
  </outline>
</glyph>
<glyph name="plus" format="1">
  <advance width="384"/>
  <unicode hex="002B"/>
  <outline>
    <contour>
      <point x="220" y="213" type="line"/>
      <point x="220" y="125" type="line" smooth="yes"/>
      <point x="220" y="117"/>
      <point x="208" y="101"/>
      <point x="196" y="101" type="qcurve" smooth="yes"/>
      <point x="188" y="101" type="line" smooth="yes"/>
      <point x="176" y="101"/>
      <point x="164" y="117"/>
      <point x="164" y="125" type="qcurve" smooth="yes"/>
      <point x="164" y="213" type="line"/>
      <point x="76" y="213" type="line" smooth="yes"/>
      <point x="68" y="213"/>
      <point x="52" y="225"/>
      <point x="52" y="237" type="qcurve" smooth="yes"/>
      <point x="52" y="244" type="line" smooth="yes"/>
      <point x="52" y="256"/>
      <point x="68" y="268"/>
      <point x="76" y="268" type="qcurve" smooth="yes"/>
      <point x="164" y="268" type="line"/>
      <point x="164" y="356" type="line" smooth="yes"/>
      <point x="164" y="364"/>
      <point x="176" y="380"/>
      <point x="188" y="380" type="qcurve" smooth="yes"/>
      <point x="196" y="380" type="line" smooth="yes"/>
      <point x="208" y="380"/>
      <point x="220" y="364"/>
      <point x="220" y="356" type="qcurve" smooth="yes"/>
      <point x="220" y="268" type="line"/>
      <point x="307" y="268" type="line" smooth="yes"/>
      <point x="319.0" y="268.0" name="inserted"/>
      <point x="331.0" y="256.0"/>
      <point x="331" y="244" type="qcurve" smooth="yes"/>
      <point x="331" y="237" type="line" smooth="yes"/>
      <point x="331.0" y="225.0" name="inserted"/>
      <point x="319.0" y="213.0"/>
      <point x="307" y="213" type="qcurve" smooth="yes"/>
    </contour>
  </outline>
</glyph>
<glyph name="comma" format="1">
  <advance width="140"/>
  <unicode hex="002C"/>
  <outline>
    <contour>
      <point x="82" y="-58" type="qcurve" name="hr00"/>
      <point x="82" y="-66"/>
      <point x="75" y="-72" type="qcurve"/>
      <point x="68" y="-77"/>
      <point x="65" y="-77" type="qcurve"/>
      <point x="62" y="-76"/>
      <point x="56" y="-74"/>
      <point x="52" y="-72" type="qcurve"/>
      <point x="46" y="-68"/>
      <point x="46" y="-54" type="qcurve"/>
      <point x="43" y="79" type="line"/>
      <point x="43" y="86"/>
      <point x="49" y="102"/>
      <point x="56" y="102" type="qcurve"/>
      <point x="78" y="102" type="line"/>
      <point x="85" y="102"/>
      <point x="88" y="93" type="qcurve"/>
      <point x="91" y="79" type="line"/>
      <point x="94" y="45"/>
      <point x="90" y="10" type="qcurve"/>
      <point x="86" y="-22"/>
      <point x="83" y="-56"/>
    </contour>
  </outline>
</glyph>
<glyph name="hyphen" format="1">
  <advance width="234"/>
  <unicode hex="002D"/>
  <outline>
    <contour>
      <point x="53" y="209" type="line" smooth="yes"/>
      <point x="44" y="209"/>
      <point x="30" y="215"/>
      <point x="30" y="220" type="qcurve" smooth="yes"/>
      <point x="30" y="239" type="line" smooth="yes"/>
      <point x="30" y="244"/>
      <point x="44" y="250"/>
      <point x="53" y="250" type="qcurve" smooth="yes"/>
      <point x="181" y="250" type="line" smooth="yes"/>
      <point x="190" y="250"/>
      <point x="204" y="244"/>
      <point x="204" y="239" type="qcurve" smooth="yes"/>
      <point x="204" y="220" type="line" smooth="yes"/>
      <point x="204" y="215"/>
      <point x="190" y="209"/>
      <point x="181" y="209" type="qcurve" smooth="yes"/>
    </contour>
  </outline>
</glyph>
<glyph name="period" format="1">
  <advance width="140"/>
  <unicode hex="002E"/>
  <outline>
    <contour>
      <point x="49" y="0" type="line" name="hr00"/>
      <point x="42" y="0"/>
      <point x="36" y="14"/>
      <point x="36" y="21" type="qcurve"/>
      <point x="36" y="82" type="line"/>
      <point x="36" y="89"/>
      <point x="42" y="103"/>
      <point x="49" y="103" type="qcurve"/>
      <point x="71" y="103" type="line"/>
      <point x="78" y="103"/>
      <point x="84" y="89"/>
      <point x="84" y="82" type="qcurve"/>
      <point x="84" y="21" type="line"/>
      <point x="84" y="14"/>
      <point x="78" y="0"/>
      <point x="71" y="0" type="qcurve"/>
    </contour>
  </outline>
</glyph>
<glyph name="slash" format="1">
  <advance width="276"/>
  <unicode hex="002F"/>
  <outline>
    <contour>
      <point x="87" y="-11" type="line"/>
      <point x="86.5" y="-13.0" name="inserted"/>
      <point x="82.5" y="-19.0"/>
      <point x="79" y="-23" type="qcurve" smooth="yes"/>
      <point x="76.0" y="-26.5" name="inserted"/>
      <point x="67.5" y="-30.0"/>
      <point x="62" y="-30" type="qcurve" smooth="yes"/>
      <point x="54" y="-30" type="line" smooth="yes"/>
      <point x="47.5" y="-30.0" name="inserted"/>
      <point x="37.5" y="-25.0"/>
      <point x="34" y="-20" type="qcurve"/>
      <point x="31.0" y="-15.0" name="inserted"/>
      <point x="30.5" y="-2.5"/>
      <point x="33" y="5" type="qcurve" smooth="yes"/>
      <point x="175" y="462" type="line" smooth="yes"/>
      <point x="176.0" y="465.0" name="inserted"/>
      <point x="179.5" y="471.5"/>
      <point x="182" y="475" type="qcurve"/>
      <point x="185.0" y="478.5" name="inserted"/>
      <point x="193.5" y="482.0"/>
      <point x="199" y="482" type="qcurve" smooth="yes"/>
      <point x="208" y="482" type="line" smooth="yes"/>
      <point x="217" y="482"/>
      <point x="226" y="474"/>
      <point x="227.5" y="468.5" type="qcurve" smooth="yes" name="inserted"/>
      <point x="228.25" y="465.75" name="inserted"/>
      <point x="229.0" y="460.5"/>
      <point x="229" y="458" type="qcurve" smooth="yes"/>
      <point x="229.0" y="454.5" name="inserted"/>
      <point x="228.5" y="449.5"/>
      <point x="228" y="448" type="qcurve" smooth="yes"/>
    </contour>
  </outline>
</glyph>
<glyph name="zero" format="1">
  <advance width="381"/>
  <unicode hex="0030"/>
  <outline>
    <contour>
      <point x="158" y="0" type="line" name="hr00"/>
      <point x="110" y="0"/>
      <point x="52" y="62"/>
      <point x="52" y="113" type="qcurve"/>
      <point x="52" y="369" type="line"/>
      <point x="52" y="420"/>
      <point x="110" y="482"/>
      <point x="158" y="482" type="qcurve"/>
      <point x="223" y="482" type="line"/>
      <point x="271" y="482"/>
      <point x="328" y="420"/>
      <point x="328" y="369" type="qcurve"/>
      <point x="328" y="113" type="line"/>
      <point x="328" y="62"/>
      <point x="271" y="0"/>
      <point x="223" y="0" type="qcurve"/>
    </contour>
    <contour>
      <point x="272" y="368" type="line"/>
      <point x="272" y="425"/>
      <point x="223" y="425" type="qcurve"/>
      <point x="158" y="425" type="line"/>
      <point x="109" y="425"/>
      <point x="109" y="368" type="qcurve"/>
      <point x="109" y="114" type="line"/>
      <point x="109" y="57"/>
      <point x="158" y="57" type="qcurve"/>
      <point x="223" y="57" type="line"/>
      <point x="272" y="57"/>
      <point x="272" y="114" type="qcurve"/>
    </contour>
  </outline>
</glyph>
<glyph name="one" format="1">
  <advance width="234"/>
  <unicode hex="0031"/>
  <outline>
    <contour>
      <point x="137" y="0" type="line"/>
      <point x="125" y="0"/>
      <point x="116" y="17"/>
      <point x="116" y="25" type="qcurve"/>
      <point x="116" y="406" type="line"/>
      <point x="65" y="371" type="line"/>
      <point x="61" y="369"/>
      <point x="49" y="365"/>
      <point x="38" y="366"/>
      <point x="30" y="377"/>
      <point x="30" y="390" type="qcurve"/>
      <point x="30" y="395" type="line"/>
      <point x="30" y="415"/>
      <point x="44" y="424" type="qcurve"/>
      <point x="120" y="476" type="line"/>
      <point x="129" y="482"/>
      <point x="138" y="482" type="qcurve"/>
      <point x="145" y="482" type="line"/>
      <point x="156" y="482"/>
      <point x="166" y="465"/>
      <point x="166" y="457" type="qcurve" name="hr01"/>
      <point x="166" y="25" type="line"/>
      <point x="166" y="17"/>
      <point x="156" y="0"/>
      <point x="145" y="0" type="qcurve"/>
    </contour>
  </outline>
</glyph>
<glyph name="two" format="1">
  <advance width="355"/>
  <unicode hex="0032"/>
  <outline>
    <contour>
      <point x="72" y="0" type="line" name="hr00"/>
      <point x="63" y="0"/>
      <point x="48" y="12"/>
      <point x="48" y="25" type="qcurve"/>
      <point x="48" y="84" type="line"/>
      <point x="48" y="116"/>
      <point x="72" y="163"/>
      <point x="95" y="182" type="qcurve"/>
      <point x="225" y="285" type="line"/>
      <point x="252" y="306"/>
      <point x="252" y="342" type="qcurve"/>
      <point x="252" y="371" type="line"/>
      <point x="252" y="425"/>
      <point x="203" y="425" type="qcurve"/>
      <point x="149" y="425" type="line"/>
      <point x="101" y="425"/>
      <point x="101" y="371" type="qcurve"/>
      <point x="101" y="338" type="line"/>
      <point x="101" y="329"/>
      <point x="89" y="312"/>
      <point x="77" y="312" type="qcurve"/>
      <point x="68" y="312" type="line"/>
      <point x="56" y="312"/>
      <point x="45" y="329"/>
      <point x="45" y="338" type="qcurve"/>
      <point x="45" y="371" type="line"/>
      <point x="45" y="423"/>
      <point x="103" y="482"/>
      <point x="149" y="482" type="qcurve"/>
      <point x="203" y="482" type="line"/>
      <point x="251" y="482"/>
      <point x="307" y="423"/>
      <point x="307" y="371" type="qcurve"/>
      <point x="307" y="341" type="line"/>
      <point x="307" y="279"/>
      <point x="259" y="240" type="qcurve"/>
      <point x="129" y="136" type="line"/>
      <point x="103" y="116"/>
      <point x="103" y="86" type="qcurve"/>
      <point x="103" y="57" type="line"/>
      <point x="287" y="57" type="line"/>
      <point x="310" y="57"/>
      <point x="310" y="33" type="qcurve"/>
      <point x="310" y="25" type="line"/>
      <point x="310" y="0"/>
      <point x="287" y="0" type="qcurve"/>
    </contour>
  </outline>
</glyph>
<glyph name="three" format="1">
  <advance width="370"/>
  <unicode hex="0033"/>
  <outline>
    <contour>
      <point x="157" y="0" type="line" name="hr00"/>
      <point x="109" y="0"/>
      <point x="52" y="59"/>
      <point x="52" y="111" type="qcurve"/>
      <point x="52" y="145" type="line"/>
      <point x="52" y="154"/>
      <point x="63" y="171"/>
      <point x="75" y="171" type="qcurve"/>
      <point x="85" y="171" type="line"/>
      <point x="97" y="171"/>
      <point x="108" y="154"/>
      <point x="108" y="145" type="qcurve"/>
      <point x="108" y="111" type="line"/>
      <point x="108" y="57"/>
      <point x="157" y="57" type="qcurve"/>
      <point x="213" y="57" type="line"/>
      <point x="261" y="57"/>
      <point x="261" y="111" type="qcurve"/>
      <point x="261" y="160" type="line"/>
      <point x="261" y="214"/>
      <point x="213" y="214" type="qcurve"/>
      <point x="172" y="214" type="line"/>
      <point x="163" y="214"/>
      <point x="148" y="226"/>
      <point x="148" y="238" type="qcurve"/>
      <point x="148" y="247" type="line"/>
      <point x="148" y="259"/>
      <point x="163" y="271"/>
      <point x="172" y="271" type="qcurve"/>
      <point x="213" y="271" type="line"/>
      <point x="261" y="271"/>
      <point x="261" y="326" type="qcurve"/>
      <point x="261" y="371" type="line"/>
      <point x="261" y="425"/>
      <point x="213" y="425" type="qcurve"/>
      <point x="157" y="425" type="line"/>
      <point x="108" y="425"/>
      <point x="108" y="371" type="qcurve"/>
      <point x="108" y="344" type="line"/>
      <point x="108" y="335"/>
      <point x="97" y="319"/>
      <point x="85" y="319" type="qcurve"/>
      <point x="75" y="319" type="line"/>
      <point x="63" y="319"/>
      <point x="52" y="335"/>
      <point x="52" y="344" type="qcurve"/>
      <point x="52" y="371" type="line"/>
      <point x="52" y="423"/>
      <point x="109" y="482"/>
      <point x="157" y="482" type="qcurve"/>
      <point x="213" y="482" type="line"/>
      <point x="259" y="482"/>
      <point x="317" y="423"/>
      <point x="317" y="371" type="qcurve"/>
      <point x="317" y="325" type="line"/>
      <point x="317" y="271"/>
      <point x="284" y="243" type="qcurve"/>
      <point x="317" y="216"/>
      <point x="317" y="161" type="qcurve"/>
      <point x="317" y="111" type="line"/>
      <point x="317" y="59"/>
      <point x="259" y="0"/>
      <point x="213" y="0" type="qcurve"/>
    </contour>
  </outline>
</glyph>
<glyph name="four" format="1">
  <advance width="386"/>
  <unicode hex="0034"/>
  <outline>
    <contour>
      <point x="299" y="93" type="line" name="hr00"/>
      <point x="299" y="25" type="line"/>
      <point x="299" y="16"/>
      <point x="288" y="0"/>
      <point x="276" y="0" type="qcurve"/>
      <point x="267" y="0" type="line"/>
      <point x="254" y="0"/>
      <point x="243" y="16"/>
      <point x="243" y="25" type="qcurve"/>
      <point x="243" y="93" type="line"/>
      <point x="62" y="93" type="line"/>
      <point x="52" y="93"/>
      <point x="37" y="105"/>
      <point x="37" y="118" type="qcurve"/>
      <point x="37" y="126" type="line"/>
      <point x="37" y="132"/>
      <point x="42" y="143"/>
      <point x="44" y="147" type="qcurve"/>
      <point x="228" y="465" type="line"/>
      <point x="237" y="482"/>
      <point x="257" y="482" type="qcurve"/>
      <point x="276" y="482" type="line"/>
      <point x="288" y="482"/>
      <point x="299" y="466"/>
      <point x="299" y="457" type="qcurve"/>
      <point x="299" y="150" type="line"/>
      <point x="331" y="150" type="line"/>
      <point x="341" y="150"/>
      <point x="356" y="138"/>
      <point x="356" y="126" type="qcurve"/>
      <point x="356" y="118" type="line"/>
      <point x="356" y="105"/>
      <point x="341" y="93"/>
      <point x="331" y="93" type="qcurve"/>
    </contour>
    <contour>
      <point x="243" y="379" type="line"/>
      <point x="111" y="150" type="line"/>
      <point x="243" y="150" type="line"/>
    </contour>
  </outline>
</glyph>
<glyph name="five" format="1">
  <advance width="357"/>
  <unicode hex="0035"/>
  <outline>
    <contour>
      <point x="157" y="0" type="line" name="hr00"/>
      <point x="109" y="0"/>
      <point x="52" y="62"/>
      <point x="52" y="113" type="qcurve"/>
      <point x="52" y="141" type="line"/>
      <point x="52" y="150"/>
      <point x="63" y="166"/>
      <point x="75" y="166" type="qcurve"/>
      <point x="85" y="166" type="line"/>
      <point x="97" y="166"/>
      <point x="108" y="150"/>
      <point x="108" y="141" type="qcurve"/>
      <point x="108" y="114" type="line"/>
      <point x="108" y="57"/>
      <point x="157" y="57" type="qcurve"/>
      <point x="207" y="57" type="line"/>
      <point x="256" y="57"/>
      <point x="256" y="114" type="qcurve"/>
      <point x="256" y="202" type="line"/>
      <point x="256" y="231"/>
      <point x="233" y="256"/>
      <point x="207" y="256" type="qcurve"/>
      <point x="145" y="256" type="line"/>
      <point x="131" y="256"/>
      <point x="119" y="249"/>
      <point x="117" y="245" type="qcurve"/>
      <point x="115" y="242"/>
      <point x="110" y="234"/>
      <point x="108" y="230" type="qcurve"/>
      <point x="105" y="226"/>
      <point x="95" y="219"/>
      <point x="87" y="219" type="qcurve"/>
      <point x="75" y="219" type="line"/>
      <point x="63" y="219"/>
      <point x="52" y="236"/>
      <point x="52" y="245" type="qcurve"/>
      <point x="52" y="457" type="line"/>
      <point x="52" y="465"/>
      <point x="63" y="482"/>
      <point x="75" y="482" type="qcurve"/>
      <point x="282" y="482" type="line"/>
      <point x="305" y="482"/>
      <point x="305" y="457" type="qcurve"/>
      <point x="305" y="449" type="line"/>
      <point x="305" y="425"/>
      <point x="282" y="425" type="qcurve"/>
      <point x="108" y="425" type="line"/>
      <point x="108" y="306" type="line"/>
      <point x="122" y="313"/>
      <point x="145" y="313" type="qcurve"/>
      <point x="207" y="313" type="line"/>
      <point x="255" y="313"/>
      <point x="312" y="256"/>
      <point x="312" y="202" type="qcurve"/>
      <point x="312" y="113" type="line"/>
      <point x="312" y="62"/>
      <point x="255" y="0"/>
      <point x="207" y="0" type="qcurve"/>
    </contour>
  </outline>
</glyph>
<glyph name="six" format="1">
  <advance width="349"/>
  <unicode hex="0036"/>
  <outline>
    <contour>
      <point x="143" y="0" type="line" smooth="yes"/>
      <point x="95" y="0"/>
      <point x="38" y="62"/>
      <point x="38" y="113" type="qcurve" smooth="yes"/>
      <point x="38" y="369" type="line" smooth="yes"/>
      <point x="38" y="420"/>
      <point x="95" y="482"/>
      <point x="143" y="482" type="qcurve" smooth="yes"/>
      <point x="264" y="482" type="line" smooth="yes"/>
      <point x="273" y="482"/>
      <point x="288" y="470"/>
      <point x="288" y="457" type="qcurve" smooth="yes"/>
      <point x="288" y="449" type="line" smooth="yes"/>
      <point x="288" y="437"/>
      <point x="273" y="425"/>
      <point x="264" y="425" type="qcurve" smooth="yes"/>
      <point x="143" y="425" type="line" smooth="yes"/>
      <point x="118.5" y="425.0" name="inserted"/>
      <point x="94.0" y="396.5"/>
      <point x="94" y="368" type="qcurve" smooth="yes"/>
      <point x="94" y="299" type="line"/>
      <point x="202" y="299" type="line" smooth="yes"/>
      <point x="250" y="299"/>
      <point x="308" y="237"/>
      <point x="308" y="186" type="qcurve" smooth="yes"/>
      <point x="308" y="113" type="line" smooth="yes"/>
      <point x="308" y="62"/>
      <point x="250" y="0"/>
      <point x="202" y="0" type="qcurve" smooth="yes"/>
    </contour>
    <contour>
      <point x="251" y="185" type="line" smooth="yes"/>
      <point x="251.0" y="213.0" name="inserted"/>
      <point x="226.5" y="241.0"/>
      <point x="202" y="241" type="qcurve" smooth="yes"/>
      <point x="94" y="241" type="line"/>
      <point x="94" y="114" type="line" smooth="yes"/>
      <point x="94.0" y="85.5" name="inserted"/>
      <point x="118.5" y="57.0"/>
      <point x="143" y="57" type="qcurve" smooth="yes"/>
      <point x="202" y="57" type="line" smooth="yes"/>
      <point x="226.5" y="57.0" name="inserted"/>
      <point x="251.0" y="85.5"/>
      <point x="251" y="114" type="qcurve" smooth="yes"/>
    </contour>
  </outline>
</glyph>
<glyph name="seven" format="1">
  <advance width="275"/>
  <unicode hex="0037"/>
  <outline>
    <contour>
      <point x="116" y="20" type="line" name="hr00"/>
      <point x="112" y="8"/>
      <point x="97" y="0"/>
      <point x="90" y="0" type="qcurve"/>
      <point x="83" y="0" type="line"/>
      <point x="73" y="0"/>
      <point x="63" y="8"/>
      <point x="60" y="20"/>
      <point x="61" y="32"/>
      <point x="62" y="35" type="qcurve"/>
      <point x="195" y="425" type="line"/>
      <point x="35" y="425" type="line"/>
      <point x="26" y="425"/>
      <point x="11" y="437"/>
      <point x="11" y="449" type="qcurve"/>
      <point x="11" y="457" type="line"/>
      <point x="11" y="470"/>
      <point x="26" y="482"/>
      <point x="35" y="482" type="qcurve"/>
      <point x="236" y="482" type="line"/>
      <point x="245" y="482"/>
      <point x="260" y="470"/>
      <point x="260" y="457" type="qcurve"/>
      <point x="260" y="451" type="line"/>
      <point x="260" y="441"/>
      <point x="257" y="434" type="qcurve"/>
    </contour>
  </outline>
</glyph>
<glyph name="eight" format="1">
  <advance width="385"/>
  <unicode hex="0038"/>
  <outline>
    <contour>
      <point x="158" y="0" type="line" name="hr00"/>
      <point x="110" y="0"/>
      <point x="52" y="57"/>
      <point x="52" y="111" type="qcurve"/>
      <point x="52" y="161" type="line"/>
      <point x="52" y="214"/>
      <point x="84" y="243" type="qcurve"/>
      <point x="52" y="272"/>
      <point x="52" y="325" type="qcurve"/>
      <point x="52" y="371" type="line"/>
      <point x="52" y="425"/>
      <point x="110" y="482"/>
      <point x="158" y="482" type="qcurve"/>
      <point x="227" y="482" type="line"/>
      <point x="275" y="482"/>
      <point x="332" y="423"/>
      <point x="332" y="371" type="qcurve"/>
      <point x="332" y="325" type="line"/>
      <point x="332" y="271"/>
      <point x="301" y="243" type="qcurve"/>
      <point x="332" y="213"/>
      <point x="332" y="161" type="qcurve"/>
      <point x="332" y="111" type="line"/>
      <point x="332" y="59"/>
      <point x="275" y="0"/>
      <point x="227" y="0" type="qcurve"/>
    </contour>
    <contour>
      <point x="276" y="371" type="line"/>
      <point x="276" y="425"/>
      <point x="227" y="425" type="qcurve"/>
      <point x="158" y="425" type="line"/>
      <point x="109" y="425"/>
      <point x="109" y="371" type="qcurve"/>
      <point x="109" y="326" type="line"/>
      <point x="109" y="271"/>
      <point x="158" y="271" type="qcurve"/>
      <point x="227" y="271" type="line"/>
      <point x="276" y="271"/>
      <point x="276" y="326" type="qcurve"/>
    </contour>
    <contour>
      <point x="276" y="160" type="line"/>
      <point x="276" y="214"/>
      <point x="227" y="214" type="qcurve"/>
      <point x="158" y="214" type="line"/>
      <point x="109" y="214"/>
      <point x="109" y="160" type="qcurve"/>
      <point x="109" y="111" type="line"/>
      <point x="109" y="57"/>
      <point x="158" y="57" type="qcurve"/>
      <point x="227" y="57" type="line"/>
      <point x="276" y="57"/>
      <point x="276" y="111" type="qcurve"/>
    </contour>
  </outline>
</glyph>
<glyph name="nine" format="1">
  <advance width="341"/>
  <unicode hex="0039"/>
  <outline>
    <contour>
      <point x="79" y="0" type="line" smooth="yes"/>
      <point x="70" y="0"/>
      <point x="55" y="12"/>
      <point x="55" y="25" type="qcurve" smooth="yes"/>
      <point x="55" y="33" type="line" smooth="yes"/>
      <point x="55" y="45"/>
      <point x="70" y="57"/>
      <point x="79" y="57" type="qcurve" smooth="yes"/>
      <point x="199" y="57" type="line" smooth="yes"/>
      <point x="223.5" y="57.0" name="inserted"/>
      <point x="248.0" y="85.5"/>
      <point x="248" y="114" type="qcurve" smooth="yes"/>
      <point x="248" y="183" type="line"/>
      <point x="140" y="183" type="line" smooth="yes"/>
      <point x="92" y="183"/>
      <point x="35" y="245"/>
      <point x="35" y="296" type="qcurve" smooth="yes"/>
      <point x="35" y="369" type="line" smooth="yes"/>
      <point x="35" y="420"/>
      <point x="92" y="482"/>
      <point x="140" y="482" type="qcurve" smooth="yes"/>
      <point x="199" y="482" type="line" smooth="yes"/>
      <point x="247" y="482"/>
      <point x="305" y="420"/>
      <point x="305" y="369" type="qcurve" smooth="yes"/>
      <point x="305" y="113" type="line" smooth="yes"/>
      <point x="305" y="62"/>
      <point x="247" y="0"/>
      <point x="199" y="0" type="qcurve" smooth="yes"/>
    </contour>
    <contour>
      <point x="140" y="425" type="line" smooth="yes"/>
      <point x="115.5" y="425.0" name="inserted"/>
      <point x="91.0" y="396.5"/>
      <point x="91" y="368" type="qcurve" smooth="yes"/>
      <point x="91" y="297" type="line" smooth="yes"/>
      <point x="91.0" y="269.0" name="inserted"/>
      <point x="115.5" y="241.0"/>
      <point x="140" y="241" type="qcurve" smooth="yes"/>
      <point x="248" y="241" type="line"/>
      <point x="248" y="368" type="line" smooth="yes"/>
      <point x="248.0" y="396.5" name="inserted"/>
      <point x="223.5" y="425.0"/>
      <point x="199" y="425" type="qcurve" smooth="yes"/>
    </contour>
  </outline>
</glyph>
<glyph name="colon" format="1">
  <advance width="123"/>
  <unicode hex="003A"/>
  <outline>
    <contour>
      <point x="49" y="252" type="line" smooth="yes"/>
      <point x="43" y="252"/>
      <point x="36" y="269"/>
      <point x="36" y="277" type="qcurve" smooth="yes"/>
      <point x="36" y="358" type="line" smooth="yes"/>
      <point x="36" y="366"/>
      <point x="43" y="382"/>
      <point x="49" y="382" type="qcurve" smooth="yes"/>
      <point x="71" y="382" type="line" smooth="yes"/>
      <point x="77" y="382"/>
      <point x="84" y="366"/>
      <point x="84" y="358" type="qcurve" smooth="yes"/>
      <point x="84" y="277" type="line" smooth="yes"/>
      <point x="84" y="269"/>
      <point x="77" y="252"/>
      <point x="71" y="252" type="qcurve" smooth="yes"/>
    </contour>
    <contour>
      <point x="49" y="0" type="line" smooth="yes"/>
      <point x="42" y="0"/>
      <point x="36" y="17"/>
      <point x="36" y="25" type="qcurve" smooth="yes"/>
      <point x="36" y="105" type="line" smooth="yes"/>
      <point x="36" y="113"/>
      <point x="42" y="130"/>
      <point x="49" y="130" type="qcurve" smooth="yes"/>
      <point x="71" y="130" type="line" smooth="yes"/>
      <point x="78" y="130"/>
      <point x="84" y="113"/>
      <point x="84" y="105" type="qcurve" smooth="yes"/>
      <point x="84" y="25" type="line" smooth="yes"/>
      <point x="84" y="17"/>
      <point x="78" y="0"/>
      <point x="71" y="0" type="qcurve" smooth="yes"/>
    </contour>
  </outline>
</glyph>
<glyph name="semicolon" format="1">
  <advance width="122"/>
  <unicode hex="003B"/>
  <outline>
    <contour>
      <point x="49" y="250" type="line" smooth="yes"/>
      <point x="43" y="250"/>
      <point x="36" y="267"/>
      <point x="36" y="275" type="qcurve" smooth="yes"/>
      <point x="36" y="357" type="line" smooth="yes"/>
      <point x="36" y="366"/>
      <point x="43" y="382"/>
      <point x="49" y="382" type="qcurve" smooth="yes"/>
      <point x="71" y="382" type="line" smooth="yes"/>
      <point x="77" y="382"/>
      <point x="84" y="366"/>
      <point x="84" y="357" type="qcurve" smooth="yes"/>
      <point x="84" y="275" type="line" smooth="yes"/>
      <point x="84" y="267"/>
      <point x="77" y="250"/>
      <point x="71" y="250" type="qcurve" smooth="yes"/>
    </contour>
    <contour>
      <point x="80" y="-55" type="qcurve"/>
      <point x="79" y="-63"/>
      <point x="69" y="-78"/>
      <point x="59" y="-78" type="qcurve" smooth="yes"/>
      <point x="55" y="-78"/>
      <point x="38" y="-68"/>
      <point x="38" y="-52" type="qcurve" smooth="yes"/>
      <point x="36" y="101" type="line" smooth="yes"/>
      <point x="36" y="109"/>
      <point x="42" y="126"/>
      <point x="49" y="126" type="qcurve" smooth="yes"/>
      <point x="71" y="126" type="line" smooth="yes"/>
      <point x="78" y="126"/>
      <point x="84" y="109"/>
      <point x="84" y="101" type="qcurve" smooth="yes"/>
      <point x="84" y="59"/>
      <point x="82" y="-15"/>
    </contour>
  </outline>
</glyph>
<glyph name="less" format="1">
  <advance width="375"/>
  <unicode hex="003C"/>
  <outline>
    <contour>
      <point x="66" y="210" type="line"/>
      <point x="59" y="213"/>
      <point x="48" y="225"/>
      <point x="48" y="234" type="qcurve"/>
      <point x="48" y="247" type="line"/>
      <point x="48" y="257"/>
      <point x="59" y="268"/>
      <point x="66" y="271" type="qcurve"/>
      <point x="295" y="360" type="line"/>
      <point x="306" y="365"/>
      <point x="327" y="353"/>
      <point x="327" y="339" type="qcurve"/>
      <point x="327" y="330" type="line"/>
      <point x="327" y="312"/>
      <point x="311" y="306" type="qcurve"/>
      <point x="136" y="241" type="line"/>
      <point x="311" y="175" type="line"/>
      <point x="316" y="173"/>
      <point x="327" y="162"/>
      <point x="327" y="152" type="qcurve"/>
      <point x="327" y="142" type="line"/>
      <point x="327" y="128"/>
      <point x="305" y="117"/>
      <point x="294" y="123" type="qcurve"/>
    </contour>
  </outline>
</glyph>
<glyph name="equal" format="1">
  <advance width="360"/>
  <unicode hex="003D"/>
  <outline>
    <contour>
      <point x="65" y="265" type="line" smooth="yes"/>
      <point x="57" y="265"/>
      <point x="41" y="276"/>
      <point x="41" y="287" type="qcurve" smooth="yes"/>
      <point x="41" y="294" type="line" smooth="yes"/>
      <point x="41" y="306"/>
      <point x="57" y="316"/>
      <point x="65" y="316" type="qcurve" smooth="yes"/>
      <point x="296" y="316" type="line" smooth="yes"/>
      <point x="304" y="316"/>
      <point x="320" y="306"/>
      <point x="320" y="294" type="qcurve" smooth="yes"/>
      <point x="320" y="287" type="line" smooth="yes"/>
      <point x="320" y="276"/>
      <point x="304" y="265"/>
      <point x="296" y="265" type="qcurve" smooth="yes"/>
    </contour>
    <contour>
      <point x="65" y="165" type="line" smooth="yes"/>
      <point x="57" y="165"/>
      <point x="41" y="175"/>
      <point x="41" y="187" type="qcurve" smooth="yes"/>
      <point x="41" y="194" type="line" smooth="yes"/>
      <point x="41" y="205"/>
      <point x="57" y="216"/>
      <point x="65" y="216" type="qcurve" smooth="yes"/>
      <point x="296" y="216" type="line" smooth="yes"/>
      <point x="304" y="216"/>
      <point x="320" y="205"/>
      <point x="320" y="194" type="qcurve" smooth="yes"/>
      <point x="320" y="187" type="line" smooth="yes"/>
      <point x="320" y="175"/>
      <point x="304" y="165"/>
      <point x="296" y="165" type="qcurve" smooth="yes"/>
    </contour>
  </outline>
</glyph>
<glyph name="greater" format="1">
  <advance width="391"/>
  <unicode hex="003E"/>
  <outline>
    <contour>
      <point x="89" y="122" type="line"/>
      <point x="78" y="117"/>
      <point x="56" y="128"/>
      <point x="56" y="142" type="qcurve"/>
      <point x="56" y="152" type="line"/>
      <point x="56" y="162"/>
      <point x="67" y="173"/>
      <point x="72" y="175" type="qcurve"/>
      <point x="247" y="241" type="line"/>
      <point x="72" y="306" type="line"/>
      <point x="56" y="312"/>
      <point x="56" y="330" type="qcurve"/>
      <point x="56" y="339" type="line"/>
      <point x="56" y="353"/>
      <point x="77" y="365"/>
      <point x="88" y="360" type="qcurve"/>
      <point x="317" y="271" type="line"/>
      <point x="324" y="268"/>
      <point x="335" y="257"/>
      <point x="335" y="247" type="qcurve"/>
      <point x="335" y="234" type="line"/>
      <point x="335" y="225"/>
      <point x="324" y="213"/>
      <point x="317" y="210" type="qcurve"/>
    </contour>
  </outline>
</glyph>
<glyph name="question" format="1">
  <advance width="356"/>
  <unicode hex="003F"/>
  <outline>
    <contour>
      <point x="234" y="243" type="line" name="hr00"/>
      <point x="225" y="235"/>
      <point x="217" y="223"/>
      <point x="215" y="220" type="qcurve"/>
      <point x="214" y="218"/>
      <point x="212" y="204"/>
      <point x="212" y="192" type="qcurve"/>
      <point x="212" y="165" type="line"/>
      <point x="212" y="157"/>
      <point x="201" y="140"/>
      <point x="189" y="140" type="qcurve"/>
      <point x="181" y="140" type="line"/>
      <point x="168" y="140"/>
      <point x="157" y="157"/>
      <point x="157" y="165" type="qcurve"/>
      <point x="157" y="189" type="line"/>
      <point x="157" y="206"/>
      <point x="162" y="232"/>
      <point x="166" y="243" type="qcurve"/>
      <point x="171" y="254"/>
      <point x="190" y="276"/>
      <point x="201" y="287" type="qcurve"/>
      <point x="221" y="306" type="line"/>
      <point x="233" y="317"/>
      <point x="241" y="337"/>
      <point x="241" y="347" type="qcurve"/>
      <point x="241" y="370" type="line"/>
      <point x="241" y="424"/>
      <point x="193" y="424" type="qcurve"/>
      <point x="163" y="424" type="line"/>
      <point x="115" y="424"/>
      <point x="115" y="370" type="qcurve"/>
      <point x="115" y="338" type="line"/>
      <point x="115" y="329"/>
      <point x="104" y="312"/>
      <point x="92" y="312" type="qcurve"/>
      <point x="83" y="312" type="line"/>
      <point x="71" y="312"/>
      <point x="60" y="329"/>
      <point x="60" y="338" type="qcurve"/>
      <point x="60" y="371" type="line"/>
      <point x="60" y="422"/>
      <point x="117" y="481"/>
      <point x="163" y="481" type="qcurve"/>
      <point x="193" y="481" type="line"/>
      <point x="239" y="481"/>
      <point x="296" y="422"/>
      <point x="296" y="371" type="qcurve"/>
      <point x="296" y="346" type="line"/>
      <point x="296" y="300"/>
      <point x="259" y="266" type="qcurve"/>
    </contour>
    <contour>
      <point x="178" y="0" type="line"/>
      <point x="166" y="0"/>
      <point x="155" y="17"/>
      <point x="155" y="25" type="qcurve"/>
      <point x="155" y="107" type="line"/>
      <point x="155" y="116"/>
      <point x="166" y="133"/>
      <point x="178" y="133" type="qcurve"/>
      <point x="191" y="133" type="line"/>
      <point x="203" y="133"/>
      <point x="214" y="116"/>
      <point x="214" y="107" type="qcurve"/>
      <point x="214" y="25" type="line"/>
      <point x="214" y="17"/>
      <point x="203" y="0"/>
      <point x="191" y="0" type="qcurve"/>
    </contour>
  </outline>
</glyph>
<glyph name="at" format="1">
  <advance width="566"/>
  <unicode hex="0040"/>
  <outline>
    <contour>
      <point x="499" y="167" type="line" name="hr00"/>
      <point x="499" y="115"/>
      <point x="439" y="54"/>
      <point x="388" y="54" type="qcurve"/>
      <point x="372" y="54" type="line"/>
      <point x="350" y="54"/>
      <point x="340" y="72" type="qcurve"/>
      <point x="315" y="56"/>
      <point x="277" y="56" type="qcurve"/>
      <point x="226" y="56"/>
      <point x="166" y="115"/>
      <point x="166" y="169" type="qcurve"/>
      <point x="166" y="240" type="line"/>
      <point x="166" y="292"/>
      <point x="226" y="353"/>
      <point x="277" y="353" type="qcurve"/>
      <point x="368" y="353" type="line"/>
      <point x="380" y="353"/>
      <point x="392" y="337"/>
      <point x="392" y="328" type="qcurve"/>
      <point x="392" y="111" type="line"/>
      <point x="440" y="114"/>
      <point x="440" y="168" type="qcurve"/>
      <point x="440" y="338" type="line"/>
      <point x="440" y="394"/>
      <point x="388" y="394" type="qcurve"/>
      <point x="256" y="394" type="line"/>
      <point x="230" y="394"/>
      <point x="184" y="374"/>
      <point x="165" y="356" type="qcurve"/>
      <point x="126" y="318"/>
      <point x="126" y="258" type="qcurve"/>
      <point x="126" y="151" type="line"/>
      <point x="126" y="91"/>
      <point x="165" y="52" type="qcurve"/>
      <point x="203" y="14"/>
      <point x="256" y="14" type="qcurve"/>
      <point x="382" y="14" type="line"/>
      <point x="406" y="14"/>
      <point x="406" y="-11" type="qcurve"/>
      <point x="406" y="-19" type="line"/>
      <point x="406" y="-44"/>
      <point x="382" y="-44" type="qcurve"/>
      <point x="257" y="-44" type="line"/>
      <point x="183" y="-44"/>
      <point x="125" y="8" type="qcurve"/>
      <point x="67" y="62"/>
      <point x="67" y="152" type="qcurve"/>
      <point x="67" y="257" type="line"/>
      <point x="67" y="346"/>
      <point x="125" y="400" type="qcurve"/>
      <point x="183" y="452"/>
      <point x="257" y="452" type="qcurve"/>
      <point x="388" y="452" type="line"/>
      <point x="439" y="452"/>
      <point x="499" y="390"/>
      <point x="499" y="339" type="qcurve"/>
    </contour>
    <contour>
      <point x="342" y="287" type="line"/>
      <point x="342" y="295"/>
      <point x="335" y="304"/>
      <point x="324" y="303" type="qcurve"/>
      <point x="282" y="300" type="line"/>
      <point x="252" y="298"/>
      <point x="217" y="271"/>
      <point x="217" y="239" type="qcurve"/>
      <point x="217" y="169" type="line"/>
      <point x="217" y="105"/>
      <point x="277" y="105" type="qcurve"/>
      <point x="278" y="105" type="line"/>
      <point x="342" y="105"/>
      <point x="342" y="166" type="qcurve"/>
    </contour>
  </outline>
</glyph>
<glyph name="A" format="1">
  <advance width="355"/>
  <unicode hex="0041"/>
  <outline>
    <contour>
      <point x="302" y="0" type="line" name="hr00"/>
      <point x="291" y="0"/>
      <point x="281" y="15"/>
      <point x="279" y="20" type="qcurve"/>
      <point x="248" y="112" type="line"/>
      <point x="107" y="112" type="line"/>
      <point x="75" y="18" type="line"/>
      <point x="72" y="11"/>
      <point x="60" y="0"/>
      <point x="51" y="0" type="qcurve"/>
      <point x="43" y="0" type="line"/>
      <point x="29" y="0"/>
      <point x="19" y="21"/>
      <point x="22" y="30" type="qcurve"/>
      <point x="147" y="414" type="line"/>
      <point x="149" y="419"/>
      <point x="158" y="434"/>
      <point x="170" y="434" type="qcurve"/>
      <point x="184" y="434" type="line"/>
      <point x="202" y="434"/>
      <point x="209" y="415" type="qcurve"/>
      <point x="333" y="30" type="line"/>
      <point x="336" y="21"/>
      <point x="326" y="0"/>
      <point x="312" y="0" type="qcurve"/>
    </contour>
    <contour>
      <point x="177" y="336" type="line"/>
      <point x="171" y="316"/>
      <point x="157" y="270"/>
      <point x="143" y="224"/>
      <point x="130" y="183"/>
      <point x="126" y="169" type="qcurve"/>
      <point x="229" y="169" type="line"/>
    </contour>
  </outline>
</glyph>
<glyph name="B" format="1">
  <advance width="367"/>
  <unicode hex="0042"/>
  <outline>
    <contour>
      <point x="83" y="0" type="line" name="hr00"/>
      <point x="72" y="0"/>
      <point x="60" y="14"/>
      <point x="60" y="24" type="qcurve"/>
      <point x="60" y="409" type="line"/>
      <point x="60" y="418"/>
      <point x="71" y="434"/>
      <point x="83" y="434" type="qcurve"/>
      <point x="217" y="434" type="line"/>
      <point x="262" y="434"/>
      <point x="313" y="381"/>
      <point x="313" y="333" type="qcurve"/>
      <point x="313" y="293" type="line"/>
      <point x="313" y="246"/>
      <point x="285" y="221" type="qcurve"/>
      <point x="299" y="208"/>
      <point x="317" y="169"/>
      <point x="317" y="146" type="qcurve"/>
      <point x="317" y="101" type="line"/>
      <point x="317" y="53"/>
      <point x="264" y="0"/>
      <point x="221" y="0" type="qcurve"/>
    </contour>
    <contour>
      <point x="259" y="333" type="line"/>
      <point x="259" y="379"/>
      <point x="217" y="379" type="qcurve"/>
      <point x="115" y="379" type="line"/>
      <point x="115" y="247" type="line"/>
      <point x="216" y="247" type="line"/>
      <point x="237" y="247"/>
      <point x="259" y="268"/>
      <point x="259" y="294" type="qcurve"/>
    </contour>
    <contour>
      <point x="262" y="146" type="line"/>
      <point x="262" y="170"/>
      <point x="242" y="192"/>
      <point x="216" y="192" type="qcurve"/>
      <point x="115" y="192" type="line"/>
      <point x="115" y="55" type="line"/>
      <point x="221" y="55" type="line"/>
      <point x="262" y="55"/>
      <point x="262" y="101" type="qcurve"/>
    </contour>
  </outline>
</glyph>
<glyph name="C" format="1">
  <advance width="366"/>
  <unicode hex="0043"/>
  <outline>
    <contour>
      <point x="150" y="0" type="line" name="hr00"/>
      <point x="105" y="0"/>
      <point x="54" y="55"/>
      <point x="54" y="103" type="qcurve"/>
      <point x="54" y="331" type="line"/>
      <point x="54" y="377"/>
      <point x="105" y="434"/>
      <point x="150" y="434" type="qcurve"/>
      <point x="226" y="434" type="line"/>
      <point x="271" y="434"/>
      <point x="322" y="377"/>
      <point x="322" y="331" type="qcurve"/>
      <point x="322" y="301" type="line"/>
      <point x="322" y="294"/>
      <point x="313" y="276"/>
      <point x="299" y="276" type="qcurve"/>
      <point x="292" y="276" type="line"/>
      <point x="279" y="276"/>
      <point x="268" y="292"/>
      <point x="268" y="301" type="qcurve"/>
      <point x="268" y="330" type="line"/>
      <point x="268" y="379"/>
      <point x="226" y="379" type="qcurve"/>
      <point x="150" y="379" type="line"/>
      <point x="108" y="379"/>
      <point x="108" y="330" type="qcurve"/>
      <point x="108" y="104" type="line"/>
      <point x="108" y="55"/>
      <point x="150" y="55" type="qcurve"/>
      <point x="226" y="55" type="line"/>
      <point x="268" y="55"/>
      <point x="268" y="104" type="qcurve"/>
      <point x="268" y="133" type="line"/>
      <point x="268" y="157"/>
      <point x="292" y="157" type="qcurve"/>
      <point x="299" y="157" type="line"/>
      <point x="311" y="157"/>
      <point x="322" y="141"/>
      <point x="322" y="133" type="qcurve"/>
      <point x="322" y="103" type="line"/>
      <point x="322" y="55"/>
      <point x="271" y="0"/>
      <point x="226" y="0" type="qcurve"/>
    </contour>
  </outline>
</glyph>
<glyph name="D" format="1">
  <advance width="376"/>
  <unicode hex="0044"/>
  <outline>
    <contour>
      <point x="83" y="0" type="line" name="hr00"/>
      <point x="72" y="0"/>
      <point x="60" y="14"/>
      <point x="60" y="24" type="qcurve"/>
      <point x="60" y="409" type="line"/>
      <point x="60" y="418"/>
      <point x="71" y="434"/>
      <point x="83" y="434" type="qcurve"/>
      <point x="226" y="434" type="line"/>
      <point x="271" y="434"/>
      <point x="322" y="377"/>
      <point x="322" y="331" type="qcurve"/>
      <point x="322" y="103" type="line"/>
      <point x="322" y="55"/>
      <point x="271" y="0"/>
      <point x="226" y="0" type="qcurve"/>
    </contour>
    <contour>
      <point x="268" y="330" type="line"/>
      <point x="268" y="379"/>
      <point x="226" y="379" type="qcurve"/>
      <point x="115" y="379" type="line"/>
      <point x="115" y="55" type="line"/>
      <point x="226" y="55" type="line"/>
      <point x="268" y="55"/>
      <point x="268" y="104" type="qcurve"/>
    </contour>
  </outline>
</glyph>
<glyph name="E" format="1">
  <advance width="325"/>
  <unicode hex="0045"/>
  <outline>
    <contour>
      <point x="83" y="0" type="line"/>
      <point x="72" y="0"/>
      <point x="60" y="14"/>
      <point x="60" y="24" type="qcurve"/>
      <point x="60" y="409" type="line"/>
      <point x="60" y="417"/>
      <point x="71" y="434"/>
      <point x="83" y="434" type="qcurve"/>
      <point x="254" y="434" type="line" name="hr01"/>
      <point x="265" y="434"/>
      <point x="277" y="420"/>
      <point x="277" y="410" type="qcurve"/>
      <point x="277" y="402" type="line"/>
      <point x="277" y="391"/>
      <point x="262" y="379"/>
      <point x="254" y="379" type="qcurve"/>
      <point x="113" y="379" type="line"/>
      <point x="113" y="248" type="line"/>
      <point x="240" y="248" type="line"/>
      <point x="248" y="248"/>
      <point x="263" y="236"/>
      <point x="263" y="224" type="qcurve"/>
      <point x="263" y="217" type="line"/>
      <point x="263" y="207"/>
      <point x="251" y="193"/>
      <point x="240" y="193" type="qcurve" name="hr02"/>
      <point x="113" y="193" type="line"/>
      <point x="113" y="55" type="line"/>
      <point x="254" y="55" type="line"/>
      <point x="265" y="55"/>
      <point x="277" y="41"/>
      <point x="277" y="31" type="qcurve"/>
      <point x="277" y="24" type="line"/>
      <point x="277" y="12"/>
      <point x="262" y="0"/>
      <point x="254" y="0" type="qcurve"/>
    </contour>
  </outline>
</glyph>
<glyph name="F" format="1">
  <advance width="311"/>
  <unicode hex="0046"/>
  <outline>
    <contour>
      <point x="113" y="379" type="line" name="hr00"/>
      <point x="113" y="243" type="line"/>
      <point x="240" y="243" type="line"/>
      <point x="248" y="243"/>
      <point x="263" y="231"/>
      <point x="263" y="220" type="qcurve"/>
      <point x="263" y="212" type="line"/>
      <point x="263" y="200"/>
      <point x="248" y="188"/>
      <point x="240" y="188" type="qcurve"/>
      <point x="113" y="188" type="line"/>
      <point x="113" y="24" type="line"/>
      <point x="113" y="16"/>
      <point x="103" y="0"/>
      <point x="91" y="0" type="qcurve"/>
      <point x="83" y="0" type="line"/>
      <point x="72" y="0"/>
      <point x="60" y="14"/>
      <point x="60" y="24" type="qcurve"/>
      <point x="60" y="409" type="line"/>
      <point x="60" y="417"/>
      <point x="71" y="434"/>
      <point x="83" y="434" type="qcurve"/>
      <point x="255" y="434" type="line"/>
      <point x="266" y="434"/>
      <point x="278" y="420"/>
      <point x="278" y="410" type="qcurve"/>
      <point x="278" y="402" type="line"/>
      <point x="278" y="391"/>
      <point x="263" y="379"/>
      <point x="255" y="379" type="qcurve"/>
    </contour>
  </outline>
</glyph>
<glyph name="G" format="1">
  <advance width="363"/>
  <unicode hex="0047"/>
  <outline>
    <contour>
      <point x="149" y="0" type="line" name="hr00"/>
      <point x="104" y="0"/>
      <point x="54" y="55"/>
      <point x="54" y="103" type="qcurve"/>
      <point x="54" y="331" type="line"/>
      <point x="54" y="377"/>
      <point x="104" y="434"/>
      <point x="149" y="434" type="qcurve"/>
      <point x="214" y="434" type="line"/>
      <point x="259" y="434"/>
      <point x="309" y="377"/>
      <point x="309" y="331" type="qcurve"/>
      <point x="309" y="301" type="line"/>
      <point x="309" y="292"/>
      <point x="298" y="276"/>
      <point x="286" y="276" type="qcurve"/>
      <point x="278" y="276" type="line"/>
      <point x="264" y="276"/>
      <point x="255" y="294"/>
      <point x="255" y="301" type="qcurve"/>
      <point x="255" y="330" type="line"/>
      <point x="255" y="379"/>
      <point x="214" y="379" type="qcurve"/>
      <point x="149" y="379" type="line"/>
      <point x="108" y="379"/>
      <point x="108" y="330" type="qcurve"/>
      <point x="108" y="104" type="line"/>
      <point x="108" y="55"/>
      <point x="149" y="55" type="qcurve"/>
      <point x="214" y="55" type="line"/>
      <point x="255" y="55"/>
      <point x="255" y="104" type="qcurve"/>
      <point x="255" y="183" type="line"/>
      <point x="193" y="183" type="line"/>
      <point x="183" y="183"/>
      <point x="171" y="196"/>
      <point x="171" y="206" type="qcurve"/>
      <point x="171" y="213" type="line"/>
      <point x="171" y="221"/>
      <point x="181" y="238"/>
      <point x="193" y="238" type="qcurve"/>
      <point x="280" y="238" type="line"/>
      <point x="294" y="238"/>
      <point x="309" y="220"/>
      <point x="309" y="207" type="qcurve"/>
      <point x="309" y="103" type="line"/>
      <point x="309" y="55"/>
      <point x="259" y="0"/>
      <point x="214" y="0" type="qcurve"/>
    </contour>
  </outline>
</glyph>
<glyph name="H" format="1">
  <advance width="352"/>
  <unicode hex="0048"/>
  <outline>
    <contour>
      <point x="272" y="0" type="line" smooth="yes"/>
      <point x="261" y="0"/>
      <point x="248" y="14"/>
      <point x="248" y="24" type="qcurve" smooth="yes"/>
      <point x="248" y="193" type="line"/>
      <point x="95" y="193" type="line"/>
      <point x="95" y="24" type="line" smooth="yes"/>
      <point x="95" y="16"/>
      <point x="84" y="0"/>
      <point x="72" y="0" type="qcurve" smooth="yes"/>
      <point x="63" y="0" type="line" smooth="yes"/>
      <point x="52" y="0"/>
      <point x="40" y="14"/>
      <point x="40" y="24" type="qcurve" smooth="yes"/>
      <point x="40" y="409" type="line" smooth="yes"/>
      <point x="40" y="418"/>
      <point x="51" y="434"/>
      <point x="63" y="434" type="qcurve" smooth="yes"/>
      <point x="72" y="434" type="line" smooth="yes"/>
      <point x="86" y="434"/>
      <point x="95" y="416"/>
      <point x="95" y="409" type="qcurve" smooth="yes"/>
      <point x="95" y="248" type="line"/>
      <point x="248" y="248" type="line"/>
      <point x="248" y="409" type="line" smooth="yes"/>
      <point x="248" y="418"/>
      <point x="259" y="434"/>
      <point x="272" y="434" type="qcurve" smooth="yes"/>
      <point x="279" y="434" type="line" smooth="yes"/>
      <point x="293" y="434"/>
      <point x="302" y="416"/>
      <point x="302" y="409" type="qcurve" smooth="yes"/>
      <point x="302" y="24" type="line" smooth="yes"/>
      <point x="302" y="16"/>
      <point x="291" y="0"/>
      <point x="279" y="0" type="qcurve" smooth="yes"/>
    </contour>
  </outline>
</glyph>
<glyph name="I" format="1">
  <advance width="123"/>
  <unicode hex="0049"/>
  <outline>
    <contour>
      <point x="54" y="0" type="line" smooth="yes"/>
      <point x="42" y="0"/>
      <point x="32" y="17"/>
      <point x="32" y="25" type="qcurve" smooth="yes"/>
      <point x="32" y="409" type="line" smooth="yes"/>
      <point x="32" y="417"/>
      <point x="42" y="434"/>
      <point x="54" y="434" type="qcurve" smooth="yes"/>
      <point x="62" y="434" type="line" smooth="yes"/>
      <point x="73.5" y="434.0" name="inserted"/>
      <point x="85.0" y="421.5"/>
      <point x="85" y="409" type="qcurve" smooth="yes"/>
      <point x="85" y="25" type="line" smooth="yes"/>
      <point x="85.0" y="12.5" name="inserted"/>
      <point x="73.5" y="0.0"/>
      <point x="62" y="0" type="qcurve" smooth="yes"/>
    </contour>
  </outline>
</glyph>
<glyph name="J" format="1">
  <advance width="333"/>
  <unicode hex="004A"/>
  <outline>
    <contour>
      <point x="122" y="0" type="line" name="hr00"/>
      <point x="77" y="0"/>
      <point x="27" y="55"/>
      <point x="27" y="103" type="qcurve"/>
      <point x="27" y="152" type="line"/>
      <point x="27" y="160"/>
      <point x="38" y="177"/>
      <point x="49" y="177" type="qcurve"/>
      <point x="57" y="177" type="line"/>
      <point x="80" y="177"/>
      <point x="80" y="152" type="qcurve"/>
      <point x="80" y="104" type="line"/>
      <point x="80" y="55"/>
      <point x="122" y="55" type="qcurve"/>
      <point x="179" y="55" type="line"/>
      <point x="222" y="55"/>
      <point x="222" y="104" type="qcurve"/>
      <point x="222" y="409" type="line"/>
      <point x="222" y="415"/>
      <point x="230" y="434"/>
      <point x="244" y="434" type="qcurve"/>
      <point x="253" y="434" type="line"/>
      <point x="264" y="434"/>
      <point x="275" y="418"/>
      <point x="275" y="410" type="qcurve"/>
      <point x="275" y="103" type="line"/>
      <point x="275" y="55"/>
      <point x="224" y="0"/>
      <point x="179" y="0" type="qcurve"/>
    </contour>
  </outline>
</glyph>
<glyph name="K" format="1">
  <advance width="353"/>
  <unicode hex="004B"/>
  <outline>
    <contour>
      <point x="302" y="0" type="line" name="hr00"/>
      <point x="284" y="0"/>
      <point x="277" y="15" type="qcurve"/>
      <point x="161" y="196" type="line"/>
      <point x="115" y="136" type="line"/>
      <point x="115" y="24" type="line"/>
      <point x="115" y="16"/>
      <point x="104" y="0"/>
      <point x="92" y="0" type="qcurve"/>
      <point x="84" y="0" type="line"/>
      <point x="73" y="0"/>
      <point x="60" y="14"/>
      <point x="60" y="24" type="qcurve"/>
      <point x="60" y="409" type="line"/>
      <point x="60" y="418"/>
      <point x="71" y="434"/>
      <point x="84" y="434" type="qcurve"/>
      <point x="92" y="434" type="line"/>
      <point x="106" y="434"/>
      <point x="115" y="416"/>
      <point x="115" y="409" type="qcurve"/>
      <point x="115" y="225" type="line"/>
      <point x="257" y="420" type="line"/>
      <point x="261" y="425"/>
      <point x="273" y="434"/>
      <point x="281" y="434" type="qcurve"/>
      <point x="292" y="434" type="line"/>
      <point x="302" y="434"/>
      <point x="312" y="426"/>
      <point x="314" y="414"/>
      <point x="311" y="402"/>
      <point x="309" y="398" type="qcurve"/>
      <point x="197" y="242" type="line"/>
      <point x="328" y="35" type="line"/>
      <point x="334" y="26"/>
      <point x="328" y="0"/>
      <point x="310" y="0" type="qcurve"/>
    </contour>
  </outline>
</glyph>
<glyph name="L" format="1">
  <advance width="285"/>
  <unicode hex="004C"/>
  <outline>
    <contour>
      <point x="60" y="0" type="line" smooth="yes"/>
      <point x="49" y="0"/>
      <point x="37" y="14"/>
      <point x="37" y="24" type="qcurve" smooth="yes"/>
      <point x="37" y="409" type="line" smooth="yes"/>
      <point x="37" y="417"/>
      <point x="48" y="434"/>
      <point x="60" y="434" type="qcurve" smooth="yes"/>
      <point x="68" y="434" type="line" smooth="yes"/>
      <point x="82" y="434"/>
      <point x="91" y="415"/>
      <point x="91" y="409" type="qcurve" smooth="yes"/>
      <point x="91" y="56" type="line"/>
      <point x="239" y="56" type="line" smooth="yes"/>
      <point x="250" y="56"/>
      <point x="261" y="40"/>
      <point x="261" y="32" type="qcurve" smooth="yes"/>
      <point x="261" y="24" type="line" smooth="yes"/>
      <point x="261" y="14"/>
      <point x="249" y="0"/>
      <point x="239" y="0" type="qcurve" smooth="yes"/>
    </contour>
  </outline>
</glyph>
<glyph name="M" format="1">
  <advance width="464"/>
  <unicode hex="004D"/>
  <outline>
    <contour>
      <point x="372" y="0" type="line" name="hr00"/>
      <point x="348" y="0"/>
      <point x="348" y="24" type="qcurve"/>
      <point x="348" y="295" type="line"/>
      <point x="262" y="102" type="line"/>
      <point x="255" y="86"/>
      <point x="237" y="86" type="qcurve"/>
      <point x="227" y="86" type="line"/>
      <point x="209" y="86"/>
      <point x="202" y="102" type="qcurve"/>
      <point x="116" y="297" type="line"/>
      <point x="116" y="24" type="line"/>
      <point x="116" y="16"/>
      <point x="105" y="0"/>
      <point x="93" y="0" type="qcurve"/>
      <point x="84" y="0" type="line"/>
      <point x="60" y="0"/>
      <point x="60" y="24" type="qcurve"/>
      <point x="60" y="409" type="line"/>
      <point x="60" y="418"/>
      <point x="72" y="434"/>
      <point x="84" y="434" type="qcurve"/>
      <point x="101" y="434" type="line"/>
      <point x="117" y="434"/>
      <point x="122" y="420" type="qcurve"/>
      <point x="232" y="172" type="line"/>
      <point x="341" y="420" type="line"/>
      <point x="347" y="434"/>
      <point x="363" y="434" type="qcurve"/>
      <point x="380" y="434" type="line"/>
      <point x="394" y="434"/>
      <point x="403" y="416"/>
      <point x="403" y="409" type="qcurve"/>
      <point x="403" y="24" type="line"/>
      <point x="403" y="16"/>
      <point x="392" y="0"/>
      <point x="380" y="0" type="qcurve"/>
    </contour>
  </outline>
</glyph>
<glyph name="N" format="1">
  <advance width="390"/>
  <unicode hex="004E"/>
  <outline>
    <contour>
      <point x="300" y="0" type="line" name="hr00"/>
      <point x="286" y="0"/>
      <point x="278" y="14" type="qcurve"/>
      <point x="115" y="306" type="line"/>
      <point x="115" y="24" type="line"/>
      <point x="115" y="16"/>
      <point x="104" y="0"/>
      <point x="92" y="0" type="qcurve"/>
      <point x="84" y="0" type="line"/>
      <point x="73" y="0"/>
      <point x="60" y="14"/>
      <point x="60" y="24" type="qcurve"/>
      <point x="60" y="409" type="line"/>
      <point x="60" y="418"/>
      <point x="71" y="434"/>
      <point x="84" y="434" type="qcurve"/>
      <point x="92" y="434" type="line"/>
      <point x="101" y="434"/>
      <point x="110" y="424"/>
      <point x="111" y="422" type="qcurve"/>
      <point x="275" y="130" type="line"/>
      <point x="275" y="409" type="line"/>
      <point x="275" y="416"/>
      <point x="284" y="434"/>
      <point x="298" y="434" type="qcurve"/>
      <point x="306" y="434" type="line"/>
      <point x="320" y="434"/>
      <point x="329" y="416"/>
      <point x="329" y="409" type="qcurve"/>
      <point x="329" y="24" type="line"/>
      <point x="329" y="16"/>
      <point x="318" y="0"/>
      <point x="306" y="0" type="qcurve"/>
    </contour>
  </outline>
</glyph>
<glyph name="O" format="1">
  <advance width="337"/>
  <unicode hex="004F"/>
  <outline>
    <contour>
      <point x="130" y="0" type="line" smooth="yes"/>
      <point x="85" y="0"/>
      <point x="34" y="55"/>
      <point x="34" y="103" type="qcurve" smooth="yes"/>
      <point x="34" y="331" type="line" smooth="yes"/>
      <point x="34" y="377"/>
      <point x="85" y="434"/>
      <point x="130" y="434" type="qcurve" smooth="yes"/>
      <point x="203" y="434" type="line" smooth="yes"/>
      <point x="248" y="434"/>
      <point x="299" y="377"/>
      <point x="299" y="331" type="qcurve" smooth="yes"/>
      <point x="299" y="103" type="line" smooth="yes"/>
      <point x="299" y="55"/>
      <point x="248" y="0"/>
      <point x="203" y="0" type="qcurve" smooth="yes"/>
    </contour>
    <contour>
      <point x="245" y="330" type="line" smooth="yes"/>
      <point x="245.0" y="354.5" name="inserted"/>
      <point x="224.0" y="379.0"/>
      <point x="203" y="379" type="qcurve" smooth="yes"/>
      <point x="130" y="379" type="line" smooth="yes"/>
      <point x="109.0" y="379.0" name="inserted"/>
      <point x="88.0" y="354.5"/>
      <point x="88" y="330" type="qcurve" smooth="yes"/>
      <point x="88" y="104" type="line" smooth="yes"/>
      <point x="88.0" y="79.5" name="inserted"/>
      <point x="109.0" y="55.0"/>
      <point x="130" y="55" type="qcurve" smooth="yes"/>
      <point x="203" y="55" type="line" smooth="yes"/>
      <point x="224.0" y="55.0" name="inserted"/>
      <point x="245.0" y="79.5"/>
      <point x="245" y="104" type="qcurve" smooth="yes"/>
    </contour>
  </outline>
</glyph>
<glyph name="P" format="1">
  <advance width="353"/>
  <unicode hex="0050"/>
  <outline>
    <contour>
      <point x="114" y="152" type="line" name="hr00"/>
      <point x="114" y="24" type="line"/>
      <point x="114" y="16"/>
      <point x="104" y="0"/>
      <point x="92" y="0" type="qcurve"/>
      <point x="83" y="0" type="line"/>
      <point x="72" y="0"/>
      <point x="60" y="14"/>
      <point x="60" y="24" type="qcurve"/>
      <point x="60" y="409" type="line"/>
      <point x="60" y="418"/>
      <point x="71" y="434"/>
      <point x="83" y="434" type="qcurve"/>
      <point x="214" y="434" type="line"/>
      <point x="259" y="434"/>
      <point x="309" y="377"/>
      <point x="309" y="331" type="qcurve"/>
      <point x="309" y="255" type="line"/>
      <point x="309" y="210"/>
      <point x="259" y="152"/>
      <point x="214" y="152" type="qcurve"/>
    </contour>
    <contour>
      <point x="256" y="330" type="line"/>
      <point x="256" y="379"/>
      <point x="214" y="379" type="qcurve"/>
      <point x="114" y="379" type="line"/>
      <point x="114" y="208" type="line"/>
      <point x="214" y="208" type="line"/>
      <point x="234" y="208"/>
      <point x="256" y="230"/>
      <point x="256" y="256" type="qcurve"/>
    </contour>
  </outline>
</glyph>
<glyph name="Q" format="1">
  <advance width="352"/>
  <unicode hex="0051"/>
  <outline>
    <contour>
      <point x="273" y="-56" type="line"/>
      <point x="274" y="-59"/>
      <point x="276" y="-70"/>
      <point x="274.5" y="-76.0" type="qcurve" smooth="yes" name="inserted"/>
      <point x="273" y="-82"/>
      <point x="264" y="-90"/>
      <point x="254" y="-90" type="qcurve" smooth="yes"/>
      <point x="245" y="-90" type="line" smooth="yes"/>
      <point x="236" y="-90"/>
      <point x="224" y="-81"/>
      <point x="221" y="-76" type="qcurve" smooth="yes"/>
      <point x="181" y="-7" type="line"/>
      <point x="139" y="-7" type="line" smooth="yes"/>
      <point x="94" y="-7"/>
      <point x="43" y="50"/>
      <point x="43" y="98" type="qcurve" smooth="yes"/>
      <point x="43" y="330" type="line" smooth="yes"/>
      <point x="43" y="376"/>
      <point x="94" y="434"/>
      <point x="139" y="434" type="qcurve" smooth="yes"/>
      <point x="212" y="434" type="line" smooth="yes"/>
      <point x="257" y="434"/>
      <point x="308" y="376"/>
      <point x="308" y="330" type="qcurve" smooth="yes"/>
      <point x="308" y="98" type="line" smooth="yes"/>
      <point x="308" y="60"/>
      <point x="273" y="7"/>
      <point x="242" y="-2" type="qcurve"/>
    </contour>
    <contour>
      <point x="254" y="329" type="line" smooth="yes"/>
      <point x="254.0" y="353.5" name="inserted"/>
      <point x="233.0" y="378.0"/>
      <point x="212" y="378" type="qcurve" smooth="yes"/>
      <point x="139" y="378" type="line" smooth="yes"/>
      <point x="118.0" y="378.0" name="inserted"/>
      <point x="97.0" y="353.5"/>
      <point x="97" y="329" type="qcurve" smooth="yes"/>
      <point x="97" y="99" type="line" smooth="yes"/>
      <point x="97.0" y="74.0" name="inserted"/>
      <point x="118.0" y="49.0"/>
      <point x="139" y="49" type="qcurve" smooth="yes"/>
      <point x="212" y="49" type="line" smooth="yes"/>
      <point x="233.0" y="49.0" name="inserted"/>
      <point x="254.0" y="74.0"/>
      <point x="254" y="99" type="qcurve" smooth="yes"/>
    </contour>
  </outline>
</glyph>
<glyph name="R" format="1">
  <advance width="352"/>
  <unicode hex="0052"/>
  <outline>
    <contour>
      <point x="280" y="0" type="line" name="hr00"/>
      <point x="272" y="0"/>
      <point x="260" y="9"/>
      <point x="257" y="14" type="qcurve"/>
      <point x="191" y="166" type="line"/>
      <point x="110" y="166" type="line"/>
      <point x="110" y="24" type="line"/>
      <point x="110" y="12"/>
      <point x="94" y="0"/>
      <point x="86" y="0" type="qcurve"/>
      <point x="79" y="0" type="line"/>
      <point x="72" y="0"/>
      <point x="55" y="10"/>
      <point x="55" y="24" type="qcurve"/>
      <point x="55" y="410" type="line"/>
      <point x="55" y="422"/>
      <point x="70" y="434"/>
      <point x="79" y="434" type="qcurve"/>
      <point x="208" y="434" type="line"/>
      <point x="253" y="434"/>
      <point x="305" y="379"/>
      <point x="305" y="331" type="qcurve"/>
      <point x="305" y="270" type="line"/>
      <point x="305" y="197"/>
      <point x="246" y="174" type="qcurve"/>
      <point x="310" y="32" type="line"/>
      <point x="311" y="29"/>
      <point x="313" y="18"/>
      <point x="310" y="8"/>
      <point x="301" y="0"/>
      <point x="292" y="0" type="qcurve"/>
    </contour>
    <contour>
      <point x="251" y="330" type="line"/>
      <point x="251" y="380"/>
      <point x="208" y="380" type="qcurve"/>
      <point x="110" y="380" type="line"/>
      <point x="110" y="222" type="line"/>
      <point x="208" y="222" type="line"/>
      <point x="251" y="222"/>
      <point x="251" y="270" type="qcurve"/>
    </contour>
  </outline>
</glyph>
<glyph name="S" format="1">
  <advance width="383"/>
  <unicode hex="0053"/>
  <outline>
    <contour>
      <point x="157" y="0" type="line" name="hr00"/>
      <point x="112" y="0"/>
      <point x="60" y="55"/>
      <point x="60" y="103" type="qcurve"/>
      <point x="60" y="128" type="line"/>
      <point x="60" y="138"/>
      <point x="72" y="152"/>
      <point x="83" y="152" type="qcurve"/>
      <point x="92" y="152" type="line"/>
      <point x="104" y="152"/>
      <point x="115" y="136"/>
      <point x="115" y="128" type="qcurve"/>
      <point x="115" y="104" type="line"/>
      <point x="115" y="55"/>
      <point x="157" y="55" type="qcurve"/>
      <point x="226" y="55" type="line"/>
      <point x="268" y="55"/>
      <point x="268" y="104" type="qcurve"/>
      <point x="268" y="134" type="line"/>
      <point x="268" y="151"/>
      <point x="238" y="179"/>
      <point x="209" y="186" type="qcurve"/>
      <point x="188" y="191"/>
      <point x="136" y="203"/>
      <point x="91" y="226"/>
      <point x="60" y="264"/>
      <point x="60" y="294" type="qcurve"/>
      <point x="60" y="331" type="line"/>
      <point x="60" y="377"/>
      <point x="112" y="434"/>
      <point x="157" y="434" type="qcurve"/>
      <point x="226" y="434" type="line"/>
      <point x="271" y="434"/>
      <point x="322" y="377"/>
      <point x="322" y="331" type="qcurve"/>
      <point x="322" y="313" type="line"/>
      <point x="322" y="305"/>
      <point x="311" y="288"/>
      <point x="299" y="288" type="qcurve"/>
      <point x="292" y="288" type="line"/>
      <point x="268" y="288"/>
      <point x="268" y="313" type="qcurve"/>
      <point x="268" y="330" type="line"/>
      <point x="268" y="379"/>
      <point x="226" y="379" type="qcurve"/>
      <point x="157" y="379" type="line"/>
      <point x="115" y="379"/>
      <point x="115" y="330" type="qcurve"/>
      <point x="115" y="295" type="line"/>
      <point x="115" y="283"/>
      <point x="138" y="258"/>
      <point x="173" y="250" type="qcurve"/>
      <point x="197" y="245"/>
      <point x="245" y="233"/>
      <point x="268" y="221" type="qcurve"/>
      <point x="291" y="209"/>
      <point x="322" y="168"/>
      <point x="322" y="136" type="qcurve"/>
      <point x="322" y="103" type="line"/>
      <point x="322" y="55"/>
      <point x="271" y="0"/>
      <point x="226" y="0" type="qcurve"/>
    </contour>
  </outline>
</glyph>
<glyph name="T" format="1">
  <advance width="279"/>
  <unicode hex="0054"/>
  <outline>
    <contour>
      <point x="166" y="379" type="line"/>
      <point x="166" y="24" type="line" smooth="yes"/>
      <point x="166" y="16"/>
      <point x="155" y="0"/>
      <point x="143" y="0" type="qcurve" smooth="yes"/>
      <point x="136" y="0" type="line" smooth="yes"/>
      <point x="124" y="0"/>
      <point x="113" y="16"/>
      <point x="113" y="24" type="qcurve" smooth="yes"/>
      <point x="113" y="379" type="line"/>
      <point x="37" y="379" type="line" smooth="yes"/>
      <point x="30" y="379"/>
      <point x="13" y="389"/>
      <point x="13" y="402" type="qcurve" smooth="yes"/>
      <point x="13" y="410" type="line" smooth="yes"/>
      <point x="13" y="422"/>
      <point x="28" y="434"/>
      <point x="37" y="434" type="qcurve" smooth="yes"/>
      <point x="243" y="434" type="line" smooth="yes"/>
      <point x="254" y="434"/>
      <point x="265" y="418"/>
      <point x="265" y="410" type="qcurve" smooth="yes"/>
      <point x="265" y="402" type="line" smooth="yes"/>
      <point x="265" y="393"/>
      <point x="253" y="379"/>
      <point x="243" y="379" type="qcurve" smooth="yes"/>
    </contour>
  </outline>
</glyph>
<glyph name="U" format="1">
  <advance width="371"/>
  <unicode hex="0055"/>
  <outline>
    <contour>
      <point x="153" y="0" type="line" name="hr00"/>
      <point x="108" y="0"/>
      <point x="58" y="55"/>
      <point x="58" y="103" type="qcurve"/>
      <point x="58" y="409" type="line"/>
      <point x="58" y="415"/>
      <point x="67" y="434"/>
      <point x="81" y="434" type="qcurve"/>
      <point x="88" y="434" type="line"/>
      <point x="102" y="434"/>
      <point x="111" y="415"/>
      <point x="111" y="409" type="qcurve"/>
      <point x="111" y="104" type="line"/>
      <point x="111" y="55"/>
      <point x="153" y="55" type="qcurve"/>
      <point x="218" y="55" type="line"/>
      <point x="259" y="55"/>
      <point x="259" y="104" type="qcurve"/>
      <point x="259" y="409" type="line"/>
      <point x="259" y="418"/>
      <point x="271" y="434"/>
      <point x="283" y="434" type="qcurve"/>
      <point x="291" y="434" type="line"/>
      <point x="303" y="434"/>
      <point x="314" y="418"/>
      <point x="314" y="410" type="qcurve"/>
      <point x="314" y="103" type="line"/>
      <point x="314" y="55"/>
      <point x="263" y="0"/>
      <point x="218" y="0" type="qcurve"/>
    </contour>
  </outline>
</glyph>
<glyph name="V" format="1">
  <advance width="333"/>
  <unicode hex="0056"/>
  <outline>
    <contour>
      <point x="197" y="17" type="line" name="hr00"/>
      <point x="195" y="13"/>
      <point x="185" y="0"/>
      <point x="174" y="0" type="qcurve"/>
      <point x="159" y="0" type="line"/>
      <point x="147" y="0"/>
      <point x="138" y="15"/>
      <point x="136" y="19" type="qcurve"/>
      <point x="22" y="404" type="line"/>
      <point x="20" y="410"/>
      <point x="26" y="434"/>
      <point x="43" y="434" type="qcurve"/>
      <point x="52" y="434" type="line"/>
      <point x="64" y="434"/>
      <point x="73" y="419"/>
      <point x="75" y="414" type="qcurve"/>
      <point x="167" y="108" type="line"/>
      <point x="258" y="414" type="line"/>
      <point x="260" y="419"/>
      <point x="269" y="434"/>
      <point x="281" y="434" type="qcurve"/>
      <point x="291" y="434" type="line"/>
      <point x="307" y="434"/>
      <point x="313" y="410"/>
      <point x="311" y="404" type="qcurve"/>
    </contour>
  </outline>
</glyph>
<glyph name="W" format="1">
  <advance width="523"/>
  <unicode hex="0057"/>
  <outline>
    <contour>
      <point x="414" y="20" type="line" smooth="yes"/>
      <point x="411.5" y="10.0" name="inserted"/>
      <point x="399.0" y="0.0"/>
      <point x="389" y="0" type="qcurve" smooth="yes"/>
      <point x="373" y="0" type="line" smooth="yes"/>
      <point x="363.0" y="0.0" name="inserted"/>
      <point x="350.5" y="9.5"/>
      <point x="348" y="19" type="qcurve" smooth="yes"/>
      <point x="263" y="322" type="line"/>
      <point x="178" y="18" type="line"/>
      <point x="176" y="13"/>
      <point x="164" y="0"/>
      <point x="153" y="0" type="qcurve" smooth="yes"/>
      <point x="137" y="0" type="line" smooth="yes"/>
      <point x="129" y="0"/>
      <point x="114" y="9"/>
      <point x="111" y="20" type="qcurve" smooth="yes"/>
      <point x="20" y="404" type="line" smooth="yes"/>
      <point x="16" y="419"/>
      <point x="34" y="434"/>
      <point x="45" y="434" type="qcurve" smooth="yes"/>
      <point x="53" y="434" type="line" smooth="yes"/>
      <point x="64" y="434"/>
      <point x="76" y="421"/>
      <point x="78" y="413" type="qcurve" smooth="yes"/>
      <point x="146" y="115" type="line"/>
      <point x="231" y="415" type="line"/>
      <point x="234" y="422"/>
      <point x="246" y="434"/>
      <point x="256" y="434" type="qcurve" smooth="yes"/>
      <point x="268" y="434" type="line" smooth="yes"/>
      <point x="279" y="434"/>
      <point x="291" y="421"/>
      <point x="293" y="414" type="qcurve" smooth="yes"/>
      <point x="379" y="113" type="line"/>
      <point x="447" y="413" type="line" smooth="yes"/>
      <point x="449" y="421"/>
      <point x="461" y="434"/>
      <point x="473" y="434" type="qcurve" smooth="yes"/>
      <point x="482" y="434" type="line" smooth="yes"/>
      <point x="500" y="434"/>
      <point x="505" y="410"/>
      <point x="503" y="404" type="qcurve"/>
    </contour>
  </outline>
</glyph>
<glyph name="X" format="1">
  <advance width="321"/>
  <unicode hex="0058"/>
  <outline>
    <contour>
      <point x="271" y="0" type="line" smooth="yes"/>
      <point x="267" y="0"/>
      <point x="253" y="5"/>
      <point x="248" y="13" type="qcurve"/>
      <point x="160" y="177" type="line"/>
      <point x="72" y="13" type="line"/>
      <point x="67" y="5"/>
      <point x="53" y="0"/>
      <point x="48" y="0" type="qcurve" smooth="yes"/>
      <point x="39" y="0" type="line" smooth="yes"/>
      <point x="22" y="0"/>
      <point x="15" y="25"/>
      <point x="20" y="34" type="qcurve" smooth="yes"/>
      <point x="127" y="229" type="line"/>
      <point x="27" y="399" type="line"/>
      <point x="25" y="403"/>
      <point x="23" y="415"/>
      <point x="24.5" y="420.5" type="qcurve" smooth="yes" name="inserted"/>
      <point x="26" y="426"/>
      <point x="36" y="434"/>
      <point x="46" y="434" type="qcurve" smooth="yes"/>
      <point x="55" y="434" type="line" smooth="yes"/>
      <point x="63.0" y="434.0" name="inserted"/>
      <point x="75.0" y="425.5"/>
      <point x="79" y="417" type="qcurve"/>
      <point x="160" y="279" type="line"/>
      <point x="241" y="417" type="line"/>
      <point x="245" y="423"/>
      <point x="255" y="434"/>
      <point x="264" y="434" type="qcurve" smooth="yes"/>
      <point x="274" y="434" type="line" smooth="yes"/>
      <point x="284" y="434"/>
      <point x="293" y="426"/>
      <point x="294.5" y="420.5" type="qcurve" smooth="yes" name="inserted"/>
      <point x="296" y="415"/>
      <point x="294" y="403"/>
      <point x="292" y="399" type="qcurve"/>
      <point x="193" y="229" type="line"/>
      <point x="301" y="31" type="line"/>
      <point x="302" y="28"/>
      <point x="303" y="18"/>
      <point x="301.0" y="12.5" type="qcurve" smooth="yes" name="inserted"/>
      <point x="299" y="7"/>
      <point x="290" y="0"/>
      <point x="281" y="0" type="qcurve" smooth="yes"/>
    </contour>
  </outline>
</glyph>
<glyph name="Y" format="1">
  <advance width="319"/>
  <unicode hex="0059"/>
  <outline>
    <contour>
      <point x="186" y="166" type="line"/>
      <point x="186" y="24" type="line" smooth="yes"/>
      <point x="186" y="14"/>
      <point x="173" y="0"/>
      <point x="162" y="0" type="qcurve" smooth="yes"/>
      <point x="155" y="0" type="line" smooth="yes"/>
      <point x="143" y="0"/>
      <point x="132" y="16"/>
      <point x="132" y="24" type="qcurve" smooth="yes"/>
      <point x="132" y="166" type="line"/>
      <point x="18" y="400" type="line"/>
      <point x="16" y="403"/>
      <point x="14" y="414"/>
      <point x="15.5" y="420.0" type="qcurve" smooth="yes" name="inserted"/>
      <point x="17" y="426"/>
      <point x="27" y="434"/>
      <point x="37" y="434" type="qcurve" smooth="yes"/>
      <point x="47" y="434" type="line" smooth="yes"/>
      <point x="58" y="434"/>
      <point x="69" y="422"/>
      <point x="71" y="417" type="qcurve"/>
      <point x="159" y="234" type="line"/>
      <point x="247" y="417" type="line"/>
      <point x="249" y="422"/>
      <point x="260" y="434"/>
      <point x="271" y="434" type="qcurve" smooth="yes"/>
      <point x="280" y="434" type="line" smooth="yes"/>
      <point x="298" y="434"/>
      <point x="303" y="409"/>
      <point x="300" y="401" type="qcurve"/>
    </contour>
  </outline>
</glyph>
<glyph name="Z" format="1">
  <advance width="300"/>
  <unicode hex="005A"/>
  <outline>
    <contour>
      <point x="39" y="0" type="line" smooth="yes"/>
      <point x="31" y="0"/>
      <point x="16" y="12"/>
      <point x="16" y="24" type="qcurve" smooth="yes"/>
      <point x="16" y="34" type="line" smooth="yes"/>
      <point x="16.0" y="37.5" name="inserted"/>
      <point x="17.5" y="45.0"/>
      <point x="19" y="49" type="qcurve"/>
      <point x="205" y="379" type="line"/>
      <point x="45" y="379" type="line" smooth="yes"/>
      <point x="38" y="379"/>
      <point x="21" y="389"/>
      <point x="21" y="402" type="qcurve" smooth="yes"/>
      <point x="21" y="410" type="line" smooth="yes"/>
      <point x="21" y="422"/>
      <point x="36" y="434"/>
      <point x="45" y="434" type="qcurve" smooth="yes"/>
      <point x="250" y="434" type="line" smooth="yes"/>
      <point x="261" y="434"/>
      <point x="274" y="420"/>
      <point x="274" y="410" type="qcurve" smooth="yes"/>
      <point x="274" y="399" type="line" smooth="yes"/>
      <point x="274" y="395"/>
      <point x="273" y="388"/>
      <point x="271" y="384" type="qcurve"/>
      <point x="85" y="55" type="line"/>
      <point x="256" y="55" type="line" smooth="yes"/>
      <point x="265" y="55"/>
      <point x="280" y="43"/>
      <point x="280" y="31" type="qcurve" smooth="yes"/>
      <point x="280" y="24" type="line" smooth="yes"/>
      <point x="280" y="10"/>
      <point x="263" y="0"/>
      <point x="256" y="0" type="qcurve" smooth="yes"/>
    </contour>
  </outline>
</glyph>
<glyph name="bracketleft" format="1">
  <advance width="170"/>
  <unicode hex="005B"/>
  <outline>
    <contour>
      <point x="54" y="-69" type="line" smooth="yes"/>
      <point x="43" y="-69"/>
      <point x="34" y="-53"/>
      <point x="34" y="-44" type="qcurve" smooth="yes"/>
      <point x="34" y="408" type="line" smooth="yes"/>
      <point x="34" y="416"/>
      <point x="43" y="434"/>
      <point x="54" y="434" type="qcurve" smooth="yes"/>
      <point x="113" y="434" type="line" smooth="yes"/>
      <point x="124" y="434"/>
      <point x="133" y="418"/>
      <point x="133" y="409" type="qcurve" smooth="yes"/>
      <point x="133" y="402" type="line" smooth="yes"/>
      <point x="133" y="391"/>
      <point x="121" y="378"/>
      <point x="113" y="378" type="qcurve" smooth="yes"/>
      <point x="79" y="378" type="line"/>
      <point x="79" y="-13" type="line"/>
      <point x="113" y="-13" type="line" smooth="yes"/>
      <point x="124" y="-13"/>
      <point x="133" y="-29"/>
      <point x="133" y="-38" type="qcurve" smooth="yes"/>
      <point x="133" y="-45" type="line" smooth="yes"/>
      <point x="133" y="-56"/>
      <point x="121" y="-69"/>
      <point x="113" y="-69" type="qcurve" smooth="yes"/>
    </contour>
  </outline>
</glyph>
<glyph name="backslash" format="1">
  <advance width="265"/>
  <unicode hex="005C"/>
  <outline>
    <contour>
      <point x="189" y="0" type="line" name="hr00"/>
      <point x="179" y="0"/>
      <point x="168" y="12"/>
      <point x="165" y="18" type="qcurve"/>
      <point x="49" y="401" type="line"/>
      <point x="47" y="408"/>
      <point x="51" y="434"/>
      <point x="68" y="434" type="qcurve"/>
      <point x="76" y="434" type="line"/>
      <point x="93" y="434"/>
      <point x="99" y="415" type="qcurve"/>
      <point x="216" y="32" type="line"/>
      <point x="220" y="21"/>
      <point x="209" y="0"/>
      <point x="195" y="0" type="qcurve"/>
    </contour>
  </outline>
</glyph>
<glyph name="bracketright" format="1">
  <advance width="172"/>
  <unicode hex="005D"/>
  <outline>
    <contour>
      <point x="53" y="-69" type="line" smooth="yes"/>
      <point x="45" y="-69"/>
      <point x="32" y="-57"/>
      <point x="32" y="-45" type="qcurve" smooth="yes"/>
      <point x="32" y="-38" type="line" smooth="yes"/>
      <point x="32" y="-27"/>
      <point x="44" y="-13"/>
      <point x="53" y="-13" type="qcurve" smooth="yes"/>
      <point x="86" y="-13" type="line"/>
      <point x="86" y="378" type="line"/>
      <point x="53" y="378" type="line" smooth="yes"/>
      <point x="45" y="378"/>
      <point x="32" y="390"/>
      <point x="32" y="402" type="qcurve" smooth="yes"/>
      <point x="32" y="409" type="line" smooth="yes"/>
      <point x="32" y="420"/>
      <point x="44" y="434"/>
      <point x="53" y="434" type="qcurve" smooth="yes"/>
      <point x="112" y="434" type="line" smooth="yes"/>
      <point x="124" y="434"/>
      <point x="131" y="413"/>
      <point x="131" y="408" type="qcurve" smooth="yes"/>
      <point x="131" y="-44" type="line" smooth="yes"/>
      <point x="131" y="-51"/>
      <point x="123" y="-69"/>
      <point x="112" y="-69" type="qcurve" smooth="yes"/>
    </contour>
  </outline>
</glyph>
<glyph name="asciicircum" format="1">
  <advance width="286"/>
  <unicode hex="005E"/>
  <outline>
    <contour>
      <point x="226" y="247" type="line" smooth="yes"/>
      <point x="218" y="247"/>
      <point x="208" y="255"/>
      <point x="204" y="258" type="qcurve"/>
      <point x="142" y="369" type="line"/>
      <point x="82" y="258" type="line"/>
      <point x="76.5" y="252.5" name="inserted"/>
      <point x="65.0" y="247.0"/>
      <point x="59" y="247" type="qcurve" smooth="yes"/>
      <point x="54" y="247" type="line" smooth="yes"/>
      <point x="41" y="247"/>
      <point x="28" y="266"/>
      <point x="33" y="279" type="qcurve"/>
      <point x="109" y="419" type="line" smooth="yes"/>
      <point x="114" y="428"/>
      <point x="129" y="434"/>
      <point x="136" y="434" type="qcurve" smooth="yes"/>
      <point x="149" y="434" type="line" smooth="yes"/>
      <point x="155" y="434"/>
      <point x="172" y="429"/>
      <point x="177" y="419" type="qcurve" smooth="yes"/>
      <point x="252" y="279" type="line" smooth="yes"/>
      <point x="259" y="266"/>
      <point x="245" y="247"/>
      <point x="232" y="247" type="qcurve" smooth="yes"/>
    </contour>
  </outline>
</glyph>
<glyph name="underscore" format="1">
  <advance width="251"/>
  <unicode hex="005F"/>
  <outline>
    <contour>
      <point x="43" y="-75" type="line" smooth="yes"/>
      <point x="33" y="-75"/>
      <point x="20" y="-68"/>
      <point x="20" y="-65" type="qcurve" smooth="yes"/>
      <point x="20" y="-46" type="line" smooth="yes"/>
      <point x="20" y="-42"/>
      <point x="35" y="-36"/>
      <point x="43" y="-36" type="qcurve" smooth="yes"/>
      <point x="208" y="-36" type="line" smooth="yes"/>
      <point x="216" y="-36"/>
      <point x="231" y="-42"/>
      <point x="231" y="-46" type="qcurve" smooth="yes"/>
      <point x="231" y="-65" type="line" smooth="yes"/>
      <point x="231" y="-68"/>
      <point x="218" y="-75"/>
      <point x="208" y="-75" type="qcurve" smooth="yes"/>
    </contour>
  </outline>
</glyph>
<glyph name="grave" format="1">
  <advance width="176"/>
  <unicode hex="0060"/>
  <outline>
    <contour>
      <point x="108" y="387" type="line" name="hr00"/>
      <point x="102" y="387"/>
      <point x="92" y="393"/>
      <point x="90" y="397" type="qcurve"/>
      <point x="52" y="445" type="line"/>
      <point x="43" y="456"/>
      <point x="56" y="474"/>
      <point x="65" y="474" type="qcurve"/>
      <point x="77" y="474" type="line"/>
      <point x="91" y="474"/>
      <point x="97" y="463" type="qcurve"/>
      <point x="126" y="414" type="line"/>
      <point x="131" y="406"/>
      <point x="124" y="387"/>
      <point x="111" y="387" type="qcurve"/>
    </contour>
  </outline>
</glyph>
<glyph name="a" format="1">
  <advance width="299"/>
  <unicode hex="0061"/>
  <outline>
    <contour>
      <point x="231" y="0" type="line" smooth="yes"/>
      <point x="224.0" y="0.0" name="inserted"/>
      <point x="214.5" y="5.5"/>
      <point x="212" y="11" type="qcurve"/>
      <point x="200.0" y="5.5" name="inserted"/>
      <point x="176.0" y="0.0"/>
      <point x="164" y="0" type="qcurve" smooth="yes"/>
      <point x="122" y="0" type="line" smooth="yes"/>
      <point x="77" y="0"/>
      <point x="27" y="55"/>
      <point x="27" y="101" type="qcurve" smooth="yes"/>
      <point x="27" y="243" type="line" smooth="yes"/>
      <point x="27" y="289"/>
      <point x="77" y="344"/>
      <point x="122" y="344" type="qcurve" smooth="yes"/>
      <point x="239" y="344" type="line" smooth="yes"/>
      <point x="250" y="344"/>
      <point x="262" y="330"/>
      <point x="262" y="320" type="qcurve" smooth="yes"/>
      <point x="262" y="24" type="line" smooth="yes"/>
      <point x="262" y="14"/>
      <point x="250" y="0"/>
      <point x="239" y="0" type="qcurve" smooth="yes"/>
    </contour>
    <contour>
      <point x="210" y="254" type="qcurve" smooth="yes"/>
      <point x="210.0" y="259.0" name="inserted"/>
      <point x="209.5" y="264.5"/>
      <point x="209" y="265" type="qcurve"/>
      <point x="209" y="272" type="line"/>
      <point x="210" y="277"/>
      <point x="205" y="289"/>
      <point x="191" y="290" type="qcurve"/>
      <point x="189.5" y="290.5" name="inserted"/>
      <point x="186.5" y="291.0"/>
      <point x="185" y="291" type="qcurve" smooth="yes"/>
      <point x="183.0" y="291.0" name="inserted"/>
      <point x="180.5" y="290.5"/>
      <point x="180" y="290" type="qcurve"/>
      <point x="175" y="290"/>
      <point x="151" y="289"/>
      <point x="122" y="290" type="qcurve" smooth="yes"/>
      <point x="101.0" y="290.0" name="inserted"/>
      <point x="80.0" y="266.5"/>
      <point x="80" y="243" type="qcurve" smooth="yes"/>
      <point x="80" y="102" type="line" smooth="yes"/>
      <point x="80.0" y="78.0" name="inserted"/>
      <point x="101.0" y="54.0"/>
      <point x="122" y="54" type="qcurve" smooth="yes"/>
      <point x="163" y="54" type="line" smooth="yes"/>
      <point x="186.0" y="54.0" name="inserted"/>
      <point x="209.0" y="76.0"/>
      <point x="209" y="98" type="qcurve" smooth="yes"/>
      <point x="209" y="173"/>
      <point x="210" y="241"/>
    </contour>
  </outline>
</glyph>
<glyph name="b" format="1">
  <advance width="307"/>
  <unicode hex="0062"/>
  <outline>
    <contour>
      <point x="56" y="0" type="line" smooth="yes"/>
      <point x="45" y="0"/>
      <point x="34" y="17"/>
      <point x="34" y="25" type="qcurve" smooth="yes"/>
      <point x="34" y="449" type="line" smooth="yes"/>
      <point x="34" y="457"/>
      <point x="45" y="474"/>
      <point x="56" y="474" type="qcurve" smooth="yes"/>
      <point x="64" y="474" type="line" smooth="yes"/>
      <point x="75.5" y="474.0" name="inserted"/>
      <point x="87.0" y="461.5"/>
      <point x="87" y="449" type="qcurve" smooth="yes"/>
      <point x="87" y="351" type="line"/>
      <point x="96.5" y="356.0" name="inserted"/>
      <point x="119.0" y="361.0"/>
      <point x="132" y="361" type="qcurve" smooth="yes"/>
      <point x="174" y="361" type="line" smooth="yes"/>
      <point x="217" y="361"/>
      <point x="269" y="303"/>
      <point x="269" y="257" type="qcurve" smooth="yes"/>
      <point x="269" y="104" type="line" smooth="yes"/>
      <point x="269" y="56"/>
      <point x="217" y="0"/>
      <point x="174" y="0" type="qcurve" smooth="yes"/>
    </contour>
    <contour>
      <point x="215" y="256" type="line" smooth="yes"/>
      <point x="215.0" y="280.5" name="inserted"/>
      <point x="194.5" y="305.0"/>
      <point x="174" y="305" type="qcurve" smooth="yes"/>
      <point x="132" y="305" type="line" smooth="yes"/>
      <point x="109.5" y="305.0" name="inserted"/>
      <point x="87.0" y="282.5"/>
      <point x="87" y="260" type="qcurve" smooth="yes"/>
      <point x="87" y="56" type="line"/>
      <point x="174" y="56" type="line" smooth="yes"/>
      <point x="195" y="56"/>
      <point x="215" y="79"/>
      <point x="215" y="105" type="qcurve" smooth="yes"/>
    </contour>
  </outline>
</glyph>
<glyph name="c" format="1">
  <advance width="263"/>
  <unicode hex="0063"/>
  <outline>
    <contour>
      <point x="139" y="0" type="line"/>
      <point x="97" y="0"/>
      <point x="47" y="55"/>
      <point x="47" y="101" type="qcurve"/>
      <point x="47" y="243" type="line"/>
      <point x="47" y="289"/>
      <point x="97" y="344"/>
      <point x="139" y="344" type="qcurve"/>
      <point x="216" y="344" type="line"/>
      <point x="227" y="344"/>
      <point x="239" y="330"/>
      <point x="239" y="320" type="qcurve" name="hr01"/>
      <point x="239" y="313" type="line"/>
      <point x="239" y="302"/>
      <point x="224" y="290"/>
      <point x="216" y="290" type="qcurve"/>
      <point x="139" y="290" type="line"/>
      <point x="99" y="290"/>
      <point x="99" y="243" type="qcurve" name="hr02"/>
      <point x="99" y="102" type="line"/>
      <point x="99" y="76"/>
      <point x="119" y="54"/>
      <point x="139" y="54" type="qcurve"/>
      <point x="216" y="54" type="line"/>
      <point x="227" y="54"/>
      <point x="239" y="40"/>
      <point x="239" y="30" type="qcurve"/>
      <point x="239" y="23" type="line"/>
      <point x="239" y="12"/>
      <point x="224" y="0"/>
      <point x="216" y="0" type="qcurve"/>
    </contour>
  </outline>
</glyph>
<glyph name="d" format="1">
  <advance width="306"/>
  <unicode hex="0064"/>
  <outline>
    <contour>
      <point x="231" y="0" type="line" smooth="yes"/>
      <point x="223.5" y="0.0" name="inserted"/>
      <point x="214.0" y="6.0"/>
      <point x="212" y="12" type="qcurve"/>
      <point x="201.5" y="6.0" name="inserted"/>
      <point x="177.5" y="0.0"/>
      <point x="164" y="0" type="qcurve" smooth="yes"/>
      <point x="122" y="0" type="line" smooth="yes"/>
      <point x="77" y="0"/>
      <point x="27" y="56"/>
      <point x="27" y="104" type="qcurve" smooth="yes"/>
      <point x="27" y="251" type="line" smooth="yes"/>
      <point x="27" y="299"/>
      <point x="77" y="354"/>
      <point x="122" y="354" type="qcurve" smooth="yes"/>
      <point x="164" y="354" type="line" smooth="yes"/>
      <point x="177.0" y="354.0" name="inserted"/>
      <point x="199.5" y="349.0"/>
      <point x="209" y="344" type="qcurve"/>
      <point x="209" y="449" type="line" smooth="yes"/>
      <point x="209" y="457"/>
      <point x="219" y="474"/>
      <point x="231" y="474" type="qcurve" smooth="yes"/>
      <point x="239" y="474" type="line" smooth="yes"/>
      <point x="250.5" y="474.0" name="inserted"/>
      <point x="262.0" y="461.5"/>
      <point x="262" y="449" type="qcurve" smooth="yes"/>
      <point x="262" y="25" type="line" smooth="yes"/>
      <point x="262.0" y="12.5" name="inserted"/>
      <point x="250.5" y="0.0"/>
      <point x="239" y="0" type="qcurve" smooth="yes"/>
    </contour>
    <contour>
      <point x="209" y="254" type="line" smooth="yes"/>
      <point x="209.0" y="276.5" name="inserted"/>
      <point x="186.0" y="299.0"/>
      <point x="163" y="299" type="qcurve" smooth="yes"/>
      <point x="122" y="299" type="line" smooth="yes"/>
      <point x="101.0" y="299.0" name="inserted"/>
      <point x="80.0" y="275.0"/>
      <point x="80" y="251" type="qcurve" smooth="yes"/>
      <point x="80" y="105" type="line" smooth="yes"/>
      <point x="80" y="79"/>
      <point x="101" y="56"/>
      <point x="122" y="56" type="qcurve" smooth="yes"/>
      <point x="163" y="56" type="line" smooth="yes"/>
      <point x="186.0" y="56.0" name="inserted"/>
      <point x="209.0" y="78.5"/>
      <point x="209" y="101" type="qcurve" smooth="yes"/>
    </contour>
  </outline>
</glyph>
<glyph name="e" format="1">
  <advance width="300"/>
  <unicode hex="0065"/>
  <outline>
    <contour>
      <point x="80" y="143" type="line"/>
      <point x="80" y="102" type="line" smooth="yes"/>
      <point x="80.0" y="78.0" name="inserted"/>
      <point x="101.0" y="54.0"/>
      <point x="122" y="54" type="qcurve" smooth="yes"/>
      <point x="240" y="54" type="line" smooth="yes"/>
      <point x="250" y="54"/>
      <point x="263" y="41"/>
      <point x="263" y="30" type="qcurve" smooth="yes"/>
      <point x="263" y="23" type="line" smooth="yes"/>
      <point x="263" y="12"/>
      <point x="248" y="0"/>
      <point x="240" y="0" type="qcurve" smooth="yes"/>
      <point x="122" y="0" type="line" smooth="yes"/>
      <point x="77" y="0"/>
      <point x="27" y="55"/>
      <point x="27" y="101" type="qcurve" smooth="yes"/>
      <point x="27" y="243" type="line" smooth="yes"/>
      <point x="27" y="289"/>
      <point x="77" y="344"/>
      <point x="122" y="344" type="qcurve" smooth="yes"/>
      <point x="172" y="344" type="line" smooth="yes"/>
      <point x="217" y="344"/>
      <point x="267" y="289"/>
      <point x="267" y="243" type="qcurve" smooth="yes"/>
      <point x="267" y="167" type="line" smooth="yes"/>
      <point x="267" y="159"/>
      <point x="256" y="143"/>
      <point x="245" y="143" type="qcurve" smooth="yes"/>
    </contour>
    <contour>
      <point x="122" y="290" type="line" smooth="yes"/>
      <point x="101.0" y="290.0" name="inserted"/>
      <point x="80.0" y="266.5"/>
      <point x="80" y="243" type="qcurve" smooth="yes"/>
      <point x="80" y="197" type="line"/>
      <point x="214" y="197" type="line"/>
      <point x="214" y="243" type="line" smooth="yes"/>
      <point x="214.0" y="266.5" name="inserted"/>
      <point x="193.0" y="290.0"/>
      <point x="172" y="290" type="qcurve" smooth="yes"/>
    </contour>
  </outline>
</glyph>
<glyph name="f" format="1">
  <advance width="195"/>
  <unicode hex="0066"/>
  <outline>
    <contour>
      <point x="121" y="299" type="line"/>
      <point x="121" y="25" type="line"/>
      <point x="121" y="17"/>
      <point x="111" y="0"/>
      <point x="100" y="0" type="qcurve"/>
      <point x="93" y="0" type="line"/>
      <point x="81" y="0"/>
      <point x="72" y="17"/>
      <point x="72" y="25" type="qcurve" name="hr01"/>
      <point x="72" y="299" type="line"/>
      <point x="48" y="299" type="line"/>
      <point x="40" y="299"/>
      <point x="26" y="312"/>
      <point x="26" y="323" type="qcurve"/>
      <point x="26" y="330" type="line" name="hr02"/>
      <point x="26" y="340"/>
      <point x="37" y="354"/>
      <point x="48" y="354" type="qcurve"/>
      <point x="72" y="354" type="line"/>
      <point x="72" y="372" type="line"/>
      <point x="72" y="420"/>
      <point x="110" y="474"/>
      <point x="150" y="474" type="qcurve"/>
      <point x="158" y="474" type="line" name="hr03"/>
      <point x="166" y="474"/>
      <point x="180" y="461"/>
      <point x="180" y="450" type="qcurve"/>
      <point x="180" y="443" type="line"/>
      <point x="180" y="433"/>
      <point x="169" y="418"/>
      <point x="158" y="418" type="qcurve"/>
      <point x="150" y="418" type="line"/>
      <point x="135" y="418"/>
      <point x="121" y="400"/>
      <point x="121" y="371" type="qcurve"/>
      <point x="121" y="354" type="line"/>
      <point x="158" y="354" type="line"/>
      <point x="169" y="354"/>
      <point x="180" y="340"/>
      <point x="180" y="330" type="qcurve"/>
      <point x="180" y="323" type="line"/>
      <point x="180" y="312"/>
      <point x="166" y="299"/>
      <point x="158" y="299" type="qcurve"/>
    </contour>
  </outline>
</glyph>
<glyph name="g" format="1">
  <advance width="339"/>
  <unicode hex="0067"/>
  <outline>
    <contour>
      <point x="88" y="-90" type="line" name="hr00"/>
      <point x="80" y="-90"/>
      <point x="65" y="-78"/>
      <point x="65" y="-66" type="qcurve"/>
      <point x="65" y="-59" type="line"/>
      <point x="65" y="-49"/>
      <point x="77" y="-35"/>
      <point x="88" y="-35" type="qcurve"/>
      <point x="191" y="-35" type="line"/>
      <point x="232" y="-35"/>
      <point x="232" y="14" type="qcurve"/>
      <point x="232" y="20" type="line"/>
      <point x="213" y="10"/>
      <point x="187" y="10" type="qcurve"/>
      <point x="145" y="10" type="line"/>
      <point x="102" y="10"/>
      <point x="50" y="65"/>
      <point x="50" y="113" type="qcurve"/>
      <point x="50" y="241" type="line"/>
      <point x="50" y="289"/>
      <point x="102" y="344"/>
      <point x="145" y="344" type="qcurve"/>
      <point x="263" y="344" type="line"/>
      <point x="274" y="344"/>
      <point x="285" y="328"/>
      <point x="285" y="320" type="qcurve"/>
      <point x="285" y="13" type="line"/>
      <point x="285" y="-35"/>
      <point x="234" y="-90"/>
      <point x="191" y="-90" type="qcurve"/>
    </contour>
    <contour>
      <point x="143" y="288" type="line"/>
      <point x="122" y="288"/>
      <point x="104" y="266"/>
      <point x="104" y="241" type="qcurve"/>
      <point x="104" y="113" type="line"/>
      <point x="104" y="66"/>
      <point x="145" y="66" type="qcurve"/>
      <point x="187" y="66" type="line"/>
      <point x="232" y="66"/>
      <point x="232" y="111" type="qcurve"/>
      <point x="234" y="289" type="line"/>
    </contour>
  </outline>
</glyph>
<glyph name="h" format="1">
  <advance width="306"/>
  <unicode hex="0068"/>
  <outline>
    <contour>
      <point x="238" y="0" type="line" smooth="yes"/>
      <point x="226.5" y="0.0" name="inserted"/>
      <point x="215.0" y="12.5"/>
      <point x="215" y="25" type="qcurve" smooth="yes"/>
      <point x="215" y="251" type="line" smooth="yes"/>
      <point x="215.0" y="275.0" name="inserted"/>
      <point x="194.5" y="299.0"/>
      <point x="174" y="299" type="qcurve" smooth="yes"/>
      <point x="132" y="299" type="line" smooth="yes"/>
      <point x="109.5" y="299.0" name="inserted"/>
      <point x="87.0" y="276.5"/>
      <point x="87" y="254" type="qcurve" smooth="yes"/>
      <point x="87" y="25" type="line" smooth="yes"/>
      <point x="87.0" y="12.5" name="inserted"/>
      <point x="75.5" y="0.0"/>
      <point x="64" y="0" type="qcurve" smooth="yes"/>
      <point x="56" y="0" type="line" smooth="yes"/>
      <point x="45" y="0"/>
      <point x="34" y="17"/>
      <point x="34" y="25" type="qcurve" smooth="yes"/>
      <point x="34" y="449" type="line" smooth="yes"/>
      <point x="34" y="457"/>
      <point x="45" y="474"/>
      <point x="56" y="474" type="qcurve" smooth="yes"/>
      <point x="64" y="474" type="line" smooth="yes"/>
      <point x="75.5" y="474.0" name="inserted"/>
      <point x="87.0" y="461.5"/>
      <point x="87" y="449" type="qcurve" smooth="yes"/>
      <point x="87" y="345" type="line"/>
      <point x="96.5" y="349.5" name="inserted"/>
      <point x="119.0" y="354.0"/>
      <point x="132" y="354" type="qcurve" smooth="yes"/>
      <point x="174" y="354" type="line" smooth="yes"/>
      <point x="217" y="354"/>
      <point x="269" y="299"/>
      <point x="269" y="251" type="qcurve" smooth="yes"/>
      <point x="269" y="25" type="line" smooth="yes"/>
      <point x="269.0" y="12.5" name="inserted"/>
      <point x="257.5" y="0.0"/>
      <point x="246" y="0" type="qcurve" smooth="yes"/>
    </contour>
  </outline>
</glyph>
<glyph name="i" format="1">
  <advance width="135"/>
  <unicode hex="0069"/>
  <outline>
    <contour>
      <point x="50" y="373" type="line" name="hr00"/>
      <point x="46" y="373"/>
      <point x="40" y="389"/>
      <point x="40" y="398" type="qcurve"/>
      <point x="40" y="448" type="line"/>
      <point x="40" y="457"/>
      <point x="46" y="473"/>
      <point x="50" y="473" type="qcurve"/>
      <point x="83" y="473" type="line"/>
      <point x="87" y="473"/>
      <point x="93" y="457"/>
      <point x="93" y="448" type="qcurve"/>
      <point x="93" y="398" type="line"/>
      <point x="93" y="389"/>
      <point x="87" y="373"/>
      <point x="83" y="373" type="qcurve"/>
    </contour>
    <contour>
      <point x="50" y="0" type="line"/>
      <point x="46" y="0"/>
      <point x="40" y="16"/>
      <point x="40" y="25" type="qcurve"/>
      <point x="40" y="330" type="line"/>
      <point x="40" y="339"/>
      <point x="46" y="354"/>
      <point x="50" y="354" type="qcurve"/>
      <point x="83" y="354" type="line"/>
      <point x="87" y="354"/>
      <point x="93" y="339"/>
      <point x="93" y="330" type="qcurve"/>
      <point x="93" y="25" type="line"/>
      <point x="93" y="16"/>
      <point x="87" y="0"/>
      <point x="83" y="0" type="qcurve"/>
    </contour>
  </outline>
</glyph>
<glyph name="j" format="1">
  <advance width="135"/>
  <unicode hex="006A"/>
  <outline>
    <contour>
      <point x="51" y="361" type="line" name="hr00"/>
      <point x="40" y="361"/>
      <point x="31" y="379"/>
      <point x="31" y="386" type="qcurve"/>
      <point x="31" y="448" type="line"/>
      <point x="31" y="455"/>
      <point x="40" y="473"/>
      <point x="51" y="473" type="qcurve"/>
      <point x="64" y="473" type="line"/>
      <point x="75" y="473"/>
      <point x="84" y="455"/>
      <point x="84" y="448" type="qcurve"/>
      <point x="84" y="386" type="line"/>
      <point x="84" y="379"/>
      <point x="75" y="361"/>
      <point x="64" y="361" type="qcurve"/>
    </contour>
    <contour>
      <point x="-12" y="-90" type="line"/>
      <point x="-20" y="-90"/>
      <point x="-32" y="-77"/>
      <point x="-32" y="-66" type="qcurve"/>
      <point x="-32" y="-59" type="line"/>
      <point x="-32" y="-50"/>
      <point x="-22" y="-34"/>
      <point x="-12" y="-34" type="qcurve"/>
      <point x="-2" y="-34" type="line"/>
      <point x="14" y="-34"/>
      <point x="31" y="-12"/>
      <point x="31" y="16" type="qcurve"/>
      <point x="31" y="328" type="line"/>
      <point x="31" y="335"/>
      <point x="40" y="353"/>
      <point x="51" y="353" type="qcurve"/>
      <point x="64" y="353" type="line"/>
      <point x="75" y="353"/>
      <point x="84" y="335"/>
      <point x="84" y="328" type="qcurve"/>
      <point x="84" y="15" type="line"/>
      <point x="84" y="-31"/>
      <point x="42" y="-90"/>
      <point x="-2" y="-90" type="qcurve"/>
    </contour>
  </outline>
</glyph>
<glyph name="k" format="1">
  <advance width="270"/>
  <unicode hex="006B"/>
  <outline>
    <contour>
      <point x="225" y="0" type="line" smooth="yes"/>
      <point x="218" y="0"/>
      <point x="204" y="6"/>
      <point x="199" y="14" type="qcurve" smooth="yes"/>
      <point x="101" y="168" type="line"/>
      <point x="95.0" y="175.5" name="inserted"/>
      <point x="95.0" y="190.5"/>
      <point x="101" y="198" type="qcurve"/>
      <point x="188" y="340" type="line" smooth="yes"/>
      <point x="193" y="349"/>
      <point x="209" y="354"/>
      <point x="214" y="354" type="qcurve" smooth="yes"/>
      <point x="221" y="354" type="line" smooth="yes"/>
      <point x="238" y="354"/>
      <point x="245" y="328"/>
      <point x="239" y="320" type="qcurve"/>
      <point x="155" y="183" type="line"/>
      <point x="251" y="35" type="line" smooth="yes"/>
      <point x="258" y="25"/>
      <point x="250" y="0"/>
      <point x="234" y="0" type="qcurve" smooth="yes"/>
    </contour>
    <contour>
      <point x="56" y="0" type="line" smooth="yes"/>
      <point x="44" y="0"/>
      <point x="34" y="17"/>
      <point x="34" y="25" type="qcurve" smooth="yes"/>
      <point x="34" y="449" type="line" smooth="yes"/>
      <point x="34" y="457"/>
      <point x="44" y="474"/>
      <point x="56" y="474" type="qcurve" smooth="yes"/>
      <point x="64" y="474" type="line" smooth="yes"/>
      <point x="75.5" y="474.0" name="inserted"/>
      <point x="87.0" y="461.5"/>
      <point x="87" y="449" type="qcurve" smooth="yes"/>
      <point x="87" y="25" type="line" smooth="yes"/>
      <point x="87.0" y="12.5" name="inserted"/>
      <point x="75.5" y="0.0"/>
      <point x="64" y="0" type="qcurve" smooth="yes"/>
    </contour>
  </outline>
</glyph>
<glyph name="l" format="1">
  <advance width="135"/>
  <unicode hex="006C"/>
  <outline>
    <contour>
      <point x="64" y="0" type="line" name="hr00"/>
      <point x="52" y="0"/>
      <point x="42" y="17"/>
      <point x="42" y="25" type="qcurve"/>
      <point x="42" y="449" type="line"/>
      <point x="42" y="457"/>
      <point x="52" y="474"/>
      <point x="64" y="474" type="qcurve"/>
      <point x="72" y="474" type="line"/>
      <point x="95" y="474"/>
      <point x="95" y="449" type="qcurve"/>
      <point x="95" y="25" type="line"/>
      <point x="95" y="0"/>
      <point x="72" y="0" type="qcurve"/>
    </contour>
  </outline>
</glyph>
<glyph name="m" format="1">
  <advance width="514"/>
  <unicode hex="006D"/>
  <outline>
    <contour>
      <point x="431" y="0" type="line" name="hr00"/>
      <point x="419" y="0"/>
      <point x="407" y="16"/>
      <point x="407" y="24" type="qcurve"/>
      <point x="407" y="243" type="line"/>
      <point x="407" y="290"/>
      <point x="362" y="290" type="qcurve"/>
      <point x="338" y="290" type="line"/>
      <point x="312" y="290"/>
      <point x="286" y="265"/>
      <point x="286" y="243" type="qcurve"/>
      <point x="286" y="24" type="line"/>
      <point x="286" y="16"/>
      <point x="274" y="0"/>
      <point x="263" y="0" type="qcurve"/>
      <point x="254" y="0" type="line"/>
      <point x="244" y="0"/>
      <point x="230" y="13"/>
      <point x="230" y="24" type="qcurve"/>
      <point x="230" y="243" type="line"/>
      <point x="230" y="290"/>
      <point x="185" y="290" type="qcurve"/>
      <point x="159" y="290" type="line"/>
      <point x="110" y="290"/>
      <point x="110" y="246" type="qcurve"/>
      <point x="110" y="24" type="line"/>
      <point x="110" y="0"/>
      <point x="86" y="0" type="qcurve"/>
      <point x="77" y="0" type="line"/>
      <point x="66" y="0"/>
      <point x="54" y="16"/>
      <point x="54" y="24" type="qcurve"/>
      <point x="54" y="320" type="line"/>
      <point x="54" y="328"/>
      <point x="66" y="344"/>
      <point x="77" y="344" type="qcurve"/>
      <point x="86" y="344" type="line"/>
      <point x="99" y="344"/>
      <point x="107" y="333" type="qcurve"/>
      <point x="131" y="344"/>
      <point x="158" y="344" type="qcurve"/>
      <point x="185" y="344" type="line"/>
      <point x="233" y="344"/>
      <point x="260" y="316" type="qcurve"/>
      <point x="276" y="331"/>
      <point x="318" y="344"/>
      <point x="338" y="344" type="qcurve"/>
      <point x="362" y="344" type="line"/>
      <point x="408" y="344"/>
      <point x="463" y="289"/>
      <point x="463" y="243" type="qcurve"/>
      <point x="463" y="24" type="line"/>
      <point x="463" y="0"/>
      <point x="439" y="0" type="qcurve"/>
    </contour>
  </outline>
</glyph>
<glyph name="n" format="1">
  <advance width="339"/>
  <unicode hex="006E"/>
  <outline>
    <contour>
      <point x="258" y="0" type="line" name="hr00"/>
      <point x="247" y="0"/>
      <point x="235" y="14"/>
      <point x="235" y="24" type="qcurve"/>
      <point x="235" y="243" type="line"/>
      <point x="235" y="290"/>
      <point x="194" y="290" type="qcurve"/>
      <point x="152" y="290" type="line"/>
      <point x="107" y="290"/>
      <point x="107" y="246" type="qcurve"/>
      <point x="107" y="24" type="line"/>
      <point x="107" y="14"/>
      <point x="95" y="0"/>
      <point x="84" y="0" type="qcurve"/>
      <point x="76" y="0" type="line"/>
      <point x="65" y="0"/>
      <point x="54" y="16"/>
      <point x="54" y="24" type="qcurve"/>
      <point x="54" y="320" type="line"/>
      <point x="54" y="328"/>
      <point x="65" y="344"/>
      <point x="76" y="344" type="qcurve"/>
      <point x="84" y="344" type="line"/>
      <point x="98" y="344"/>
      <point x="104" y="333" type="qcurve"/>
      <point x="122" y="344"/>
      <point x="152" y="344" type="qcurve"/>
      <point x="194" y="344" type="line"/>
      <point x="237" y="344"/>
      <point x="289" y="289"/>
      <point x="289" y="243" type="qcurve"/>
      <point x="289" y="24" type="line"/>
      <point x="289" y="14"/>
      <point x="277" y="0"/>
      <point x="266" y="0" type="qcurve"/>
    </contour>
  </outline>
</glyph>
<glyph name="o" format="1">
  <advance width="302"/>
  <unicode hex="006F"/>
  <outline>
    <contour>
      <point x="122" y="0" type="line" smooth="yes"/>
      <point x="77" y="0"/>
      <point x="27" y="55"/>
      <point x="27" y="101" type="qcurve" smooth="yes"/>
      <point x="27" y="243" type="line" smooth="yes"/>
      <point x="27" y="289"/>
      <point x="77" y="344"/>
      <point x="122" y="344" type="qcurve" smooth="yes"/>
      <point x="171" y="344" type="line" smooth="yes"/>
      <point x="214" y="344"/>
      <point x="265" y="289"/>
      <point x="265" y="243" type="qcurve" smooth="yes"/>
      <point x="265" y="101" type="line" smooth="yes"/>
      <point x="265" y="55"/>
      <point x="214" y="0"/>
      <point x="171" y="0" type="qcurve" smooth="yes"/>
    </contour>
    <contour>
      <point x="212" y="243" type="line" smooth="yes"/>
      <point x="212.0" y="266.5" name="inserted"/>
      <point x="191.5" y="290.0"/>
      <point x="171" y="290" type="qcurve" smooth="yes"/>
      <point x="122" y="290" type="line" smooth="yes"/>
      <point x="101.0" y="290.0" name="inserted"/>
      <point x="80.0" y="266.5"/>
      <point x="80" y="243" type="qcurve" smooth="yes"/>
      <point x="80" y="102" type="line" smooth="yes"/>
      <point x="80.0" y="78.0" name="inserted"/>
      <point x="101.0" y="54.0"/>
      <point x="122" y="54" type="qcurve" smooth="yes"/>
      <point x="171" y="54" type="line" smooth="yes"/>
      <point x="191.5" y="54.0" name="inserted"/>
      <point x="212.0" y="78.0"/>
      <point x="212" y="102" type="qcurve" smooth="yes"/>
    </contour>
  </outline>
</glyph>
<glyph name="p" format="1">
  <advance width="314"/>
  <unicode hex="0070"/>
  <outline>
    <contour>
      <point x="140" y="-9" type="line" smooth="yes"/>
      <point x="127.0" y="-9.0" name="inserted"/>
      <point x="104.5" y="-4.0"/>
      <point x="95" y="1" type="qcurve"/>
      <point x="95" y="-79" type="line" smooth="yes"/>
      <point x="95" y="-87"/>
      <point x="84" y="-104"/>
      <point x="72" y="-104" type="qcurve" smooth="yes"/>
      <point x="64" y="-104" type="line" smooth="yes"/>
      <point x="51" y="-104"/>
      <point x="42" y="-85"/>
      <point x="42" y="-79" type="qcurve" smooth="yes"/>
      <point x="42" y="320" type="line" smooth="yes"/>
      <point x="42" y="328"/>
      <point x="53" y="344"/>
      <point x="64" y="344" type="qcurve" smooth="yes"/>
      <point x="72" y="344" type="line" smooth="yes"/>
      <point x="79.0" y="344.0" name="inserted"/>
      <point x="89.0" y="338.5"/>
      <point x="92" y="333" type="qcurve"/>
      <point x="102.0" y="338.5" name="inserted"/>
      <point x="126.0" y="344.0"/>
      <point x="140" y="344" type="qcurve" smooth="yes"/>
      <point x="182" y="344" type="line" smooth="yes"/>
      <point x="225" y="344"/>
      <point x="277" y="289"/>
      <point x="277" y="241" type="qcurve" smooth="yes"/>
      <point x="277" y="94" type="line" smooth="yes"/>
      <point x="277" y="46"/>
      <point x="225" y="-9"/>
      <point x="182" y="-9" type="qcurve" smooth="yes"/>
    </contour>
    <contour>
      <point x="223" y="241" type="line" smooth="yes"/>
      <point x="223.0" y="265.0" name="inserted"/>
      <point x="202.5" y="289.0"/>
      <point x="182" y="289" type="qcurve" smooth="yes"/>
      <point x="140" y="289" type="line" smooth="yes"/>
      <point x="117.5" y="289.0" name="inserted"/>
      <point x="95.0" y="266.5"/>
      <point x="95" y="244" type="qcurve" smooth="yes"/>
      <point x="95" y="92" type="line" smooth="yes"/>
      <point x="95.0" y="69.5" name="inserted"/>
      <point x="117.5" y="47.0"/>
      <point x="140" y="47" type="qcurve" smooth="yes"/>
      <point x="182" y="47" type="line" smooth="yes"/>
      <point x="203" y="47"/>
      <point x="223" y="69"/>
      <point x="223" y="95" type="qcurve" smooth="yes"/>
    </contour>
  </outline>
</glyph>
<glyph name="q" format="1">
  <advance width="336"/>
  <unicode hex="0071"/>
  <outline>
    <contour>
      <point x="251" y="-104" type="line" name="hr00"/>
      <point x="238" y="-104"/>
      <point x="229" y="-85"/>
      <point x="229" y="-79" type="qcurve"/>
      <point x="229" y="1" type="line"/>
      <point x="218" y="-5"/>
      <point x="206" y="-8" type="qcurve"/>
      <point x="200" y="-9"/>
      <point x="187" y="-9"/>
      <point x="181" y="-9" type="qcurve"/>
      <point x="142" y="-9" type="line"/>
      <point x="97" y="-9"/>
      <point x="47" y="46"/>
      <point x="47" y="94" type="qcurve"/>
      <point x="47" y="241" type="line"/>
      <point x="47" y="289"/>
      <point x="97" y="344"/>
      <point x="142" y="344" type="qcurve"/>
      <point x="259" y="344" type="line"/>
      <point x="270" y="344"/>
      <point x="282" y="330"/>
      <point x="282" y="320" type="qcurve"/>
      <point x="282" y="-79" type="line"/>
      <point x="282" y="-87"/>
      <point x="271" y="-104"/>
      <point x="259" y="-104" type="qcurve"/>
    </contour>
    <contour>
      <point x="142" y="287" type="line"/>
      <point x="100" y="287"/>
      <point x="100" y="241" type="qcurve"/>
      <point x="100" y="95" type="line"/>
      <point x="100" y="69"/>
      <point x="121" y="47"/>
      <point x="142" y="47" type="qcurve"/>
      <point x="181" y="47" type="line"/>
      <point x="229" y="47"/>
      <point x="229" y="95" type="qcurve"/>
      <point x="230" y="254" type="line"/>
      <point x="230" y="270" type="line"/>
      <point x="230" y="278" type="line"/>
      <point x="225" y="289"/>
      <point x="213" y="287" type="qcurve"/>
    </contour>
  </outline>
</glyph>
<glyph name="r" format="1">
  <advance width="176"/>
  <unicode hex="0072"/>
  <outline>
    <contour>
      <point x="111" y="290" type="line" smooth="yes"/>
      <point x="94" y="290"/>
      <point x="71" y="263"/>
      <point x="71" y="237" type="qcurve" smooth="yes"/>
      <point x="71" y="24" type="line" smooth="yes"/>
      <point x="71" y="15"/>
      <point x="61" y="0"/>
      <point x="50" y="0" type="qcurve" smooth="yes"/>
      <point x="43" y="0" type="line" smooth="yes"/>
      <point x="32" y="0"/>
      <point x="23" y="17"/>
      <point x="23" y="24" type="qcurve" smooth="yes"/>
      <point x="23" y="320" type="line" smooth="yes"/>
      <point x="23" y="327"/>
      <point x="32" y="344"/>
      <point x="43" y="344" type="qcurve" smooth="yes"/>
      <point x="50" y="344" type="line" smooth="yes"/>
      <point x="57.0" y="344.0" name="inserted"/>
      <point x="66.5" y="338.0"/>
      <point x="69" y="332" type="qcurve"/>
      <point x="77" y="337"/>
      <point x="98" y="344"/>
      <point x="112" y="344" type="qcurve" smooth="yes"/>
      <point x="132" y="344" type="line" smooth="yes"/>
      <point x="142" y="344"/>
      <point x="153" y="329"/>
      <point x="153" y="320" type="qcurve" smooth="yes"/>
      <point x="153" y="313" type="line" smooth="yes"/>
      <point x="153" y="302"/>
      <point x="140" y="290"/>
      <point x="132" y="290" type="qcurve" smooth="yes"/>
    </contour>
  </outline>
</glyph>
<glyph name="s" format="1">
  <advance width="290"/>
  <unicode hex="0073"/>
  <outline>
    <contour>
      <point x="62" y="0" type="line"/>
      <point x="54" y="0"/>
      <point x="39" y="12"/>
      <point x="39" y="23" type="qcurve"/>
      <point x="39" y="30" type="line"/>
      <point x="39" y="41"/>
      <point x="52" y="54"/>
      <point x="62" y="54" type="qcurve"/>
      <point x="157" y="54" type="line"/>
      <point x="181" y="54"/>
      <point x="197" y="70"/>
      <point x="197" y="84" type="qcurve"/>
      <point x="197" y="102" type="line"/>
      <point x="197" y="120"/>
      <point x="187" y="136"/>
      <point x="174" y="141" type="qcurve"/>
      <point x="100" y="169" type="line"/>
      <point x="66" y="182"/>
      <point x="36" y="222"/>
      <point x="36" y="258" type="qcurve"/>
      <point x="36" y="301"/>
      <point x="81" y="344"/>
      <point x="123" y="344" type="qcurve"/>
      <point x="214" y="344" type="line"/>
      <point x="225" y="344"/>
      <point x="236" y="328"/>
      <point x="236" y="320" type="qcurve"/>
      <point x="236" y="313" type="line"/>
      <point x="236" y="303"/>
      <point x="224" y="290"/>
      <point x="214" y="290" type="qcurve"/>
      <point x="123" y="290" type="line" name="hr01"/>
      <point x="102" y="290"/>
      <point x="90" y="275"/>
      <point x="90" y="267" type="qcurve"/>
      <point x="90" y="250" type="line"/>
      <point x="90" y="239"/>
      <point x="99" y="228"/>
      <point x="116" y="221" type="qcurve"/>
      <point x="190" y="192" type="line"/>
      <point x="225" y="178"/>
      <point x="249" y="128"/>
      <point x="249" y="88" type="qcurve"/>
      <point x="249" y="42"/>
      <point x="202" y="0"/>
      <point x="157" y="0" type="qcurve"/>
    </contour>
  </outline>
</glyph>
<glyph name="t" format="1">
  <advance width="217"/>
  <unicode hex="0074"/>
  <outline>
    <contour>
      <point x="155" y="0" type="line" smooth="yes"/>
      <point x="113" y="0"/>
      <point x="60" y="55"/>
      <point x="60" y="101" type="qcurve" smooth="yes"/>
      <point x="60" y="295" type="line"/>
      <point x="37" y="295" type="line" smooth="yes"/>
      <point x="29" y="295"/>
      <point x="15" y="307"/>
      <point x="15" y="318" type="qcurve" smooth="yes"/>
      <point x="15" y="326" type="line" smooth="yes"/>
      <point x="15" y="336"/>
      <point x="27" y="350"/>
      <point x="37" y="350" type="qcurve" smooth="yes"/>
      <point x="60" y="350" type="line"/>
      <point x="60" y="384" type="line" smooth="yes"/>
      <point x="60" y="392"/>
      <point x="71" y="409"/>
      <point x="83" y="409" type="qcurve" smooth="yes"/>
      <point x="91" y="409" type="line" smooth="yes"/>
      <point x="104" y="409"/>
      <point x="112" y="390"/>
      <point x="112" y="384" type="qcurve" smooth="yes"/>
      <point x="112" y="350" type="line"/>
      <point x="170" y="350" type="line" smooth="yes"/>
      <point x="181" y="350"/>
      <point x="192" y="336"/>
      <point x="192" y="326" type="qcurve" smooth="yes"/>
      <point x="192" y="318" type="line" smooth="yes"/>
      <point x="192" y="307"/>
      <point x="178" y="295"/>
      <point x="170" y="295" type="qcurve" smooth="yes"/>
      <point x="112" y="295" type="line"/>
      <point x="112" y="101" type="line" smooth="yes"/>
      <point x="112.0" y="78.0" name="inserted"/>
      <point x="133.5" y="55.0"/>
      <point x="155" y="55" type="qcurve" smooth="yes"/>
      <point x="176" y="55" type="line" smooth="yes"/>
      <point x="186" y="55"/>
      <point x="198" y="41"/>
      <point x="198" y="31" type="qcurve" smooth="yes"/>
      <point x="198" y="23" type="line" smooth="yes"/>
      <point x="198" y="12"/>
      <point x="184" y="0"/>
      <point x="176" y="0" type="qcurve" smooth="yes"/>
    </contour>
  </outline>
</glyph>
<glyph name="u" format="1">
  <advance width="339"/>
  <unicode hex="0075"/>
  <outline>
    <contour>
      <point x="255" y="0" type="line" name="hr00"/>
      <point x="241" y="0"/>
      <point x="235" y="11" type="qcurve"/>
      <point x="217" y="0"/>
      <point x="187" y="0" type="qcurve"/>
      <point x="145" y="0" type="line"/>
      <point x="102" y="0"/>
      <point x="50" y="55"/>
      <point x="50" y="101" type="qcurve"/>
      <point x="50" y="320" type="line"/>
      <point x="50" y="330"/>
      <point x="62" y="344"/>
      <point x="73" y="344" type="qcurve"/>
      <point x="82" y="344" type="line"/>
      <point x="93" y="344"/>
      <point x="104" y="328"/>
      <point x="104" y="320" type="qcurve"/>
      <point x="104" y="102" type="line"/>
      <point x="104" y="76"/>
      <point x="124" y="54"/>
      <point x="145" y="54" type="qcurve"/>
      <point x="187" y="54" type="line"/>
      <point x="232" y="54"/>
      <point x="232" y="98" type="qcurve"/>
      <point x="232" y="320" type="line"/>
      <point x="232" y="330"/>
      <point x="244" y="344"/>
      <point x="255" y="344" type="qcurve"/>
      <point x="263" y="344" type="line"/>
      <point x="274" y="344"/>
      <point x="285" y="328"/>
      <point x="285" y="320" type="qcurve"/>
      <point x="285" y="24" type="line"/>
      <point x="285" y="16"/>
      <point x="274" y="0"/>
      <point x="263" y="0" type="qcurve"/>
    </contour>
  </outline>
</glyph>
<glyph name="v" format="1">
  <advance width="271"/>
  <unicode hex="0076"/>
  <outline>
    <contour>
      <point x="165" y="18" type="line" name="hr00"/>
      <point x="163" y="11"/>
      <point x="152" y="0"/>
      <point x="142" y="0" type="qcurve"/>
      <point x="129" y="0" type="line"/>
      <point x="118" y="0"/>
      <point x="108" y="13"/>
      <point x="106" y="18" type="qcurve"/>
      <point x="15" y="314" type="line"/>
      <point x="12" y="323"/>
      <point x="21" y="344"/>
      <point x="36" y="344" type="qcurve"/>
      <point x="45" y="344" type="line"/>
      <point x="56" y="344"/>
      <point x="66" y="331"/>
      <point x="68" y="327" type="qcurve"/>
      <point x="136" y="101" type="line"/>
      <point x="144" y="130"/>
      <point x="168" y="208"/>
      <point x="179" y="243" type="qcurve"/>
      <point x="204" y="326" type="line"/>
      <point x="205" y="330"/>
      <point x="215" y="344"/>
      <point x="226" y="344" type="qcurve"/>
      <point x="235" y="344" type="line"/>
      <point x="250" y="344"/>
      <point x="259" y="323"/>
      <point x="256" y="314" type="qcurve"/>
    </contour>
  </outline>
</glyph>
<glyph name="w" format="1">
  <advance width="458"/>
  <unicode hex="0077"/>
  <outline>
    <contour>
      <point x="351" y="19" type="line" name="hr00"/>
      <point x="346" y="0"/>
      <point x="327" y="0" type="qcurve"/>
      <point x="313" y="0" type="line"/>
      <point x="294" y="0"/>
      <point x="288" y="19" type="qcurve"/>
      <point x="229" y="226" type="line"/>
      <point x="169" y="17" type="line"/>
      <point x="166" y="10"/>
      <point x="154" y="0"/>
      <point x="144" y="0" type="qcurve"/>
      <point x="131" y="0" type="line"/>
      <point x="112" y="0"/>
      <point x="107" y="19" type="qcurve"/>
      <point x="15" y="315" type="line"/>
      <point x="13" y="323"/>
      <point x="22" y="344"/>
      <point x="37" y="344" type="qcurve"/>
      <point x="46" y="344" type="line"/>
      <point x="65" y="344"/>
      <point x="70" y="325" type="qcurve"/>
      <point x="137" y="107" type="line"/>
      <point x="200" y="325" type="line"/>
      <point x="206" y="344"/>
      <point x="225" y="344" type="qcurve"/>
      <point x="234" y="344" type="line"/>
      <point x="245" y="344"/>
      <point x="256" y="332"/>
      <point x="258" y="325" type="qcurve"/>
      <point x="320" y="107" type="line"/>
      <point x="387" y="327" type="line"/>
      <point x="389" y="332"/>
      <point x="400" y="344"/>
      <point x="411" y="344" type="qcurve"/>
      <point x="421" y="344" type="line"/>
      <point x="436" y="344"/>
      <point x="445" y="323"/>
      <point x="443" y="315" type="qcurve"/>
    </contour>
  </outline>
</glyph>
<glyph name="x" format="1">
  <advance width="270"/>
  <unicode hex="0078"/>
  <outline>
    <contour>
      <point x="218" y="0" type="line" name="hr00"/>
      <point x="210" y="0"/>
      <point x="199" y="10"/>
      <point x="197" y="15" type="qcurve"/>
      <point x="135" y="128" type="line"/>
      <point x="72" y="14" type="line"/>
      <point x="69" y="10"/>
      <point x="58" y="0"/>
      <point x="49" y="0" type="qcurve"/>
      <point x="38" y="0" type="line"/>
      <point x="27" y="0"/>
      <point x="18" y="8"/>
      <point x="16" y="20"/>
      <point x="20" y="32"/>
      <point x="22" y="35" type="qcurve"/>
      <point x="101" y="175" type="line"/>
      <point x="26" y="311" type="line"/>
      <point x="24" y="314"/>
      <point x="22" y="325"/>
      <point x="25" y="336"/>
      <point x="34" y="344"/>
      <point x="44" y="344" type="qcurve"/>
      <point x="55" y="344" type="line"/>
      <point x="63" y="344"/>
      <point x="74" y="335"/>
      <point x="77" y="330" type="qcurve"/>
      <point x="135" y="225" type="line"/>
      <point x="191" y="329" type="line"/>
      <point x="193" y="334"/>
      <point x="204" y="344"/>
      <point x="214" y="344" type="qcurve"/>
      <point x="225" y="344" type="line"/>
      <point x="235" y="344"/>
      <point x="244" y="336"/>
      <point x="246" y="325"/>
      <point x="243" y="314"/>
      <point x="242" y="311" type="qcurve"/>
      <point x="168" y="176" type="line"/>
      <point x="249" y="34" type="line"/>
      <point x="250" y="31"/>
      <point x="252" y="20"/>
      <point x="250" y="8"/>
      <point x="241" y="0"/>
      <point x="231" y="0" type="qcurve"/>
    </contour>
  </outline>
</glyph>
<glyph name="y" format="1">
  <advance width="308"/>
  <unicode hex="0079"/>
  <outline>
    <contour>
      <point x="187" y="26" type="line" name="hr00"/>
      <point x="169" y="-29"/>
      <point x="157" y="-48" type="qcurve"/>
      <point x="128" y="-99"/>
      <point x="72" y="-99" type="qcurve"/>
      <point x="56" y="-99" type="line"/>
      <point x="48" y="-99"/>
      <point x="31" y="-89"/>
      <point x="31" y="-75" type="qcurve"/>
      <point x="31" y="-68" type="line"/>
      <point x="31" y="-56"/>
      <point x="46" y="-44"/>
      <point x="56" y="-44" type="qcurve"/>
      <point x="72" y="-44" type="line"/>
      <point x="96" y="-44"/>
      <point x="120" y="-7"/>
      <point x="128" y="16" type="qcurve"/>
      <point x="116" y="48"/>
      <point x="90" y="121"/>
      <point x="63" y="198"/>
      <point x="35" y="276"/>
      <point x="22" y="314" type="qcurve"/>
      <point x="20" y="321"/>
      <point x="27" y="344"/>
      <point x="43" y="344" type="qcurve"/>
      <point x="52" y="344" type="line"/>
      <point x="63" y="344"/>
      <point x="73" y="330"/>
      <point x="75" y="326" type="qcurve"/>
      <point x="154" y="96" type="line"/>
      <point x="203" y="240" type="line"/>
      <point x="232" y="326" type="line"/>
      <point x="235" y="333"/>
      <point x="247" y="344"/>
      <point x="256" y="344" type="qcurve"/>
      <point x="265" y="344" type="line"/>
      <point x="281" y="344"/>
      <point x="287" y="321"/>
      <point x="286" y="314" type="qcurve"/>
    </contour>
  </outline>
</glyph>
<glyph name="z" format="1">
  <advance width="265"/>
  <unicode hex="007A"/>
  <outline>
    <contour>
      <point x="47" y="0" type="line" name="hr00"/>
      <point x="40" y="0"/>
      <point x="23" y="10"/>
      <point x="23" y="23" type="qcurve"/>
      <point x="23" y="29" type="line"/>
      <point x="23" y="34"/>
      <point x="26" y="41"/>
      <point x="27" y="43" type="qcurve"/>
      <point x="168" y="290" type="line"/>
      <point x="49" y="290" type="line"/>
      <point x="39" y="290"/>
      <point x="27" y="303"/>
      <point x="27" y="313" type="qcurve"/>
      <point x="27" y="320" type="line"/>
      <point x="27" y="328"/>
      <point x="38" y="344"/>
      <point x="49" y="344" type="qcurve"/>
      <point x="215" y="344" type="line"/>
      <point x="224" y="344"/>
      <point x="238" y="332"/>
      <point x="238" y="320" type="qcurve"/>
      <point x="238" y="313" type="line"/>
      <point x="238" y="308"/>
      <point x="235" y="301"/>
      <point x="234" y="299" type="qcurve"/>
      <point x="94" y="54" type="line"/>
      <point x="219" y="54" type="line"/>
      <point x="230" y="54"/>
      <point x="241" y="38"/>
      <point x="241" y="30" type="qcurve"/>
      <point x="241" y="23" type="line"/>
      <point x="241" y="14"/>
      <point x="229" y="0"/>
      <point x="219" y="0" type="qcurve"/>
    </contour>
  </outline>
</glyph>
<glyph name="braceleft" format="1">
  <advance width="184"/>
  <unicode hex="007B"/>
  <outline>
    <contour>
      <point x="130" y="-69" type="line" smooth="yes"/>
      <point x="92" y="-69"/>
      <point x="61" y="-8"/>
      <point x="61" y="34" type="qcurve" smooth="yes"/>
      <point x="61" y="122" type="line" smooth="yes"/>
      <point x="61" y="146"/>
      <point x="52" y="155"/>
      <point x="44" y="155" type="qcurve" smooth="yes"/>
      <point x="36" y="155"/>
      <point x="23" y="167"/>
      <point x="23" y="178" type="qcurve" smooth="yes"/>
      <point x="23" y="186" type="line" smooth="yes"/>
      <point x="23" y="195"/>
      <point x="33" y="210"/>
      <point x="44" y="210" type="qcurve" smooth="yes"/>
      <point x="52" y="210"/>
      <point x="61" y="219"/>
      <point x="61" y="242" type="qcurve" smooth="yes"/>
      <point x="61" y="330" type="line" smooth="yes"/>
      <point x="61" y="351"/>
      <point x="68" y="388"/>
      <point x="76.5" y="402.5" type="qcurve" smooth="yes" name="inserted"/>
      <point x="85" y="417"/>
      <point x="111" y="434"/>
      <point x="130" y="434" type="qcurve" smooth="yes"/>
      <point x="132" y="434" type="line" smooth="yes"/>
      <point x="143" y="434"/>
      <point x="153" y="419"/>
      <point x="153" y="409" type="qcurve" smooth="yes"/>
      <point x="153" y="402" type="line" smooth="yes"/>
      <point x="153" y="391"/>
      <point x="140" y="378"/>
      <point x="132" y="378" type="qcurve" smooth="yes"/>
      <point x="130" y="378" type="line" smooth="yes"/>
      <point x="121" y="378"/>
      <point x="109" y="363"/>
      <point x="109" y="329" type="qcurve" smooth="yes"/>
      <point x="109" y="242" type="line" smooth="yes"/>
      <point x="109" y="225"/>
      <point x="103" y="193"/>
      <point x="95" y="182" type="qcurve"/>
      <point x="103" y="171"/>
      <point x="109" y="140"/>
      <point x="109" y="123" type="qcurve" smooth="yes"/>
      <point x="109" y="35" type="line" smooth="yes"/>
      <point x="109" y="2"/>
      <point x="121" y="-13"/>
      <point x="130" y="-13" type="qcurve" smooth="yes"/>
      <point x="132" y="-13" type="line" smooth="yes"/>
      <point x="143" y="-13"/>
      <point x="153" y="-28"/>
      <point x="153" y="-38" type="qcurve" smooth="yes"/>
      <point x="153" y="-45" type="line" smooth="yes"/>
      <point x="153" y="-56"/>
      <point x="140" y="-69"/>
      <point x="132" y="-69" type="qcurve" smooth="yes"/>
    </contour>
  </outline>
</glyph>
<glyph name="bar" format="1">
  <advance width="123"/>
  <unicode hex="007C"/>
  <outline>
    <contour>
      <point x="55" y="0" type="line" smooth="yes"/>
      <point x="43" y="0"/>
      <point x="33" y="17"/>
      <point x="33" y="25" type="qcurve" smooth="yes"/>
      <point x="33" y="409" type="line" smooth="yes"/>
      <point x="33" y="417"/>
      <point x="43" y="434"/>
      <point x="55" y="434" type="qcurve" smooth="yes"/>
      <point x="63" y="434" type="line" smooth="yes"/>
      <point x="74.5" y="434.0" name="inserted"/>
      <point x="86.0" y="421.5"/>
      <point x="86" y="409" type="qcurve" smooth="yes"/>
      <point x="86" y="25" type="line" smooth="yes"/>
      <point x="86.0" y="12.5" name="inserted"/>
      <point x="74.5" y="0.0"/>
      <point x="63" y="0" type="qcurve" smooth="yes"/>
    </contour>
  </outline>
</glyph>
<glyph name="braceright" format="1">
  <advance width="184"/>
  <unicode hex="007D"/>
  <outline>
    <contour>
      <point x="131" y="155" type="qcurve" smooth="yes"/>
      <point x="123" y="155"/>
      <point x="114" y="146"/>
      <point x="114" y="122" type="qcurve" smooth="yes"/>
      <point x="114" y="34" type="line" smooth="yes"/>
      <point x="114" y="-8"/>
      <point x="83" y="-69"/>
      <point x="45" y="-69" type="qcurve" smooth="yes"/>
      <point x="43" y="-69" type="line" smooth="yes"/>
      <point x="35" y="-69"/>
      <point x="22" y="-56"/>
      <point x="22" y="-45" type="qcurve" smooth="yes"/>
      <point x="22" y="-38" type="line" smooth="yes"/>
      <point x="22" y="-28"/>
      <point x="32" y="-13"/>
      <point x="43" y="-13" type="qcurve" smooth="yes"/>
      <point x="45" y="-13" type="line" smooth="yes"/>
      <point x="54" y="-13"/>
      <point x="65" y="2"/>
      <point x="65" y="35" type="qcurve" smooth="yes"/>
      <point x="65" y="123" type="line" smooth="yes"/>
      <point x="65" y="140"/>
      <point x="72" y="171"/>
      <point x="80" y="182" type="qcurve"/>
      <point x="72" y="193"/>
      <point x="65" y="225"/>
      <point x="65" y="242" type="qcurve" smooth="yes"/>
      <point x="65" y="329" type="line" smooth="yes"/>
      <point x="65" y="363"/>
      <point x="53" y="378"/>
      <point x="45" y="378" type="qcurve" smooth="yes"/>
      <point x="43" y="378" type="line" smooth="yes"/>
      <point x="35" y="378"/>
      <point x="22" y="391"/>
      <point x="22" y="402" type="qcurve" smooth="yes"/>
      <point x="22" y="409" type="line" smooth="yes"/>
      <point x="22" y="419"/>
      <point x="32" y="434"/>
      <point x="43" y="434" type="qcurve" smooth="yes"/>
      <point x="45" y="434" type="line" smooth="yes"/>
      <point x="64" y="434"/>
      <point x="90" y="417"/>
      <point x="98.0" y="402.5" type="qcurve" smooth="yes" name="inserted"/>
      <point x="106" y="388"/>
      <point x="114" y="351"/>
      <point x="114" y="330" type="qcurve" smooth="yes"/>
      <point x="114" y="242" type="line" smooth="yes"/>
      <point x="114" y="219"/>
      <point x="123" y="210"/>
      <point x="131" y="210" type="qcurve" smooth="yes"/>
      <point x="142" y="210"/>
      <point x="152" y="195"/>
      <point x="152" y="186" type="qcurve" smooth="yes"/>
      <point x="152" y="178" type="line" smooth="yes"/>
      <point x="152" y="167"/>
      <point x="139" y="155"/>
    </contour>
  </outline>
</glyph>
<glyph name="asciitilde" format="1">
  <advance width="346"/>
  <unicode hex="007E"/>
  <outline>
    <contour>
      <point x="230" y="190" type="qcurve" smooth="yes"/>
      <point x="219" y="190"/>
      <point x="188" y="192"/>
      <point x="168" y="194" type="qcurve" smooth="yes"/>
      <point x="150" y="196"/>
      <point x="127" y="198"/>
      <point x="120" y="198" type="qcurve" smooth="yes"/>
      <point x="116.0" y="198.0" name="inserted"/>
      <point x="92.0" y="195.0"/>
      <point x="72" y="192" type="qcurve"/>
      <point x="64" y="192"/>
      <point x="47" y="199"/>
      <point x="47" y="207" type="qcurve" smooth="yes"/>
      <point x="47" y="218" type="line" smooth="yes"/>
      <point x="47" y="222"/>
      <point x="89" y="238"/>
      <point x="116" y="238" type="qcurve" smooth="yes"/>
      <point x="127" y="238"/>
      <point x="158" y="236"/>
      <point x="178" y="234" type="qcurve" smooth="yes"/>
      <point x="195" y="232"/>
      <point x="219" y="230"/>
      <point x="226" y="230" type="qcurve" smooth="yes"/>
      <point x="230.0" y="230.0" name="inserted"/>
      <point x="253.5" y="233.0"/>
      <point x="273" y="236" type="qcurve"/>
      <point x="281" y="236"/>
      <point x="298" y="230"/>
      <point x="298" y="221" type="qcurve" smooth="yes"/>
      <point x="298" y="210" type="line" smooth="yes"/>
      <point x="298" y="205"/>
      <point x="257" y="190"/>
    </contour>
  </outline>
</glyph>
<glyph name="cent" format="1">
  <advance width="276"/>
  <unicode hex="00A2"/>
  <outline>
    <contour>
      <point x="197" y="-5" type="line"/>
      <point x="197" y="-35" type="line" smooth="yes"/>
      <point x="197" y="-43"/>
      <point x="186" y="-60"/>
      <point x="175" y="-60" type="qcurve" smooth="yes"/>
      <point x="167" y="-60" type="line" smooth="yes"/>
      <point x="156" y="-60"/>
      <point x="145" y="-43"/>
      <point x="145" y="-35" type="qcurve" smooth="yes"/>
      <point x="145" y="-5" type="line"/>
      <point x="140" y="-5" type="line" smooth="yes"/>
      <point x="97" y="-5"/>
      <point x="47" y="51"/>
      <point x="47" y="99" type="qcurve" smooth="yes"/>
      <point x="47" y="246" type="line" smooth="yes"/>
      <point x="47" y="294"/>
      <point x="97" y="350"/>
      <point x="140" y="350" type="qcurve" smooth="yes"/>
      <point x="145" y="350" type="line"/>
      <point x="145" y="390" type="line" smooth="yes"/>
      <point x="145" y="400"/>
      <point x="157" y="414"/>
      <point x="167" y="414" type="qcurve" smooth="yes"/>
      <point x="175" y="414" type="line" smooth="yes"/>
      <point x="185" y="414"/>
      <point x="197" y="400"/>
      <point x="197" y="390" type="qcurve" smooth="yes"/>
      <point x="197" y="350" type="line"/>
      <point x="230" y="350" type="line" smooth="yes"/>
      <point x="241" y="350"/>
      <point x="253" y="335"/>
      <point x="253" y="325" type="qcurve" smooth="yes"/>
      <point x="253" y="318" type="line" smooth="yes"/>
      <point x="253" y="306"/>
      <point x="238" y="294"/>
      <point x="230" y="294" type="qcurve" smooth="yes"/>
      <point x="140" y="294" type="line" smooth="yes"/>
      <point x="119.5" y="294.0" name="inserted"/>
      <point x="99.0" y="270.0"/>
      <point x="99" y="246" type="qcurve" smooth="yes"/>
      <point x="99" y="100" type="line" smooth="yes"/>
      <point x="99" y="74"/>
      <point x="120" y="51"/>
      <point x="140" y="51" type="qcurve" smooth="yes"/>
      <point x="230" y="51" type="line" smooth="yes"/>
      <point x="241" y="51"/>
      <point x="253" y="36"/>
      <point x="253" y="26" type="qcurve" smooth="yes"/>
      <point x="253" y="19" type="line" smooth="yes"/>
      <point x="253" y="8"/>
      <point x="238" y="-5"/>
      <point x="230" y="-5" type="qcurve" smooth="yes"/>
    </contour>
  </outline>
</glyph>
<glyph name="copyright" format="1">
  <advance width="491"/>
  <unicode hex="00A9"/>
  <outline>
    <contour>
      <point x="151" y="0" type="line" name="hr00"/>
      <point x="106" y="0"/>
      <point x="50" y="55"/>
      <point x="50" y="103" type="qcurve"/>
      <point x="50" y="331" type="line"/>
      <point x="50" y="377"/>
      <point x="106" y="434"/>
      <point x="151" y="434" type="qcurve"/>
      <point x="340" y="434" type="line"/>
      <point x="385" y="434"/>
      <point x="441" y="377"/>
      <point x="441" y="331" type="qcurve"/>
      <point x="441" y="103" type="line"/>
      <point x="441" y="55"/>
      <point x="385" y="0"/>
      <point x="340" y="0" type="qcurve"/>
    </contour>
    <contour>
      <point x="384" y="330" type="line"/>
      <point x="384" y="379"/>
      <point x="340" y="379" type="qcurve"/>
      <point x="151" y="379" type="line"/>
      <point x="107" y="379"/>
      <point x="107" y="330" type="qcurve"/>
      <point x="107" y="104" type="line"/>
      <point x="107" y="55"/>
      <point x="151" y="55" type="qcurve"/>
      <point x="340" y="55" type="line"/>
      <point x="384" y="55"/>
      <point x="384" y="104" type="qcurve"/>
    </contour>
    <contour>
      <point x="237" y="72" type="line"/>
      <point x="191" y="72"/>
      <point x="142" y="117"/>
      <point x="142" y="162" type="qcurve"/>
      <point x="142" y="266" type="line"/>
      <point x="142" y="314"/>
      <point x="192" y="356"/>
      <point x="237" y="356" type="qcurve"/>
      <point x="250" y="356" type="line"/>
      <point x="295" y="356"/>
      <point x="344" y="314"/>
      <point x="344" y="266" type="qcurve"/>
      <point x="344" y="255" type="line"/>
      <point x="344" y="231"/>
      <point x="320" y="231" type="qcurve"/>
      <point x="312" y="231" type="line"/>
      <point x="300" y="231"/>
      <point x="289" y="247"/>
      <point x="289" y="255" type="qcurve"/>
      <point x="289" y="266" type="line"/>
      <point x="289" y="288"/>
      <point x="274" y="301"/>
      <point x="250" y="301" type="qcurve"/>
      <point x="237" y="301" type="line"/>
      <point x="213" y="301"/>
      <point x="199" y="288"/>
      <point x="199" y="266" type="qcurve"/>
      <point x="199" y="163" type="line"/>
      <point x="199" y="141"/>
      <point x="213" y="127"/>
      <point x="237" y="127" type="qcurve"/>
      <point x="250" y="127" type="line"/>
      <point x="274" y="127"/>
      <point x="289" y="141"/>
      <point x="289" y="163" type="qcurve"/>
      <point x="289" y="178" type="line"/>
      <point x="289" y="186"/>
      <point x="300" y="202"/>
      <point x="312" y="202" type="qcurve"/>
      <point x="320" y="202" type="line"/>
      <point x="344" y="202"/>
      <point x="344" y="178" type="qcurve"/>
      <point x="344" y="162" type="line"/>
      <point x="344" y="117"/>
      <point x="295" y="72"/>
      <point x="250" y="72" type="qcurve"/>
    </contour>
  </outline>
</glyph>
<glyph name="registered" format="1">
  <advance width="430"/>
  <unicode hex="00AE"/>
  <outline>
    <contour>
      <point x="180" y="409" type="line" smooth="yes"/>
      <point x="129" y="409"/>
      <point x="70" y="470"/>
      <point x="70" y="521" type="qcurve" smooth="yes"/>
      <point x="70" y="591" type="line" smooth="yes"/>
      <point x="70" y="642"/>
      <point x="129" y="703"/>
      <point x="180" y="703" type="qcurve" smooth="yes"/>
      <point x="249" y="703" type="line" smooth="yes"/>
      <point x="300" y="703"/>
      <point x="360" y="642"/>
      <point x="360" y="591" type="qcurve" smooth="yes"/>
      <point x="360" y="521" type="line" smooth="yes"/>
      <point x="360" y="470"/>
      <point x="300" y="409"/>
      <point x="249" y="409" type="qcurve" smooth="yes"/>
    </contour>
    <contour>
      <point x="302" y="590" type="line" smooth="yes"/>
      <point x="302.0" y="618.5" name="inserted"/>
      <point x="275.5" y="647.0"/>
      <point x="249" y="647" type="qcurve" smooth="yes"/>
      <point x="180" y="647" type="line" smooth="yes"/>
      <point x="153.5" y="647.0" name="inserted"/>
      <point x="127.0" y="618.5"/>
      <point x="127" y="590" type="qcurve" smooth="yes"/>
      <point x="127" y="522" type="line" smooth="yes"/>
      <point x="127.0" y="493.5" name="inserted"/>
      <point x="153.5" y="465.0"/>
      <point x="180" y="465" type="qcurve" smooth="yes"/>
      <point x="249" y="465" type="line" smooth="yes"/>
      <point x="275.5" y="465.0" name="inserted"/>
      <point x="302.0" y="493.5"/>
      <point x="302" y="522" type="qcurve" smooth="yes"/>
    </contour>
    <contour>
      <point x="253" y="472" type="line" smooth="yes"/>
      <point x="247" y="472"/>
      <point x="233" y="479"/>
      <point x="231" y="488" type="qcurve"/>
      <point x="215" y="523" type="line"/>
      <point x="210" y="523" type="line"/>
      <point x="210" y="496" type="line" smooth="yes"/>
      <point x="210" y="487"/>
      <point x="198" y="472"/>
      <point x="187" y="472" type="qcurve" smooth="yes"/>
      <point x="182" y="472" type="line" smooth="yes"/>
      <point x="171" y="472"/>
      <point x="159" y="487"/>
      <point x="159" y="496" type="qcurve" smooth="yes"/>
      <point x="159" y="617" type="line" smooth="yes"/>
      <point x="159" y="626"/>
      <point x="171" y="641"/>
      <point x="182" y="641" type="qcurve" smooth="yes"/>
      <point x="229" y="641" type="line" smooth="yes"/>
      <point x="252" y="641"/>
      <point x="278" y="613"/>
      <point x="278" y="591" type="qcurve" smooth="yes"/>
      <point x="278" y="573" type="line" smooth="yes"/>
      <point x="278.0" y="560.5" name="inserted"/>
      <point x="270.5" y="541.5"/>
      <point x="263" y="535" type="qcurve"/>
      <point x="278" y="503" type="line" smooth="yes"/>
      <point x="281" y="496"/>
      <point x="279" y="472"/>
      <point x="261" y="472" type="qcurve" smooth="yes"/>
    </contour>
    <contour>
      <point x="228" y="572" type="line"/>
      <point x="228" y="592" type="line"/>
      <point x="210" y="592" type="line"/>
      <point x="210" y="572" type="line"/>
    </contour>
  </outline>
</glyph>
<glyph name="onequarter" format="1">
  <advance width="721"/>
  <unicode hex="00BC"/>
  <outline>
    <contour>
      <point x="616" y="122" type="line" name="hr00"/>
      <point x="616" y="253" type="line"/>
      <point x="519" y="122" type="line"/>
    </contour>
    <contour>
      <point x="616" y="-11" type="line"/>
      <point x="616" y="72" type="line"/>
      <point x="451" y="72" type="line"/>
      <point x="451" y="115" type="line"/>
      <point x="619" y="339" type="line"/>
      <point x="674" y="339" type="line"/>
      <point x="674" y="122" type="line"/>
      <point x="724" y="122" type="line"/>
      <point x="724" y="72" type="line"/>
      <point x="674" y="72" type="line"/>
      <point x="674" y="-11" type="line"/>
    </contour>
    <contour>
      <point x="134" y="-29" type="line"/>
      <point x="536" y="614" type="line"/>
      <point x="607" y="614" type="line"/>
      <point x="206" y="-29" type="line"/>
    </contour>
    <contour>
      <point x="144" y="246" type="line"/>
      <point x="144" y="510" type="line"/>
      <point x="158" y="510"/>
      <point x="153" y="507"/>
      <point x="136" y="503" type="qcurve"/>
      <point x="101" y="497"/>
      <point x="66" y="497" type="qcurve"/>
      <point x="50" y="497" type="line"/>
      <point x="50" y="540" type="line"/>
      <point x="63" y="540" type="line"/>
      <point x="106" y="540"/>
      <point x="145" y="567"/>
      <point x="149" y="606" type="qcurve"/>
      <point x="203" y="606" type="line"/>
      <point x="203" y="246" type="line"/>
    </contour>
  </outline>
</glyph>
<glyph name="onehalf" format="1">
  <advance width="721"/>
  <unicode hex="00BD"/>
  <outline>
    <contour>
      <point x="450" y="-11" type="line"/>
      <point x="450" y="10" type="line"/>
      <point x="450" y="52"/>
      <point x="497" y="113"/>
      <point x="549" y="141" type="qcurve"/>
      <point x="555" y="145"/>
      <point x="573" y="154"/>
      <point x="584" y="160" type="qcurve"/>
      <point x="607" y="171"/>
      <point x="635" y="189"/>
      <point x="642" y="194" type="qcurve"/>
      <point x="651" y="205"/>
      <point x="661" y="225"/>
      <point x="661" y="239" type="qcurve"/>
      <point x="661" y="267"/>
      <point x="626" y="299"/>
      <point x="593" y="299" type="qcurve"/>
      <point x="556" y="299"/>
      <point x="518" y="261"/>
      <point x="517" y="215" type="qcurve"/>
      <point x="459" y="215" type="line"/>
      <point x="461" y="285"/>
      <point x="531" y="348"/>
      <point x="594" y="348" type="qcurve"/>
      <point x="651" y="348"/>
      <point x="720" y="290"/>
      <point x="720" y="239" type="qcurve"/>
      <point x="720" y="193"/>
      <point x="686" y="163" type="qcurve"/>
      <point x="669" y="145"/>
      <point x="613" y="116" type="qcurve"/>
      <point x="584" y="101" type="line"/>
      <point x="542" y="80"/>
      <point x="511" y="45"/>
      <point x="510" y="38" type="qcurve" name="hr01"/>
      <point x="719" y="38" type="line"/>
      <point x="719" y="-11" type="line"/>
    </contour>
    <contour>
      <point x="134" y="-29" type="line"/>
      <point x="536" y="614" type="line"/>
      <point x="607" y="614" type="line"/>
      <point x="206" y="-29" type="line"/>
    </contour>
    <contour>
      <point x="144" y="246" type="line"/>
      <point x="144" y="510" type="line"/>
      <point x="158" y="510"/>
      <point x="153" y="507"/>
      <point x="136" y="503" type="qcurve"/>
      <point x="101" y="497"/>
      <point x="66" y="497" type="qcurve"/>
      <point x="50" y="497" type="line"/>
      <point x="50" y="540" type="line"/>
      <point x="63" y="540" type="line"/>
      <point x="106" y="540"/>
      <point x="145" y="567"/>
      <point x="149" y="606" type="qcurve"/>
      <point x="203" y="606" type="line"/>
      <point x="203" y="246" type="line"/>
    </contour>
  </outline>
</glyph>
<glyph name="threequarters" format="1">
  <advance width="720"/>
  <unicode hex="00BE"/>
  <outline>
    <contour>
      <point x="616" y="122" type="line"/>
      <point x="616" y="253" type="line"/>
      <point x="519" y="122" type="line"/>
    </contour>
    <contour>
      <point x="616" y="-11" type="line"/>
      <point x="616" y="72" type="line"/>
      <point x="451" y="72" type="line"/>
      <point x="451" y="115" type="line"/>
      <point x="618" y="339" type="line"/>
      <point x="673" y="339" type="line"/>
      <point x="673" y="122" type="line"/>
      <point x="724" y="122" type="line"/>
      <point x="724" y="72" type="line"/>
      <point x="673" y="72" type="line"/>
      <point x="673" y="-11" type="line"/>
    </contour>
    <contour>
      <point x="134" y="-29" type="line"/>
      <point x="536" y="614" type="line"/>
      <point x="608" y="614" type="line"/>
      <point x="205" y="-29" type="line"/>
    </contour>
    <contour>
      <point x="18" y="366" type="line"/>
      <point x="78" y="366" type="line"/>
      <point x="79" y="321"/>
      <point x="116" y="286"/>
      <point x="151" y="286" type="qcurve" smooth="yes"/>
      <point x="189.0" y="286.0" name="inserted"/>
      <point x="227.0" y="317.5"/>
      <point x="227" y="349" type="qcurve" smooth="yes"/>
      <point x="227" y="379"/>
      <point x="187" y="408"/>
      <point x="142" y="408" type="qcurve" smooth="yes"/>
      <point x="136" y="408"/>
      <point x="129" y="408"/>
      <point x="115" y="406" type="qcurve"/>
      <point x="115" y="455" type="line"/>
      <point x="140" y="455" type="line" smooth="yes"/>
      <point x="178.0" y="455.0" name="inserted"/>
      <point x="216.0" y="481.5"/>
      <point x="216" y="508" type="qcurve" smooth="yes"/>
      <point x="216" y="530"/>
      <point x="184" y="557"/>
      <point x="155" y="557" type="qcurve" smooth="yes"/>
      <point x="123" y="557"/>
      <point x="88" y="526"/>
      <point x="87" y="484" type="qcurve"/>
      <point x="29" y="484" type="line"/>
      <point x="33" y="547"/>
      <point x="98" y="606"/>
      <point x="155" y="606" type="qcurve" smooth="yes"/>
      <point x="210" y="606"/>
      <point x="274" y="553"/>
      <point x="274" y="508" type="qcurve" smooth="yes"/>
      <point x="274.0" y="492.5" name="inserted"/>
      <point x="266.0" y="467.0"/>
      <point x="258" y="457" type="qcurve" smooth="yes"/>
      <point x="250.5" y="447.0" name="inserted"/>
      <point x="243.5" y="437.0"/>
      <point x="244" y="437" type="qcurve" smooth="yes"/>
      <point x="245.5" y="437.0" name="inserted"/>
      <point x="257.0" y="424.0"/>
      <point x="267" y="411" type="qcurve" smooth="yes"/>
      <point x="277.0" y="398.0" name="inserted"/>
      <point x="287.0" y="367.0"/>
      <point x="287" y="349" type="qcurve" smooth="yes"/>
      <point x="287" y="297"/>
      <point x="215" y="237"/>
      <point x="152" y="237" type="qcurve" smooth="yes"/>
      <point x="89" y="237"/>
      <point x="18" y="299"/>
      <point x="18" y="354" type="qcurve" smooth="yes"/>
    </contour>
  </outline>
</glyph>
<glyph name="multiply" format="1">
  <advance width="545"/>
  <unicode hex="00D7"/>
  <outline>
    <contour>
      <point x="117" y="-2" type="line"/>
      <point x="70" y="45" type="line"/>
      <point x="225" y="201" type="line"/>
      <point x="70" y="356" type="line"/>
      <point x="121" y="407" type="line"/>
      <point x="276" y="252" type="line"/>
      <point x="431" y="407" type="line"/>
      <point x="481" y="356" type="line"/>
      <point x="326" y="201" type="line"/>
      <point x="481" y="45" type="line"/>
      <point x="432" y="-5" type="line"/>
      <point x="276" y="151" type="line"/>
      <point x="117" y="-7" type="line"/>
    </contour>
  </outline>
</glyph>
<glyph name="divide" format="1">
  <advance width="329"/>
  <unicode hex="00F7"/>
  <outline>
    <contour>
      <point x="123" y="262" type="line"/>
      <point x="123" y="302" type="line"/>
      <point x="167" y="302" type="line"/>
      <point x="167" y="262" type="line"/>
    </contour>
    <contour>
      <point x="-1" y="155" type="line"/>
      <point x="-1" y="199" type="line"/>
      <point x="282" y="199" type="line"/>
      <point x="282" y="155" type="line"/>
    </contour>
    <contour>
      <point x="125" y="38" type="line"/>
      <point x="125" y="79" type="line"/>
      <point x="170" y="79" type="line"/>
      <point x="170" y="38" type="line"/>
    </contour>
  </outline>
</glyph>
<glyph name="uni0950" format="1">
  <advance width="568"/>
  <unicode hex="0950"/>
  <outline>
    <contour>
      <point x="380" y="402" type="line"/>
      <point x="369" y="402"/>
      <point x="360" y="415"/>
      <point x="360" y="422" type="qcurve"/>
      <point x="360" y="439" type="line"/>
      <point x="360" y="446"/>
      <point x="368" y="461"/>
      <point x="380" y="461" type="qcurve"/>
      <point x="392" y="461" type="line"/>
      <point x="403" y="461"/>
      <point x="413" y="447"/>
      <point x="413" y="439" type="qcurve"/>
      <point x="413" y="422" type="line"/>
      <point x="413" y="413"/>
      <point x="401" y="402"/>
      <point x="392" y="402" type="qcurve"/>
    </contour>
    <contour>
      <point x="366" y="328" type="line"/>
      <point x="275" y="328"/>
      <point x="275" y="420" type="qcurve"/>
      <point x="275" y="424" type="line"/>
      <point x="275" y="435"/>
      <point x="288" y="444"/>
      <point x="296" y="444" type="qcurve"/>
      <point x="305" y="444" type="line"/>
      <point x="313" y="444"/>
      <point x="325" y="433"/>
      <point x="325" y="424" type="qcurve"/>
      <point x="325" y="420" type="line"/>
      <point x="325" y="394"/>
      <point x="340" y="377"/>
      <point x="366" y="377" type="qcurve" name="hr01"/>
      <point x="405" y="377" type="line"/>
      <point x="431" y="377"/>
      <point x="446" y="394"/>
      <point x="446" y="420" type="qcurve"/>
      <point x="446" y="424" type="line"/>
      <point x="446" y="435"/>
      <point x="460" y="444"/>
      <point x="467" y="444" type="qcurve"/>
      <point x="476" y="444" type="line"/>
      <point x="484" y="444"/>
      <point x="496" y="433"/>
      <point x="496" y="424" type="qcurve"/>
      <point x="496" y="420" type="line"/>
      <point x="496" y="328"/>
      <point x="405" y="328" type="qcurve"/>
    </contour>
    <contour>
      <point x="405" y="27" type="line"/>
      <point x="360" y="27"/>
      <point x="311" y="73"/>
      <point x="311" y="118" type="qcurve"/>
      <point x="311" y="166" type="line"/>
      <point x="259" y="166" type="line"/>
      <point x="259" y="158" type="line" name="hr02"/>
      <point x="259" y="128" type="line"/>
      <point x="259" y="82"/>
      <point x="205" y="27"/>
      <point x="160" y="27" type="qcurve"/>
      <point x="137" y="27" type="line"/>
      <point x="92" y="27"/>
      <point x="37" y="80"/>
      <point x="37" y="128" type="qcurve"/>
      <point x="37" y="153" type="line"/>
      <point x="37" y="161"/>
      <point x="47" y="174"/>
      <point x="57" y="174" type="qcurve"/>
      <point x="66" y="174" type="line"/>
      <point x="76" y="174"/>
      <point x="87" y="162"/>
      <point x="87" y="153" type="qcurve"/>
      <point x="87" y="129" type="line"/>
      <point x="87" y="75"/>
      <point x="137" y="75" type="qcurve"/>
      <point x="160" y="75" type="line"/>
      <point x="210" y="75"/>
      <point x="210" y="129" type="qcurve"/>
      <point x="210" y="158" type="line"/>
      <point x="210" y="208"/>
      <point x="160" y="208" type="qcurve"/>
      <point x="117" y="208" type="line"/>
      <point x="106" y="208"/>
      <point x="97" y="221"/>
      <point x="97" y="229" type="qcurve"/>
      <point x="97" y="237" type="line"/>
      <point x="97" y="245"/>
      <point x="109" y="257"/>
      <point x="117" y="257" type="qcurve"/>
      <point x="160" y="257" type="line"/>
      <point x="210" y="257"/>
      <point x="210" y="308" type="qcurve"/>
      <point x="210" y="324" type="line"/>
      <point x="210" y="375"/>
      <point x="160" y="375" type="qcurve"/>
      <point x="100" y="375" type="line"/>
      <point x="91" y="375"/>
      <point x="79" y="386"/>
      <point x="79" y="396" type="qcurve"/>
      <point x="79" y="403" type="line"/>
      <point x="79" y="413"/>
      <point x="92" y="423"/>
      <point x="100" y="423" type="qcurve"/>
      <point x="160" y="423" type="line"/>
      <point x="205" y="423"/>
      <point x="259" y="372"/>
      <point x="259" y="324" type="qcurve"/>
      <point x="259" y="307" type="line"/>
      <point x="259" y="257"/>
      <point x="228" y="233" type="qcurve"/>
      <point x="237" y="226"/>
      <point x="245" y="214" type="qcurve" name="hr03"/>
      <point x="321" y="214" type="line"/>
      <point x="339" y="214"/>
      <point x="360" y="193"/>
      <point x="360" y="174" type="qcurve"/>
      <point x="360" y="119" type="line"/>
      <point x="360" y="93"/>
      <point x="378" y="75"/>
      <point x="405" y="75" type="qcurve" name="hr04"/>
      <point x="414" y="75" type="line"/>
      <point x="440" y="75"/>
      <point x="458" y="93"/>
      <point x="458" y="119" type="qcurve"/>
      <point x="458" y="217" type="line"/>
      <point x="458" y="244"/>
      <point x="437" y="266"/>
      <point x="415" y="266" type="qcurve"/>
      <point x="341" y="266" type="line"/>
      <point x="332" y="266"/>
      <point x="320" y="278"/>
      <point x="320" y="287" type="qcurve"/>
      <point x="320" y="294" type="line"/>
      <point x="320" y="305"/>
      <point x="333" y="314"/>
      <point x="341" y="314" type="qcurve" name="hr05"/>
      <point x="414" y="314" type="line"/>
      <point x="457" y="314"/>
      <point x="508" y="265"/>
      <point x="508" y="217" type="qcurve"/>
      <point x="508" y="118" type="line"/>
      <point x="508" y="73"/>
      <point x="459" y="27"/>
      <point x="414" y="27" type="qcurve"/>
    </contour>
  </outline>
</glyph>
<glyph name="uni0951" format="1">
  <advance width="0"/>
  <unicode hex="0951"/>
  <outline>
    <contour>
      <point x="-174" y="867" type="line"/>
      <point x="-235" y="867" type="line"/>
      <point x="-235" y="1270" type="line"/>
      <point x="-174" y="1270" type="line"/>
    </contour>
  </outline>
</glyph>
<glyph name="uni0952" format="1">
  <advance width="0"/>
  <unicode hex="0952"/>
  <outline>
    <contour>
      <point x="-47" y="-392" type="line"/>
      <point x="-606" y="-392" type="line"/>
      <point x="-607" y="-346" type="line"/>
      <point x="-48" y="-346" type="line"/>
    </contour>
  </outline>
</glyph>
<glyph name="uni0964" format="1">
  <advance width="104"/>
  <unicode hex="0964"/>
  <outline>
    <contour>
      <point x="0" y="0" type="line" name="hr00"/>
      <point x="0" y="261" type="line"/>
      <point x="51" y="261" type="line"/>
      <point x="51" y="0" type="line"/>
    </contour>
  </outline>
</glyph>
<glyph name="uni0965" format="1">
  <advance width="262"/>
  <unicode hex="0965"/>
  <outline>
    <contour>
      <point x="30" y="0" type="line"/>
      <point x="30" y="301" type="line"/>
      <point x="81" y="301" type="line"/>
      <point x="81" y="0" type="line"/>
    </contour>
    <contour>
      <point x="140" y="0" type="line"/>
      <point x="140" y="301" type="line"/>
      <point x="191" y="301" type="line"/>
      <point x="191" y="0" type="line"/>
    </contour>
  </outline>
</glyph>
<glyph name="uni0C01" format="1">
  <advance width="209"/>
  <unicode hex="0C01"/>
  <outline>
    <contour>
      <point x="61" y="0" type="line"/>
      <point x="38" y="0"/>
      <point x="0" y="37"/>
      <point x="0" y="66" type="qcurve"/>
      <point x="0" y="263" type="line"/>
      <point x="0" y="291"/>
      <point x="38" y="328"/>
      <point x="61" y="328" type="qcurve" name="hr01"/>
      <point x="162" y="328" type="line"/>
      <point x="162" y="280" type="line"/>
      <point x="64" y="280" type="line" name="hr02"/>
      <point x="47" y="280"/>
      <point x="47" y="263" type="qcurve"/>
      <point x="47" y="66" type="line"/>
      <point x="47" y="48"/>
      <point x="64" y="48" type="qcurve"/>
      <point x="162" y="48" type="line"/>
      <point x="162" y="0" type="line"/>
    </contour>
  </outline>
</glyph>
<glyph name="uni0C02" format="1">
  <advance width="313"/>
  <unicode hex="0C02"/>
  <outline>
    <contour>
      <point x="67" y="0" type="line" smooth="yes"/>
      <point x="44" y="0"/>
      <point x="5" y="37"/>
      <point x="5" y="66" type="qcurve" smooth="yes"/>
      <point x="5" y="263" type="line" smooth="yes"/>
      <point x="5" y="291"/>
      <point x="44" y="328"/>
      <point x="67" y="328" type="qcurve" smooth="yes"/>
      <point x="202" y="328" type="line" smooth="yes"/>
      <point x="225" y="328"/>
      <point x="264" y="291"/>
      <point x="264" y="263" type="qcurve" smooth="yes"/>
      <point x="264" y="66" type="line" smooth="yes"/>
      <point x="264" y="46"/>
      <point x="249" y="21"/>
      <point x="239.5" y="13.5" type="qcurve" smooth="yes" name="inserted"/>
      <point x="230" y="6"/>
      <point x="210" y="0"/>
      <point x="204" y="0" type="qcurve" smooth="yes"/>
    </contour>
    <contour>
      <point x="216" y="263" type="line" smooth="yes"/>
      <point x="216" y="272"/>
      <point x="206" y="280"/>
      <point x="200" y="280" type="qcurve" smooth="yes"/>
      <point x="70" y="280" type="line" smooth="yes"/>
      <point x="61.5" y="280.0" name="inserted"/>
      <point x="53.0" y="271.5"/>
      <point x="53" y="263" type="qcurve" smooth="yes"/>
      <point x="53" y="66" type="line" smooth="yes"/>
      <point x="53.0" y="57.0" name="inserted"/>
      <point x="61.5" y="48.0"/>
      <point x="70" y="48" type="qcurve" smooth="yes"/>
      <point x="200" y="48" type="line" smooth="yes"/>
      <point x="206" y="48"/>
      <point x="216" y="57"/>
      <point x="216" y="66" type="qcurve" smooth="yes"/>
    </contour>
  </outline>
</glyph>
<glyph name="uni0C03" format="1">
  <advance width="216"/>
  <unicode hex="0C03"/>
  <outline>
    <contour>
      <point x="61" y="180" type="line" name="hr00"/>
      <point x="38" y="180"/>
      <point x="0" y="217"/>
      <point x="0" y="245" type="qcurve"/>
      <point x="0" y="263" type="line"/>
      <point x="0" y="291"/>
      <point x="38" y="328"/>
      <point x="61" y="328" type="qcurve"/>
      <point x="100" y="328" type="line"/>
      <point x="124" y="328"/>
      <point x="162" y="291"/>
      <point x="162" y="263" type="qcurve"/>
      <point x="162" y="245" type="line"/>
      <point x="162" y="217"/>
      <point x="124" y="180"/>
      <point x="100" y="180" type="qcurve"/>
    </contour>
    <contour>
      <point x="61" y="0" type="line"/>
      <point x="38" y="0"/>
      <point x="0" y="37"/>
      <point x="0" y="66" type="qcurve"/>
      <point x="0" y="82" type="line"/>
      <point x="0" y="110"/>
      <point x="38" y="147"/>
      <point x="61" y="147" type="qcurve"/>
      <point x="100" y="147" type="line"/>
      <point x="124" y="147"/>
      <point x="162" y="110"/>
      <point x="162" y="82" type="qcurve"/>
      <point x="162" y="66" type="line"/>
      <point x="162" y="37"/>
      <point x="124" y="0"/>
      <point x="100" y="0" type="qcurve"/>
    </contour>
    <contour>
      <point x="115" y="263" type="line"/>
      <point x="115" y="280"/>
      <point x="98" y="280" type="qcurve"/>
      <point x="64" y="280" type="line"/>
      <point x="47" y="280"/>
      <point x="47" y="263" type="qcurve"/>
      <point x="47" y="245" type="line"/>
      <point x="47" y="228"/>
      <point x="64" y="228" type="qcurve"/>
      <point x="98" y="228" type="line"/>
      <point x="115" y="228"/>
      <point x="115" y="245" type="qcurve"/>
    </contour>
    <contour>
      <point x="115" y="82" type="line"/>
      <point x="115" y="100"/>
      <point x="98" y="100" type="qcurve"/>
      <point x="64" y="100" type="line"/>
      <point x="47" y="100"/>
      <point x="47" y="82" type="qcurve"/>
      <point x="47" y="66" type="line"/>
      <point x="47" y="48"/>
      <point x="64" y="48" type="qcurve"/>
      <point x="98" y="48" type="line"/>
      <point x="115" y="48"/>
      <point x="115" y="66" type="qcurve"/>
    </contour>
  </outline>
</glyph>
<glyph name="uni0C05" format="1">
  <advance width="379"/>
  <unicode hex="0C05"/>
  <outline>
    <contour>
      <point x="158" y="148" type="line"/>
      <point x="174" y="148"/>
      <point x="182" y="163"/>
      <point x="182" y="173" type="qcurve"/>
      <point x="182" y="262" type="line"/>
      <point x="182" y="291"/>
      <point x="222" y="328"/>
      <point x="245" y="328" type="qcurve"/>
      <point x="276" y="328" type="line"/>
      <point x="300" y="328"/>
      <point x="339" y="291"/>
      <point x="339" y="262" type="qcurve"/>
      <point x="339" y="66" type="line"/>
      <point x="339" y="37"/>
      <point x="300" y="0"/>
      <point x="276" y="0" type="qcurve"/>
      <point x="63" y="0" type="line"/>
      <point x="39" y="0"/>
      <point x="0" y="37"/>
      <point x="0" y="66" type="qcurve"/>
      <point x="0" y="262" type="line"/>
      <point x="0" y="291"/>
      <point x="39" y="328"/>
      <point x="63" y="328" type="qcurve"/>
      <point x="94" y="328" type="line"/>
      <point x="117" y="328"/>
      <point x="157" y="291"/>
      <point x="157" y="262" type="qcurve"/>
      <point x="157" y="232" type="line"/>
      <point x="157" y="203"/>
      <point x="117" y="166"/>
      <point x="94" y="166" type="qcurve"/>
      <point x="48" y="166" type="line"/>
      <point x="48" y="66" type="line"/>
      <point x="48" y="57"/>
      <point x="58" y="48"/>
      <point x="65" y="48" type="qcurve"/>
      <point x="274" y="48" type="line" name="hr01"/>
      <point x="281" y="48"/>
      <point x="291" y="57"/>
      <point x="291" y="66" type="qcurve"/>
      <point x="291" y="263" type="line"/>
      <point x="291" y="280"/>
      <point x="274" y="280" type="qcurve"/>
      <point x="247" y="280" type="line"/>
      <point x="240" y="280"/>
      <point x="230" y="272"/>
      <point x="230" y="263" type="qcurve"/>
      <point x="230" y="156" type="line"/>
      <point x="230" y="148"/>
      <point x="225" y="129"/>
      <point x="215" y="112"/>
      <point x="197" y="100"/>
      <point x="184" y="100" type="qcurve"/>
      <point x="70" y="100" type="line"/>
      <point x="70" y="148" type="line"/>
    </contour>
    <contour>
      <point x="108" y="263" type="line"/>
      <point x="108" y="280"/>
      <point x="92" y="280" type="qcurve"/>
      <point x="65" y="280" type="line"/>
      <point x="48" y="280"/>
      <point x="48" y="263" type="qcurve"/>
      <point x="48" y="214" type="line"/>
      <point x="92" y="214" type="line"/>
      <point x="108" y="214"/>
      <point x="108" y="231" type="qcurve"/>
    </contour>
  </outline>
</glyph>
<glyph name="uni0C06" format="1">
  <advance width="375"/>
  <unicode hex="0C06"/>
  <outline>
    <contour>
      <point x="63" y="0" type="line" smooth="yes"/>
      <point x="39" y="0"/>
      <point x="0" y="37"/>
      <point x="0" y="66" type="qcurve" smooth="yes"/>
      <point x="0" y="262" type="line" smooth="yes"/>
      <point x="0" y="291"/>
      <point x="39" y="328"/>
      <point x="63" y="328" type="qcurve" smooth="yes"/>
      <point x="94" y="328" type="line" smooth="yes"/>
      <point x="117" y="328"/>
      <point x="157" y="291"/>
      <point x="157" y="262" type="qcurve" smooth="yes"/>
      <point x="157" y="232" type="line" smooth="yes"/>
      <point x="157" y="203"/>
      <point x="117" y="166"/>
      <point x="94" y="166" type="qcurve" smooth="yes"/>
      <point x="48" y="166" type="line"/>
      <point x="48" y="66" type="line" smooth="yes"/>
      <point x="48" y="57"/>
      <point x="57" y="48"/>
      <point x="63" y="48" type="qcurve" smooth="yes"/>
      <point x="262" y="48" type="line" smooth="yes"/>
      <point x="269" y="48"/>
      <point x="279" y="57"/>
      <point x="279" y="66" type="qcurve" smooth="yes"/>
      <point x="279" y="82" type="line" smooth="yes"/>
      <point x="279.0" y="91.0" name="inserted"/>
      <point x="270.5" y="100.0"/>
      <point x="262" y="100" type="qcurve" smooth="yes"/>
      <point x="73" y="100" type="line"/>
      <point x="73" y="148" type="line"/>
      <point x="194" y="148" type="line"/>
      <point x="190" y="148"/>
      <point x="180" y="164"/>
      <point x="180" y="172" type="qcurve" smooth="yes"/>
      <point x="180" y="262" type="line" smooth="yes"/>
      <point x="180" y="291"/>
      <point x="220" y="328"/>
      <point x="243" y="328" type="qcurve" smooth="yes"/>
      <point x="264" y="328" type="line" smooth="yes"/>
      <point x="287" y="328"/>
      <point x="327" y="291"/>
      <point x="327" y="262" type="qcurve" smooth="yes"/>
      <point x="327" y="164" type="line" smooth="yes"/>
      <point x="327" y="151"/>
      <point x="306" y="126"/>
      <point x="296" y="126" type="qcurve"/>
      <point x="310" y="124"/>
      <point x="327" y="103"/>
      <point x="327" y="93" type="qcurve" smooth="yes"/>
      <point x="327" y="66" type="line" smooth="yes"/>
      <point x="327" y="37"/>
      <point x="287" y="0"/>
      <point x="264" y="0" type="qcurve" smooth="yes"/>
    </contour>
    <contour>
      <point x="279" y="263" type="line" smooth="yes"/>
      <point x="279.0" y="271.5" name="inserted"/>
      <point x="270.5" y="280.0"/>
      <point x="262" y="280" type="qcurve" smooth="yes"/>
      <point x="245" y="280" type="line" smooth="yes"/>
      <point x="238" y="280"/>
      <point x="228" y="272"/>
      <point x="228" y="263" type="qcurve" smooth="yes"/>
      <point x="228" y="169" type="line" smooth="yes"/>
      <point x="228" y="160"/>
      <point x="238" y="151"/>
      <point x="245" y="151" type="qcurve" smooth="yes"/>
      <point x="262" y="151" type="line" smooth="yes"/>
      <point x="269" y="151"/>
      <point x="279" y="161"/>
      <point x="279" y="169" type="qcurve" smooth="yes"/>
    </contour>
    <contour>
      <point x="108" y="263" type="line" smooth="yes"/>
      <point x="108.0" y="271.5" name="inserted"/>
      <point x="100.0" y="280.0"/>
      <point x="92" y="280" type="qcurve" smooth="yes"/>
      <point x="65" y="280" type="line" smooth="yes"/>
      <point x="56.5" y="280.0" name="inserted"/>
      <point x="48.0" y="271.5"/>
      <point x="48" y="263" type="qcurve" smooth="yes"/>
      <point x="48" y="214" type="line"/>
      <point x="92" y="214" type="line" smooth="yes"/>
      <point x="100.0" y="214.0" name="inserted"/>
      <point x="108.0" y="222.5"/>
      <point x="108" y="231" type="qcurve" smooth="yes"/>
    </contour>
  </outline>
</glyph>
